<svg width="52" height="52" viewBox="0 0 52 52" fill="none" xmlns="http://www.w3.org/2000/svg">
<path d="M24.375 0C26.6094 0 28.7676 0.28776 30.8496 0.863281C32.9316 1.4388 34.8698 2.25977 36.6641 3.32617C38.4583 4.39258 40.1003 5.66211 41.5898 7.13477C43.0794 8.60742 44.349 10.2493 45.3984 12.0605C46.4479 13.8717 47.2689 15.8184 47.8613 17.9004C48.4538 19.9824 48.75 22.1406 48.75 24.375C48.75 26.6094 48.4622 28.7676 47.8867 30.8496C47.3112 32.9316 46.4902 34.8698 45.4238 36.6641C44.3574 38.4583 43.0879 40.1003 41.6152 41.5898C40.1426 43.0794 38.5007 44.349 36.6895 45.3984C34.8783 46.4479 32.9316 47.2689 30.8496 47.8613C28.7676 48.4538 26.6094 48.75 24.375 48.75C22.1406 48.75 19.9824 48.4622 17.9004 47.8867C15.8184 47.3112 13.8802 46.4902 12.0859 45.4238C10.2917 44.3574 8.64974 43.0879 7.16016 41.6152C5.67057 40.1426 4.40104 38.5007 3.35156 36.6895C2.30208 34.8783 1.48112 32.9401 0.888672 30.875C0.296224 28.8099 0 26.6432 0 24.375C0 22.1406 0.28776 19.9824 0.863281 17.9004C1.4388 15.8184 2.25977 13.8802 3.32617 12.0859C4.39258 10.2917 5.66211 8.64974 7.13477 7.16016C8.60742 5.67057 10.2493 4.40104 12.0605 3.35156C13.8717 2.30208 15.8099 1.48112 17.875 0.888672C19.9401 0.296224 22.1068 0 24.375 0ZM39 22.75H26V9.75H22.75V22.75H9.75V26H22.75V39H26V26H39V22.75Z" fill="url(#paint0_linear_160_214)"/>
<defs>
<linearGradient id="paint0_linear_160_214" x1="3.17814e-07" y1="24.375" x2="48.75" y2="24.375" gradientUnits="userSpaceOnUse">
<stop stop-color="#3ED5AA"/>
<stop offset="1" stop-color="#2FB791"/>
</linearGradient>
</defs>
</svg>
