<svg width="19" height="24" viewBox="0 0 19 24" fill="none" xmlns="http://www.w3.org/2000/svg">
<g clip-path="url(#clip0_82_1565)">
<path d="M3.16667 0C1.42005 0 0 1.34531 0 3V21C0 22.6547 1.42005 24 3.16667 24H15.8333C17.5799 24 19 22.6547 19 21V7.5H12.6667C11.7909 7.5 11.0833 6.82969 11.0833 6V0H3.16667ZM12.6667 0V6H19L12.6667 0ZM3.16667 3.75C3.16667 3.3375 3.52292 3 3.95833 3H7.125C7.56042 3 7.91667 3.3375 7.91667 3.75C7.91667 4.1625 7.56042 4.5 7.125 4.5H3.95833C3.52292 4.5 3.16667 4.1625 3.16667 3.75ZM3.16667 6.75C3.16667 6.3375 3.52292 6 3.95833 6H7.125C7.56042 6 7.91667 6.3375 7.91667 6.75C7.91667 7.1625 7.56042 7.5 7.125 7.5H3.95833C3.52292 7.5 3.16667 7.1625 3.16667 6.75ZM9.5 10.125C9.93542 10.125 10.2917 10.4625 10.2917 10.875V11.6859C10.7122 11.7422 11.118 11.8312 11.4841 11.925C11.9047 12.0328 12.157 12.4406 12.0432 12.8438C11.9294 13.2469 11.499 13.4812 11.0734 13.3734C10.5242 13.2328 9.9849 13.1297 9.48516 13.125C9.06953 13.1203 8.62422 13.2094 8.31745 13.3828C8.03542 13.5422 7.91667 13.725 7.91667 13.9828C7.91667 14.1562 7.98099 14.2875 8.27787 14.4562C8.61927 14.6484 9.09922 14.7891 9.72266 14.9672L9.7474 14.9719C10.3065 15.1312 10.9992 15.3281 11.5435 15.6562C12.1422 16.0125 12.6518 16.5797 12.6667 17.4469C12.6815 18.3516 12.1917 19.0078 11.5336 19.3969C11.1526 19.6219 10.7221 19.7531 10.2917 19.8234V20.625C10.2917 21.0375 9.93542 21.375 9.5 21.375C9.06458 21.375 8.70833 21.0375 8.70833 20.625V19.7906C8.15417 19.6922 7.63464 19.5234 7.17943 19.3734C7.07552 19.3406 6.97161 19.3078 6.87266 19.275C6.45703 19.1438 6.23438 18.7172 6.37292 18.3281C6.51146 17.9391 6.96172 17.7234 7.3724 17.8547C7.49609 17.8922 7.6099 17.9297 7.7237 17.9672C8.39662 18.1828 8.94089 18.3609 9.51979 18.375C9.97005 18.3891 10.4055 18.2953 10.6924 18.1266C10.9448 17.9766 11.0833 17.7844 11.0784 17.4703C11.0734 17.2547 10.9893 17.1047 10.6974 16.9266C10.3609 16.725 9.88099 16.5797 9.2625 16.4016L9.18333 16.3781C8.63906 16.2234 7.98099 16.0359 7.46146 15.7359C6.86771 15.3984 6.34323 14.85 6.33828 13.9875C6.33333 13.0781 6.87266 12.45 7.51589 12.0891C7.88698 11.8828 8.29766 11.7516 8.70833 11.6812V10.875C8.70833 10.4625 9.06458 10.125 9.5 10.125Z" fill="white"/>
</g>
<defs>
<clipPath id="clip0_82_1565">
<rect width="19" height="24" fill="white"/>
</clipPath>
</defs>
</svg>
