<svg width="26" height="26" viewBox="0 0 26 26" fill="none" xmlns="http://www.w3.org/2000/svg">
<path d="M0 6.5C0 5.63805 0.34241 4.8114 0.951903 4.2019C1.5614 3.59241 2.38805 3.25 3.25 3.25H22.75C23.612 3.25 24.4386 3.59241 25.0481 4.2019C25.6576 4.8114 26 5.63805 26 6.5V8.125H0V6.5ZM0 11.375V19.5C0 20.362 0.34241 21.1886 0.951903 21.7981C1.5614 22.4076 2.38805 22.75 3.25 22.75H22.75C23.612 22.75 24.4386 22.4076 25.0481 21.7981C25.6576 21.1886 26 20.362 26 19.5V11.375H0ZM4.875 14.625H6.5C6.93098 14.625 7.3443 14.7962 7.64905 15.101C7.95379 15.4057 8.125 15.819 8.125 16.25V17.875C8.125 18.306 7.95379 18.7193 7.64905 19.024C7.3443 19.3288 6.93098 19.5 6.5 19.5H4.875C4.44402 19.5 4.0307 19.3288 3.72595 19.024C3.4212 18.7193 3.25 18.306 3.25 17.875V16.25C3.25 15.819 3.4212 15.4057 3.72595 15.101C4.0307 14.7962 4.44402 14.625 4.875 14.625Z" fill="white"/>
</svg>
