<svg width="29" height="29" viewBox="0 0 29 29" fill="none" xmlns="http://www.w3.org/2000/svg">
<path d="M14.5002 15.7083C14.1323 15.704 13.7719 15.8125 13.4676 16.0192C13.1632 16.2259 12.9295 16.5209 12.7979 16.8645C12.6663 17.208 12.643 17.5837 12.7313 17.9408C12.8197 18.2979 13.0153 18.6195 13.2918 18.8621V20.5417C13.2918 20.8621 13.4191 21.1695 13.6457 21.3961C13.8723 21.6227 14.1797 21.75 14.5002 21.75C14.8206 21.75 15.128 21.6227 15.3546 21.3961C15.5812 21.1695 15.7085 20.8621 15.7085 20.5417V18.8621C15.9851 18.6195 16.1807 18.2979 16.269 17.9408C16.3573 17.5837 16.3341 17.208 16.2024 16.8645C16.0708 16.5209 15.8371 16.2259 15.5328 16.0192C15.2284 15.8125 14.868 15.704 14.5002 15.7083ZM20.5418 10.875V8.45833C20.5418 6.85598 19.9053 5.31926 18.7723 4.18623C17.6392 3.05319 16.1025 2.41666 14.5002 2.41666C12.8978 2.41666 11.3611 3.05319 10.2281 4.18623C9.09503 5.31926 8.4585 6.85598 8.4585 8.45833V10.875C7.49709 10.875 6.57505 11.2569 5.89523 11.9367C5.21541 12.6166 4.8335 13.5386 4.8335 14.5V22.9583C4.8335 23.9197 5.21541 24.8418 5.89523 25.5216C6.57505 26.2014 7.49709 26.5833 8.4585 26.5833H20.5418C21.5032 26.5833 22.4253 26.2014 23.1051 25.5216C23.7849 24.8418 24.1668 23.9197 24.1668 22.9583V14.5C24.1668 13.5386 23.7849 12.6166 23.1051 11.9367C22.4253 11.2569 21.5032 10.875 20.5418 10.875ZM10.8752 8.45833C10.8752 7.49692 11.2571 6.57489 11.9369 5.89507C12.6167 5.21525 13.5388 4.83333 14.5002 4.83333C15.4616 4.83333 16.3836 5.21525 17.0634 5.89507C17.7432 6.57489 18.1252 7.49692 18.1252 8.45833V10.875H10.8752V8.45833ZM21.7502 22.9583C21.7502 23.2788 21.6229 23.5861 21.3963 23.8128C21.1696 24.0394 20.8623 24.1667 20.5418 24.1667H8.4585C8.13803 24.1667 7.83068 24.0394 7.60408 23.8128C7.37747 23.5861 7.25016 23.2788 7.25016 22.9583V14.5C7.25016 14.1795 7.37747 13.8722 7.60408 13.6456C7.83068 13.419 8.13803 13.2917 8.4585 13.2917H20.5418C20.8623 13.2917 21.1696 13.419 21.3963 13.6456C21.6229 13.8722 21.7502 14.1795 21.7502 14.5V22.9583Z" fill="white"/>
</svg>
