<svg width="31" height="31" viewBox="0 0 31 31" fill="none" xmlns="http://www.w3.org/2000/svg">
<g clip-path="url(#clip0_86_399)">
<path d="M30.8645 15.0156C30.7526 14.6445 30.5533 14.3056 30.2832 14.0275C30.0771 13.8051 29.8126 13.6453 29.5198 13.5664C29.6632 13.7931 29.793 14.0546 29.8899 14.3336C29.9984 14.6184 30.0682 14.9226 30.0895 15.2384C30.1221 15.5113 30.1221 15.7871 30.0895 16.0599C30.029 15.8577 29.9361 15.6666 29.8143 15.4942C29.5744 15.1699 29.2538 14.9141 28.8843 14.7521C28.4751 14.5678 28.0122 14.5415 27.5847 14.6781C27.1573 14.8148 26.7955 15.1048 26.569 15.4922C26.4722 15.6511 26.3947 15.8236 26.3365 16.0076C24.0464 12.1946 19.9253 9.67006 15.2133 9.67006C14.9731 9.67006 14.7348 9.67587 14.4984 9.68943C13.0365 9.69216 11.582 9.89623 10.1758 10.2959C10.0557 9.45499 8.95135 7.74999 3.8751 7.74999L5.4251 12.6131C4.45043 13.401 3.63109 14.3636 3.00903 15.4516L9.75858e-05 15.5C9.75858e-05 15.5 -0.329277 23.25 1.9376 23.25H2.98385C3.69611 24.4573 4.64909 25.5053 5.78353 26.3287L5.8126 31H7.9051C10.4432 31 11.6251 31 11.6251 29.5469V28.7912C13.5794 29.1534 15.584 29.1481 17.5364 28.7757L17.4376 29.5469C17.4376 31 18.6388 31 21.1963 31H23.2501V26.3694C25.0669 25.1098 26.3743 23.243 26.9372 21.1052C27.0476 21.0529 27.158 21.0587 27.2704 21.0587C27.3828 21.0587 27.4932 21.0529 27.6037 21.0393C28.09 20.9502 28.5337 20.7603 28.9192 20.491C29.4403 20.1223 29.8391 19.6061 30.0643 19.0088C30.1185 18.8286 30.1592 18.6387 30.1863 18.4431L30.1883 18.4237C30.6165 17.9161 30.909 17.2806 31.0001 16.5811C31.0793 16.0467 31.0315 15.5011 30.8606 14.9885L30.8645 15.0156ZM6.80072 15.0156C7.18611 15.0156 7.55572 15.1687 7.82824 15.4412C8.10075 15.7137 8.25385 16.0834 8.25385 16.4687C8.25385 16.8541 8.10075 17.2237 7.82824 17.4963C7.55572 17.7688 7.18611 17.9219 6.80072 17.9219C6.41533 17.9219 6.04572 17.7688 5.77321 17.4963C5.50069 17.2237 5.3476 16.8541 5.3476 16.4687C5.3476 16.0834 5.50069 15.7137 5.77321 15.4412C6.04572 15.1687 6.41533 15.0156 6.80072 15.0156ZM11.3926 13.5625C11.1738 13.6327 10.9372 13.6231 10.7248 13.5355C10.5123 13.4479 10.3378 13.2879 10.232 13.0839C10.1991 12.9823 10.1881 12.8748 10.1997 12.7685C10.2113 12.6623 10.2454 12.5598 10.2996 12.4677C10.3538 12.3756 10.4269 12.296 10.5141 12.2342C10.6013 12.1725 10.7007 12.1299 10.8055 12.1094C12.0799 11.8038 13.3877 11.6606 14.698 11.6831L14.8937 11.6812C16.1957 11.6812 17.4589 11.8362 18.6698 12.1307C18.914 12.1772 19.1775 12.4833 19.1775 12.8514C19.1774 12.9297 19.165 13.0075 19.1407 13.082C19.0728 13.2076 18.9771 13.316 18.861 13.399C18.7448 13.4819 18.6111 13.5372 18.4703 13.5606H18.1738C17.0915 13.2999 15.9818 13.1698 14.8685 13.1731H14.696C13.5238 13.1731 12.3846 13.3145 11.2938 13.5819L11.3926 13.5625ZM28.2488 19.2394C27.9874 19.4295 27.688 19.561 27.3712 19.6249L27.1251 19.6269V18.7744C27.4448 19.0166 27.8497 19.1619 28.2876 19.1619H28.3283L28.2488 19.2394ZM28.4038 17.9219C28.2237 17.9471 28.0403 17.9141 27.8803 17.8276C27.7203 17.7412 27.5921 17.6058 27.5145 17.4414C27.4257 17.2722 27.3795 17.0839 27.3799 16.8928C27.3802 16.7017 27.4271 16.5136 27.5165 16.3447C27.6086 16.2172 27.7442 16.1279 27.8977 16.0936C28.0513 16.0594 28.212 16.0825 28.3496 16.1587C28.5252 16.2261 28.6762 16.3452 28.7827 16.5001C28.8892 16.6551 28.9463 16.8387 28.9463 17.0267V17.0287C28.9846 17.2973 28.984 17.5701 28.9444 17.8386C28.7645 17.8732 28.5812 17.8875 28.398 17.8812L28.4038 17.9219ZM15.5001 5.81249H13.5626V5.48312H14.047V3.37124H13.5626L14.6282 2.30562H15.0157V5.48312H15.5001V5.81249Z" fill="white"/>
<path d="M14.5312 1.45312C14.913 1.45325 15.291 1.52858 15.6437 1.67479C15.9964 1.82101 16.3168 2.03526 16.5867 2.30531C16.8566 2.57536 17.0706 2.89593 17.2166 3.24869C17.3626 3.60146 17.4376 3.97953 17.4375 4.36131C17.4374 4.74309 17.362 5.12111 17.2158 5.47378C17.0696 5.82645 16.8554 6.14687 16.5853 6.41674C16.3153 6.68661 15.9947 6.90065 15.6419 7.04663C15.2892 7.19262 14.9111 7.26769 14.5293 7.26756C13.7583 7.26731 13.0189 6.96076 12.4739 6.41537C11.9289 5.86998 11.6228 5.13042 11.6231 4.35938C11.6233 3.58833 11.9299 2.84897 12.4753 2.30394C13.0206 1.75892 13.7602 1.45287 14.5312 1.45312ZM14.5312 0C13.3751 0 12.2662 0.45929 11.4487 1.27683C10.6312 2.09437 10.1719 3.2032 10.1719 4.35938C10.1719 5.51555 10.6312 6.62438 11.4487 7.44192C12.2662 8.25946 13.3751 8.71875 14.5312 8.71875C15.6874 8.71875 16.7963 8.25946 17.6138 7.44192C18.4313 6.62438 18.8906 5.51555 18.8906 4.35938C18.8906 3.2032 18.4313 2.09437 17.6138 1.27683C16.7963 0.45929 15.6874 0 14.5312 0V0Z" fill="white"/>
</g>
<defs>
<clipPath id="clip0_86_399">
<rect width="31" height="31" fill="white"/>
</clipPath>
</defs>
</svg>
