<svg width="308" height="180" viewBox="0 0 308 180" fill="none" xmlns="http://www.w3.org/2000/svg">
<rect width="308" height="180" rx="20" fill="url(#paint0_linear_160_194)"/>
<path d="M31.81 82.75V80.878H35.554V94H33.484V82.75H31.81ZM39.507 91.21C40.659 90.214 41.565 89.398 42.225 88.762C42.897 88.114 43.455 87.442 43.899 86.746C44.343 86.05 44.565 85.354 44.565 84.658C44.565 83.938 44.391 83.374 44.043 82.966C43.707 82.558 43.173 82.354 42.441 82.354C41.733 82.354 41.181 82.582 40.785 83.038C40.401 83.482 40.197 84.082 40.173 84.838H38.193C38.229 83.47 38.637 82.426 39.417 81.706C40.209 80.974 41.211 80.608 42.423 80.608C43.731 80.608 44.751 80.968 45.483 81.688C46.227 82.408 46.599 83.368 46.599 84.568C46.599 85.432 46.377 86.266 45.933 87.07C45.501 87.862 44.979 88.576 44.367 89.212C43.767 89.836 42.999 90.562 42.063 91.39L41.253 92.11H46.959V93.82H38.211V92.326L39.507 91.21ZM48.7256 84.118C48.7976 83.002 49.2236 82.132 50.0036 81.508C50.7956 80.884 51.8036 80.572 53.0276 80.572C53.8676 80.572 54.5936 80.722 55.2056 81.022C55.8176 81.322 56.2796 81.73 56.5916 82.246C56.9036 82.762 57.0596 83.344 57.0596 83.992C57.0596 84.736 56.8616 85.372 56.4656 85.9C56.0696 86.428 55.5956 86.782 55.0436 86.962V87.034C55.7516 87.25 56.3036 87.646 56.6996 88.222C57.0956 88.786 57.2936 89.512 57.2936 90.4C57.2936 91.108 57.1316 91.738 56.8076 92.29C56.4836 92.842 56.0036 93.28 55.3676 93.604C54.7316 93.916 53.9696 94.072 53.0816 94.072C51.7856 94.072 50.7176 93.742 49.8776 93.082C49.0496 92.41 48.6056 91.45 48.5456 90.202H50.5256C50.5736 90.838 50.8196 91.36 51.2636 91.768C51.7076 92.164 52.3076 92.362 53.0636 92.362C53.7956 92.362 54.3596 92.164 54.7556 91.768C55.1516 91.36 55.3496 90.838 55.3496 90.202C55.3496 89.362 55.0796 88.768 54.5396 88.42C54.0116 88.06 53.1956 87.88 52.0916 87.88H51.6236V86.188H52.1096C53.0816 86.176 53.8196 86.014 54.3236 85.702C54.8396 85.39 55.0976 84.898 55.0976 84.226C55.0976 83.65 54.9116 83.194 54.5396 82.858C54.1676 82.51 53.6396 82.336 52.9556 82.336C52.2836 82.336 51.7616 82.51 51.3896 82.858C51.0176 83.194 50.7956 83.614 50.7236 84.118H48.7256ZM59.1971 91.264V89.716L65.2451 81.04H67.7291V89.482H69.4031V91.264H67.7291V94H65.7131V91.264H59.1971ZM65.8031 83.128L61.5551 89.482H65.8031V83.128ZM84.2392 82.642H78.2092V86.224C78.4612 85.888 78.8332 85.606 79.3252 85.378C79.8292 85.15 80.3632 85.036 80.9272 85.036C81.9352 85.036 82.7512 85.252 83.3752 85.684C84.0112 86.116 84.4612 86.662 84.7252 87.322C85.0012 87.982 85.1392 88.678 85.1392 89.41C85.1392 90.298 84.9652 91.09 84.6172 91.786C84.2812 92.47 83.7712 93.01 83.0872 93.406C82.4152 93.802 81.5872 94 80.6032 94C79.2952 94 78.2452 93.676 77.4532 93.028C76.6612 92.38 76.1872 91.522 76.0312 90.454H78.0292C78.1612 91.018 78.4552 91.468 78.9112 91.804C79.3672 92.128 79.9372 92.29 80.6212 92.29C81.4732 92.29 82.1092 92.032 82.5292 91.516C82.9612 91 83.1772 90.316 83.1772 89.464C83.1772 88.6 82.9612 87.94 82.5292 87.484C82.0972 87.016 81.4612 86.782 80.6212 86.782C80.0332 86.782 79.5352 86.932 79.1272 87.232C78.7312 87.52 78.4432 87.916 78.2632 88.42H76.3192V80.842H84.2392V82.642ZM94.3313 83.92C94.1993 83.368 93.9593 82.954 93.6113 82.678C93.2633 82.402 92.7773 82.264 92.1533 82.264C91.2053 82.264 90.4973 82.63 90.0293 83.362C89.5613 84.082 89.3153 85.282 89.2913 86.962C89.6033 86.434 90.0593 86.026 90.6593 85.738C91.2593 85.45 91.9073 85.306 92.6033 85.306C93.3953 85.306 94.0913 85.48 94.6913 85.828C95.3033 86.164 95.7773 86.656 96.1133 87.304C96.4613 87.952 96.6353 88.726 96.6353 89.626C96.6353 90.466 96.4673 91.216 96.1313 91.876C95.8073 92.536 95.3213 93.058 94.6733 93.442C94.0253 93.814 93.2453 94 92.3333 94C91.0973 94 90.1253 93.73 89.4173 93.19C88.7213 92.638 88.2293 91.864 87.9413 90.868C87.6653 89.872 87.5273 88.63 87.5273 87.142C87.5273 82.75 89.0753 80.554 92.1713 80.554C93.3713 80.554 94.3133 80.878 94.9973 81.526C95.6933 82.174 96.1013 82.972 96.2213 83.92H94.3313ZM92.1533 87.034C91.4213 87.034 90.7973 87.256 90.2813 87.7C89.7773 88.132 89.5253 88.762 89.5253 89.59C89.5253 90.418 89.7593 91.078 90.2273 91.57C90.7073 92.05 91.3733 92.29 92.2253 92.29C92.9813 92.29 93.5753 92.056 94.0073 91.588C94.4513 91.12 94.6733 90.496 94.6733 89.716C94.6733 88.9 94.4573 88.252 94.0253 87.772C93.6053 87.28 92.9813 87.034 92.1533 87.034ZM107.14 82.462L102.136 94H100.066L105.124 82.678H98.4641V80.932H107.14V82.462ZM111.11 87.142C109.862 86.518 109.238 85.534 109.238 84.19C109.238 83.542 109.4 82.948 109.724 82.408C110.048 81.868 110.534 81.442 111.182 81.13C111.83 80.806 112.622 80.644 113.558 80.644C114.482 80.644 115.268 80.806 115.916 81.13C116.576 81.442 117.068 81.868 117.392 82.408C117.716 82.948 117.878 83.542 117.878 84.19C117.878 84.862 117.704 85.456 117.356 85.972C117.02 86.476 116.57 86.866 116.006 87.142C116.69 87.394 117.23 87.808 117.626 88.384C118.022 88.948 118.22 89.614 118.22 90.382C118.22 91.162 118.022 91.852 117.626 92.452C117.23 93.052 116.678 93.514 115.97 93.838C115.262 94.162 114.458 94.324 113.558 94.324C112.658 94.324 111.854 94.162 111.146 93.838C110.45 93.514 109.904 93.052 109.508 92.452C109.112 91.852 108.914 91.162 108.914 90.382C108.914 89.602 109.112 88.93 109.508 88.366C109.904 87.802 110.438 87.394 111.11 87.142ZM115.916 84.442C115.916 83.77 115.706 83.254 115.286 82.894C114.866 82.534 114.29 82.354 113.558 82.354C112.838 82.354 112.268 82.534 111.848 82.894C111.428 83.254 111.218 83.776 111.218 84.46C111.218 85.06 111.434 85.552 111.866 85.936C112.31 86.308 112.874 86.494 113.558 86.494C114.242 86.494 114.806 86.302 115.25 85.918C115.694 85.534 115.916 85.042 115.916 84.442ZM113.558 88.042C112.766 88.042 112.118 88.24 111.614 88.636C111.122 89.02 110.876 89.578 110.876 90.31C110.876 90.994 111.116 91.552 111.596 91.984C112.076 92.404 112.73 92.614 113.558 92.614C114.374 92.614 115.016 92.398 115.484 91.966C115.964 91.534 116.204 90.982 116.204 90.31C116.204 89.59 115.958 89.032 115.466 88.636C114.986 88.24 114.35 88.042 113.558 88.042ZM127.265 87.142C126.017 86.518 125.393 85.534 125.393 84.19C125.393 83.542 125.555 82.948 125.879 82.408C126.203 81.868 126.689 81.442 127.337 81.13C127.985 80.806 128.777 80.644 129.713 80.644C130.637 80.644 131.423 80.806 132.071 81.13C132.731 81.442 133.223 81.868 133.547 82.408C133.871 82.948 134.033 83.542 134.033 84.19C134.033 84.862 133.859 85.456 133.511 85.972C133.175 86.476 132.725 86.866 132.161 87.142C132.845 87.394 133.385 87.808 133.781 88.384C134.177 88.948 134.375 89.614 134.375 90.382C134.375 91.162 134.177 91.852 133.781 92.452C133.385 93.052 132.833 93.514 132.125 93.838C131.417 94.162 130.613 94.324 129.713 94.324C128.813 94.324 128.009 94.162 127.301 93.838C126.605 93.514 126.059 93.052 125.663 92.452C125.267 91.852 125.069 91.162 125.069 90.382C125.069 89.602 125.267 88.93 125.663 88.366C126.059 87.802 126.593 87.394 127.265 87.142ZM132.071 84.442C132.071 83.77 131.861 83.254 131.441 82.894C131.021 82.534 130.445 82.354 129.713 82.354C128.993 82.354 128.423 82.534 128.003 82.894C127.583 83.254 127.373 83.776 127.373 84.46C127.373 85.06 127.589 85.552 128.021 85.936C128.465 86.308 129.029 86.494 129.713 86.494C130.397 86.494 130.961 86.302 131.405 85.918C131.849 85.534 132.071 85.042 132.071 84.442ZM129.713 88.042C128.921 88.042 128.273 88.24 127.769 88.636C127.277 89.02 127.031 89.578 127.031 90.31C127.031 90.994 127.271 91.552 127.751 91.984C128.231 92.404 128.885 92.614 129.713 92.614C130.529 92.614 131.171 92.398 131.639 91.966C132.119 91.534 132.359 90.982 132.359 90.31C132.359 89.59 132.113 89.032 131.621 88.636C131.141 88.24 130.505 88.042 129.713 88.042ZM139.085 90.436C139.205 91.036 139.463 91.492 139.859 91.804C140.255 92.116 140.789 92.272 141.461 92.272C142.313 92.272 142.937 91.936 143.333 91.264C143.729 90.592 143.927 89.446 143.927 87.826C143.639 88.234 143.231 88.552 142.703 88.78C142.187 88.996 141.623 89.104 141.011 89.104C140.231 89.104 139.523 88.948 138.887 88.636C138.251 88.312 137.747 87.838 137.375 87.214C137.015 86.578 136.835 85.81 136.835 84.91C136.835 83.59 137.219 82.54 137.987 81.76C138.767 80.968 139.835 80.572 141.191 80.572C142.823 80.572 143.981 81.118 144.665 82.21C145.361 83.29 145.709 84.952 145.709 87.196C145.709 88.744 145.577 90.01 145.313 90.994C145.061 91.978 144.617 92.722 143.981 93.226C143.345 93.73 142.463 93.982 141.335 93.982C140.051 93.982 139.061 93.646 138.365 92.974C137.669 92.302 137.279 91.456 137.195 90.436H139.085ZM141.371 87.376C142.091 87.376 142.655 87.154 143.063 86.71C143.483 86.254 143.693 85.654 143.693 84.91C143.693 84.082 143.471 83.44 143.027 82.984C142.595 82.516 142.001 82.282 141.245 82.282C140.489 82.282 139.889 82.522 139.445 83.002C139.013 83.47 138.797 84.088 138.797 84.856C138.797 85.588 139.007 86.194 139.427 86.674C139.859 87.142 140.507 87.376 141.371 87.376ZM147.685 82.75V80.878H151.429V94H149.359V82.75H147.685ZM154.248 87.268C154.248 85.192 154.596 83.572 155.292 82.408C156 81.232 157.212 80.644 158.928 80.644C160.644 80.644 161.85 81.232 162.546 82.408C163.254 83.572 163.608 85.192 163.608 87.268C163.608 89.368 163.254 91.012 162.546 92.2C161.85 93.376 160.644 93.964 158.928 93.964C157.212 93.964 156 93.376 155.292 92.2C154.596 91.012 154.248 89.368 154.248 87.268ZM161.592 87.268C161.592 86.296 161.526 85.474 161.394 84.802C161.274 84.13 161.022 83.584 160.638 83.164C160.254 82.732 159.684 82.516 158.928 82.516C158.172 82.516 157.602 82.732 157.218 83.164C156.834 83.584 156.576 84.13 156.444 84.802C156.324 85.474 156.264 86.296 156.264 87.268C156.264 88.276 156.324 89.122 156.444 89.806C156.564 90.49 156.816 91.042 157.2 91.462C157.596 91.882 158.172 92.092 158.928 92.092C159.684 92.092 160.254 91.882 160.638 91.462C161.034 91.042 161.292 90.49 161.412 89.806C161.532 89.122 161.592 88.276 161.592 87.268ZM170.185 82.75V80.878H173.929V94H171.859V82.75H170.185ZM176.478 82.75V80.878H180.222V94H178.152V82.75H176.478ZM182.771 82.75V80.878H186.515V94H184.445V82.75H182.771ZM190.468 91.21C191.62 90.214 192.526 89.398 193.186 88.762C193.858 88.114 194.416 87.442 194.86 86.746C195.304 86.05 195.526 85.354 195.526 84.658C195.526 83.938 195.352 83.374 195.004 82.966C194.668 82.558 194.134 82.354 193.402 82.354C192.694 82.354 192.142 82.582 191.746 83.038C191.362 83.482 191.158 84.082 191.134 84.838H189.154C189.19 83.47 189.598 82.426 190.378 81.706C191.17 80.974 192.172 80.608 193.384 80.608C194.692 80.608 195.712 80.968 196.444 81.688C197.188 82.408 197.56 83.368 197.56 84.568C197.56 85.432 197.338 86.266 196.894 87.07C196.462 87.862 195.94 88.576 195.328 89.212C194.728 89.836 193.96 90.562 193.024 91.39L192.214 92.11H197.92V93.82H189.172V92.326L190.468 91.21Z" fill="white"/>
<path d="M33.268 136.896H36.088V138H31.9V129.66H33.268V136.896ZM37.928 130.512C37.68 130.512 37.472 130.428 37.304 130.26C37.136 130.092 37.052 129.884 37.052 129.636C37.052 129.388 37.136 129.18 37.304 129.012C37.472 128.844 37.68 128.76 37.928 128.76C38.168 128.76 38.372 128.844 38.54 129.012C38.708 129.18 38.792 129.388 38.792 129.636C38.792 129.884 38.708 130.092 38.54 130.26C38.372 130.428 38.168 130.512 37.928 130.512ZM38.6 131.388V138H37.232V131.388H38.6ZM42.9521 136.776L44.8241 131.388H46.2761L43.7561 138H42.1241L39.6161 131.388H41.0801L42.9521 136.776ZM48.0062 130.512C47.7582 130.512 47.5502 130.428 47.3822 130.26C47.2142 130.092 47.1302 129.884 47.1302 129.636C47.1302 129.388 47.2142 129.18 47.3822 129.012C47.5502 128.844 47.7582 128.76 48.0062 128.76C48.2462 128.76 48.4502 128.844 48.6182 129.012C48.7862 129.18 48.8702 129.388 48.8702 129.636C48.8702 129.884 48.7862 130.092 48.6182 130.26C48.4502 130.428 48.2462 130.512 48.0062 130.512ZM48.6782 131.388V138H47.3102V131.388H48.6782ZM50.0182 134.664C50.0182 134 50.1542 133.412 50.4262 132.9C50.7062 132.388 51.0822 131.992 51.5542 131.712C52.0342 131.424 52.5622 131.28 53.1382 131.28C53.6582 131.28 54.1102 131.384 54.4942 131.592C54.8862 131.792 55.1982 132.044 55.4302 132.348V131.388H56.8102V138H55.4302V137.016C55.1982 137.328 54.8822 137.588 54.4822 137.796C54.0822 138.004 53.6262 138.108 53.1142 138.108C52.5462 138.108 52.0262 137.964 51.5542 137.676C51.0822 137.38 50.7062 136.972 50.4262 136.452C50.1542 135.924 50.0182 135.328 50.0182 134.664ZM55.4302 134.688C55.4302 134.232 55.3342 133.836 55.1422 133.5C54.9582 133.164 54.7142 132.908 54.4102 132.732C54.1062 132.556 53.7782 132.468 53.4262 132.468C53.0742 132.468 52.7462 132.556 52.4422 132.732C52.1382 132.9 51.8902 133.152 51.6982 133.488C51.5142 133.816 51.4222 134.208 51.4222 134.664C51.4222 135.12 51.5142 135.52 51.6982 135.864C51.8902 136.208 52.1382 136.472 52.4422 136.656C52.7542 136.832 53.0822 136.92 53.4262 136.92C53.7782 136.92 54.1062 136.832 54.4102 136.656C54.7142 136.48 54.9582 136.224 55.1422 135.888C55.3342 135.544 55.4302 135.144 55.4302 134.688ZM63.0922 129.66V138H61.7242V129.66H63.0922ZM66.2563 132.36C66.4883 132.056 66.8043 131.8 67.2043 131.592C67.6043 131.384 68.0563 131.28 68.5603 131.28C69.1363 131.28 69.6603 131.424 70.1323 131.712C70.6123 131.992 70.9883 132.388 71.2603 132.9C71.5323 133.412 71.6683 134 71.6683 134.664C71.6683 135.328 71.5323 135.924 71.2603 136.452C70.9883 136.972 70.6123 137.38 70.1323 137.676C69.6603 137.964 69.1363 138.108 68.5603 138.108C68.0563 138.108 67.6083 138.008 67.2163 137.808C66.8243 137.6 66.5043 137.344 66.2563 137.04V141.144H64.8883V131.388H66.2563V132.36ZM70.2763 134.664C70.2763 134.208 70.1803 133.816 69.9883 133.488C69.8043 133.152 69.5563 132.9 69.2443 132.732C68.9403 132.556 68.6123 132.468 68.2603 132.468C67.9163 132.468 67.5883 132.556 67.2763 132.732C66.9723 132.908 66.7243 133.164 66.5323 133.5C66.3483 133.836 66.2563 134.232 66.2563 134.688C66.2563 135.144 66.3483 135.544 66.5323 135.888C66.7243 136.224 66.9723 136.48 67.2763 136.656C67.5883 136.832 67.9163 136.92 68.2603 136.92C68.6123 136.92 68.9403 136.832 69.2443 136.656C69.5563 136.472 69.8043 136.208 69.9883 135.864C70.1803 135.52 70.2763 135.12 70.2763 134.664ZM75.8891 138.108C75.2651 138.108 74.7011 137.968 74.1971 137.688C73.6931 137.4 73.2971 137 73.0091 136.488C72.7211 135.968 72.5771 135.368 72.5771 134.688C72.5771 134.016 72.7251 133.42 73.0211 132.9C73.3171 132.38 73.7211 131.98 74.2331 131.7C74.7451 131.42 75.3171 131.28 75.9491 131.28C76.5811 131.28 77.1531 131.42 77.6651 131.7C78.1771 131.98 78.5811 132.38 78.8771 132.9C79.1731 133.42 79.3211 134.016 79.3211 134.688C79.3211 135.36 79.1691 135.956 78.8651 136.476C78.5611 136.996 78.1451 137.4 77.6171 137.688C77.0971 137.968 76.5211 138.108 75.8891 138.108ZM75.8891 136.92C76.2411 136.92 76.5691 136.836 76.8731 136.668C77.1851 136.5 77.4371 136.248 77.6291 135.912C77.8211 135.576 77.9171 135.168 77.9171 134.688C77.9171 134.208 77.8251 133.804 77.6411 133.476C77.4571 133.14 77.2131 132.888 76.9091 132.72C76.6051 132.552 76.2771 132.468 75.9251 132.468C75.5731 132.468 75.2451 132.552 74.9411 132.72C74.6451 132.888 74.4091 133.14 74.2331 133.476C74.0571 133.804 73.9691 134.208 73.9691 134.688C73.9691 135.4 74.1491 135.952 74.5091 136.344C74.8771 136.728 75.3371 136.92 75.8891 136.92ZM77.1851 129.504L74.5331 130.812V129.804L77.1851 128.34V129.504ZM82.0414 129.12V138H80.6734V129.12H82.0414ZM84.5335 130.512C84.2855 130.512 84.0775 130.428 83.9095 130.26C83.7415 130.092 83.6575 129.884 83.6575 129.636C83.6575 129.388 83.7415 129.18 83.9095 129.012C84.0775 128.844 84.2855 128.76 84.5335 128.76C84.7735 128.76 84.9775 128.844 85.1455 129.012C85.3135 129.18 85.3975 129.388 85.3975 129.636C85.3975 129.884 85.3135 130.092 85.1455 130.26C84.9775 130.428 84.7735 130.512 84.5335 130.512ZM85.2055 131.388V138H83.8375V131.388H85.2055ZM88.5976 132.504V136.164C88.5976 136.412 88.6536 136.592 88.7656 136.704C88.8856 136.808 89.0856 136.86 89.3656 136.86H90.2056V138H89.1256C88.5096 138 88.0376 137.856 87.7096 137.568C87.3816 137.28 87.2176 136.812 87.2176 136.164V132.504H86.4376V131.388H87.2176V129.744H88.5976V131.388H90.2056V132.504H88.5976ZM94.3344 138.108C93.7104 138.108 93.1464 137.968 92.6424 137.688C92.1384 137.4 91.7424 137 91.4544 136.488C91.1664 135.968 91.0224 135.368 91.0224 134.688C91.0224 134.016 91.1704 133.42 91.4664 132.9C91.7624 132.38 92.1664 131.98 92.6784 131.7C93.1904 131.42 93.7624 131.28 94.3944 131.28C95.0264 131.28 95.5984 131.42 96.1104 131.7C96.6224 131.98 97.0264 132.38 97.3224 132.9C97.6184 133.42 97.7664 134.016 97.7664 134.688C97.7664 135.36 97.6144 135.956 97.3104 136.476C97.0064 136.996 96.5904 137.4 96.0624 137.688C95.5424 137.968 94.9664 138.108 94.3344 138.108ZM94.3344 136.92C94.6864 136.92 95.0144 136.836 95.3184 136.668C95.6304 136.5 95.8824 136.248 96.0744 135.912C96.2664 135.576 96.3624 135.168 96.3624 134.688C96.3624 134.208 96.2704 133.804 96.0864 133.476C95.9024 133.14 95.6584 132.888 95.3544 132.72C95.0504 132.552 94.7224 132.468 94.3704 132.468C94.0184 132.468 93.6904 132.552 93.3864 132.72C93.0904 132.888 92.8544 133.14 92.6784 133.476C92.5024 133.804 92.4144 134.208 92.4144 134.688C92.4144 135.4 92.5944 135.952 92.9544 136.344C93.3224 136.728 93.7824 136.92 94.3344 136.92ZM106.568 138L104.648 134.664H103.604V138H102.236V129.66H105.116C105.756 129.66 106.296 129.772 106.736 129.996C107.184 130.22 107.516 130.52 107.732 130.896C107.956 131.272 108.068 131.692 108.068 132.156C108.068 132.7 107.908 133.196 107.588 133.644C107.276 134.084 106.792 134.384 106.136 134.544L108.2 138H106.568ZM103.604 133.572H105.116C105.628 133.572 106.012 133.444 106.268 133.188C106.532 132.932 106.664 132.588 106.664 132.156C106.664 131.724 106.536 131.388 106.28 131.148C106.024 130.9 105.636 130.776 105.116 130.776H103.604V133.572ZM112.686 138.108C112.062 138.108 111.498 137.968 110.994 137.688C110.49 137.4 110.094 137 109.806 136.488C109.518 135.968 109.374 135.368 109.374 134.688C109.374 134.016 109.522 133.42 109.818 132.9C110.114 132.38 110.518 131.98 111.03 131.7C111.542 131.42 112.114 131.28 112.746 131.28C113.378 131.28 113.95 131.42 114.462 131.7C114.974 131.98 115.378 132.38 115.674 132.9C115.97 133.42 116.118 134.016 116.118 134.688C116.118 135.36 115.966 135.956 115.662 136.476C115.358 136.996 114.942 137.4 114.414 137.688C113.894 137.968 113.318 138.108 112.686 138.108ZM112.686 136.92C113.038 136.92 113.366 136.836 113.67 136.668C113.982 136.5 114.234 136.248 114.426 135.912C114.618 135.576 114.714 135.168 114.714 134.688C114.714 134.208 114.622 133.804 114.438 133.476C114.254 133.14 114.01 132.888 113.706 132.72C113.402 132.552 113.074 132.468 112.722 132.468C112.37 132.468 112.042 132.552 111.738 132.72C111.442 132.888 111.206 133.14 111.03 133.476C110.854 133.804 110.766 134.208 110.766 134.688C110.766 135.4 110.946 135.952 111.306 136.344C111.674 136.728 112.134 136.92 112.686 136.92ZM119.87 138.108C119.35 138.108 118.882 138.016 118.466 137.832C118.058 137.64 117.734 137.384 117.494 137.064C117.254 136.736 117.126 136.372 117.11 135.972H118.526C118.55 136.252 118.682 136.488 118.922 136.68C119.17 136.864 119.478 136.956 119.846 136.956C120.23 136.956 120.526 136.884 120.734 136.74C120.95 136.588 121.058 136.396 121.058 136.164C121.058 135.916 120.938 135.732 120.698 135.612C120.466 135.492 120.094 135.36 119.582 135.216C119.086 135.08 118.682 134.948 118.37 134.82C118.058 134.692 117.786 134.496 117.554 134.232C117.33 133.968 117.218 133.62 117.218 133.188C117.218 132.836 117.322 132.516 117.53 132.228C117.738 131.932 118.034 131.7 118.418 131.532C118.81 131.364 119.258 131.28 119.762 131.28C120.514 131.28 121.118 131.472 121.574 131.856C122.038 132.232 122.286 132.748 122.318 133.404H120.95C120.926 133.108 120.806 132.872 120.59 132.696C120.374 132.52 120.082 132.432 119.714 132.432C119.354 132.432 119.078 132.5 118.886 132.636C118.694 132.772 118.598 132.952 118.598 133.176C118.598 133.352 118.662 133.5 118.79 133.62C118.918 133.74 119.074 133.836 119.258 133.908C119.442 133.972 119.714 134.056 120.074 134.16C120.554 134.288 120.946 134.42 121.25 134.556C121.562 134.684 121.83 134.876 122.054 135.132C122.278 135.388 122.394 135.728 122.402 136.152C122.402 136.528 122.298 136.864 122.09 137.16C121.882 137.456 121.586 137.688 121.202 137.856C120.826 138.024 120.382 138.108 119.87 138.108ZM123.424 134.664C123.424 134 123.56 133.412 123.832 132.9C124.112 132.388 124.488 131.992 124.96 131.712C125.44 131.424 125.968 131.28 126.544 131.28C127.064 131.28 127.516 131.384 127.9 131.592C128.292 131.792 128.604 132.044 128.836 132.348V131.388H130.216V138H128.836V137.016C128.604 137.328 128.288 137.588 127.888 137.796C127.488 138.004 127.032 138.108 126.52 138.108C125.952 138.108 125.432 137.964 124.96 137.676C124.488 137.38 124.112 136.972 123.832 136.452C123.56 135.924 123.424 135.328 123.424 134.664ZM128.836 134.688C128.836 134.232 128.74 133.836 128.548 133.5C128.364 133.164 128.12 132.908 127.816 132.732C127.512 132.556 127.184 132.468 126.832 132.468C126.48 132.468 126.152 132.556 125.848 132.732C125.544 132.9 125.296 133.152 125.104 133.488C124.92 133.816 124.828 134.208 124.828 134.664C124.828 135.12 124.92 135.52 125.104 135.864C125.296 136.208 125.544 136.472 125.848 136.656C126.16 136.832 126.488 136.92 126.832 136.92C127.184 136.92 127.512 136.832 127.816 136.656C128.12 136.48 128.364 136.224 128.548 135.888C128.74 135.544 128.836 135.144 128.836 134.688Z" fill="white"/>
<rect x="31" y="25" width="35" height="25" rx="6" fill="#D9D9D9"/>
<circle cx="254" cy="134" r="11" fill="#EA001B" fill-opacity="0.87"/>
<circle cx="268" cy="134" r="11" fill="#F79E1C" fill-opacity="0.79"/>
<path d="M89.0432 38.0651C89.0304 41.6021 87.6655 44.8972 85.2006 47.3442L86.6095 48.7634C89.4537 45.9406 91.0285 42.1433 91.0432 38.0723C91.057 34.0014 89.5108 30.1927 86.6871 27.3495L85.2679 28.7584C87.715 31.2232 89.0561 34.5281 89.0432 38.0651ZM80.7158 43.706C83.8009 40.6431 83.8197 35.4492 80.7569 32.364L79.3377 33.7729C81.6364 36.0882 81.6222 39.9882 79.3069 42.2868L80.7158 43.706Z" fill="white"/>
<path d="M83.7198 46.4829C88.3103 41.9275 88.3384 34.1985 83.7809 29.61L82.3618 31.0188C86.155 34.8396 86.1317 41.2706 82.3109 45.0638L83.7198 46.4829Z" fill="white"/>
<path d="M75.0436 38.0144C75.0396 39.1189 75.9317 40.0176 77.0363 40.0216C78.1409 40.0256 79.0395 39.1334 79.0435 38.0289C79.0475 36.9243 78.1554 36.0256 77.0508 36.0216C75.9462 36.0176 75.0476 36.9098 75.0436 38.0144Z" fill="white"/>
<defs>
<linearGradient id="paint0_linear_160_194" x1="2.00793e-06" y1="90" x2="308" y2="90" gradientUnits="userSpaceOnUse">
<stop stop-color="#3ED5AA"/>
<stop offset="1" stop-color="#2FB791"/>
</linearGradient>
</defs>
</svg>
