<svg width="308" height="180" viewBox="0 0 308 180" fill="none" xmlns="http://www.w3.org/2000/svg">
<rect width="308" height="180" rx="20" fill="url(#paint0_linear_160_216)"/>
<rect x="20" y="81" width="59" height="40" rx="20" fill="#898989"/>
<circle cx="59" cy="101" r="8" fill="#BEBEBE"/>
<rect x="20" y="81" width="36" height="40" rx="18" fill="#504F4F"/>
<rect y="27" width="308" height="25" fill="#515151"/>
<path d="M26.74 152.05L24.13 159H22.81L20.19 152.05H21.41L23.47 157.83L25.54 152.05H26.74ZM27.3134 156.22C27.3134 155.667 27.4267 155.177 27.6534 154.75C27.8867 154.323 28.2 153.993 28.5934 153.76C28.9934 153.52 29.4334 153.4 29.9134 153.4C30.3467 153.4 30.7234 153.487 31.0434 153.66C31.37 153.827 31.63 154.037 31.8234 154.29V153.49H32.9734V159H31.8234V158.18C31.63 158.44 31.3667 158.657 31.0334 158.83C30.7 159.003 30.32 159.09 29.8934 159.09C29.42 159.09 28.9867 158.97 28.5934 158.73C28.2 158.483 27.8867 158.143 27.6534 157.71C27.4267 157.27 27.3134 156.773 27.3134 156.22ZM31.8234 156.24C31.8234 155.86 31.7434 155.53 31.5834 155.25C31.43 154.97 31.2267 154.757 30.9734 154.61C30.72 154.463 30.4467 154.39 30.1534 154.39C29.86 154.39 29.5867 154.463 29.3334 154.61C29.08 154.75 28.8734 154.96 28.7134 155.24C28.56 155.513 28.4834 155.84 28.4834 156.22C28.4834 156.6 28.56 156.933 28.7134 157.22C28.8734 157.507 29.08 157.727 29.3334 157.88C29.5934 158.027 29.8667 158.1 30.1534 158.1C30.4467 158.1 30.72 158.027 30.9734 157.88C31.2267 157.733 31.43 157.52 31.5834 157.24C31.7434 156.953 31.8234 156.62 31.8234 156.24ZM35.6107 151.6V159H34.4707V151.6H35.6107ZM37.6874 152.76C37.4808 152.76 37.3074 152.69 37.1674 152.55C37.0274 152.41 36.9574 152.237 36.9574 152.03C36.9574 151.823 37.0274 151.65 37.1674 151.51C37.3074 151.37 37.4808 151.3 37.6874 151.3C37.8874 151.3 38.0574 151.37 38.1974 151.51C38.3374 151.65 38.4074 151.823 38.4074 152.03C38.4074 152.237 38.3374 152.41 38.1974 152.55C38.0574 152.69 37.8874 152.76 37.6874 152.76ZM38.2474 153.49V159H37.1074V153.49H38.2474ZM39.3641 156.22C39.3641 155.667 39.4775 155.177 39.7041 154.75C39.9375 154.323 40.2508 153.993 40.6441 153.76C41.0441 153.52 41.4875 153.4 41.9741 153.4C42.3341 153.4 42.6875 153.48 43.0341 153.64C43.3875 153.793 43.6675 154 43.8741 154.26V151.6H45.0241V159H43.8741V158.17C43.6875 158.437 43.4275 158.657 43.0941 158.83C42.7675 159.003 42.3908 159.09 41.9641 159.09C41.4841 159.09 41.0441 158.97 40.6441 158.73C40.2508 158.483 39.9375 158.143 39.7041 157.71C39.4775 157.27 39.3641 156.773 39.3641 156.22ZM43.8741 156.24C43.8741 155.86 43.7941 155.53 43.6341 155.25C43.4808 154.97 43.2775 154.757 43.0241 154.61C42.7708 154.463 42.4975 154.39 42.2041 154.39C41.9108 154.39 41.6375 154.463 41.3841 154.61C41.1308 154.75 40.9241 154.96 40.7641 155.24C40.6108 155.513 40.5341 155.84 40.5341 156.22C40.5341 156.6 40.6108 156.933 40.7641 157.22C40.9241 157.507 41.1308 157.727 41.3841 157.88C41.6441 158.027 41.9175 158.1 42.2041 158.1C42.4975 158.1 42.7708 158.027 43.0241 157.88C43.2775 157.733 43.4808 157.52 43.6341 157.24C43.7941 156.953 43.8741 156.62 43.8741 156.24ZM46.1415 156.22C46.1415 155.667 46.2548 155.177 46.4815 154.75C46.7148 154.323 47.0282 153.993 47.4215 153.76C47.8215 153.52 48.2615 153.4 48.7415 153.4C49.1748 153.4 49.5515 153.487 49.8715 153.66C50.1982 153.827 50.4582 154.037 50.6515 154.29V153.49H51.8015V159H50.6515V158.18C50.4582 158.44 50.1948 158.657 49.8615 158.83C49.5282 159.003 49.1482 159.09 48.7215 159.09C48.2482 159.09 47.8148 158.97 47.4215 158.73C47.0282 158.483 46.7148 158.143 46.4815 157.71C46.2548 157.27 46.1415 156.773 46.1415 156.22ZM50.6515 156.24C50.6515 155.86 50.5715 155.53 50.4115 155.25C50.2582 154.97 50.0548 154.757 49.8015 154.61C49.5482 154.463 49.2748 154.39 48.9815 154.39C48.6882 154.39 48.4148 154.463 48.1615 154.61C47.9082 154.75 47.7015 154.96 47.5415 155.24C47.3882 155.513 47.3115 155.84 47.3115 156.22C47.3115 156.6 47.3882 156.933 47.5415 157.22C47.7015 157.507 47.9082 157.727 48.1615 157.88C48.4215 158.027 48.6948 158.1 48.9815 158.1C49.2748 158.1 49.5482 158.027 49.8015 157.88C50.0548 157.733 50.2582 157.52 50.4115 157.24C50.5715 156.953 50.6515 156.62 50.6515 156.24ZM52.9188 156.22C52.9188 155.667 53.0322 155.177 53.2588 154.75C53.4922 154.323 53.8055 153.993 54.1988 153.76C54.5988 153.52 55.0422 153.4 55.5288 153.4C55.8888 153.4 56.2422 153.48 56.5888 153.64C56.9422 153.793 57.2222 154 57.4288 154.26V151.6H58.5788V159H57.4288V158.17C57.2422 158.437 56.9822 158.657 56.6488 158.83C56.3222 159.003 55.9455 159.09 55.5188 159.09C55.0388 159.09 54.5988 158.97 54.1988 158.73C53.8055 158.483 53.4922 158.143 53.2588 157.71C53.0322 157.27 52.9188 156.773 52.9188 156.22ZM57.4288 156.24C57.4288 155.86 57.3488 155.53 57.1888 155.25C57.0355 154.97 56.8322 154.757 56.5788 154.61C56.3255 154.463 56.0522 154.39 55.7588 154.39C55.4655 154.39 55.1922 154.463 54.9388 154.61C54.6855 154.75 54.4788 154.96 54.3188 155.24C54.1655 155.513 54.0888 155.84 54.0888 156.22C54.0888 156.6 54.1655 156.933 54.3188 157.22C54.4788 157.507 54.6855 157.727 54.9388 157.88C55.1988 158.027 55.4722 158.1 55.7588 158.1C56.0522 158.1 56.3255 158.027 56.5788 157.88C56.8322 157.733 57.0355 157.52 57.1888 157.24C57.3488 156.953 57.4288 156.62 57.4288 156.24ZM65.1262 156.11C65.1262 156.317 65.1128 156.503 65.0862 156.67H60.8762C60.9095 157.11 61.0728 157.463 61.3662 157.73C61.6595 157.997 62.0195 158.13 62.4462 158.13C63.0595 158.13 63.4928 157.873 63.7462 157.36H64.9762C64.8095 157.867 64.5062 158.283 64.0662 158.61C63.6328 158.93 63.0928 159.09 62.4462 159.09C61.9195 159.09 61.4462 158.973 61.0262 158.74C60.6128 158.5 60.2862 158.167 60.0462 157.74C59.8128 157.307 59.6962 156.807 59.6962 156.24C59.6962 155.673 59.8095 155.177 60.0362 154.75C60.2695 154.317 60.5928 153.983 61.0062 153.75C61.4262 153.517 61.9062 153.4 62.4462 153.4C62.9662 153.4 63.4295 153.513 63.8362 153.74C64.2428 153.967 64.5595 154.287 64.7862 154.7C65.0128 155.107 65.1262 155.577 65.1262 156.11ZM63.9362 155.75C63.9295 155.33 63.7795 154.993 63.4862 154.74C63.1928 154.487 62.8295 154.36 62.3962 154.36C62.0028 154.36 61.6662 154.487 61.3862 154.74C61.1062 154.987 60.9395 155.323 60.8862 155.75H63.9362ZM71.9234 157.45C72.5634 156.897 73.0667 156.443 73.4334 156.09C73.8067 155.73 74.1167 155.357 74.3634 154.97C74.61 154.583 74.7334 154.197 74.7334 153.81C74.7334 153.41 74.6367 153.097 74.4434 152.87C74.2567 152.643 73.96 152.53 73.5534 152.53C73.16 152.53 72.8534 152.657 72.6334 152.91C72.42 153.157 72.3067 153.49 72.2934 153.91H71.1934C71.2134 153.15 71.44 152.57 71.8734 152.17C72.3134 151.763 72.87 151.56 73.5434 151.56C74.27 151.56 74.8367 151.76 75.2434 152.16C75.6567 152.56 75.8634 153.093 75.8634 153.76C75.8634 154.24 75.74 154.703 75.4934 155.15C75.2534 155.59 74.9634 155.987 74.6234 156.34C74.29 156.687 73.8634 157.09 73.3434 157.55L72.8934 157.95H76.0634V158.9H71.2034V158.07L71.9234 157.45ZM76.9248 157.48V156.62L80.2848 151.8H81.6648V156.49H82.5948V157.48H81.6648V159H80.5448V157.48H76.9248ZM80.5948 152.96L78.2348 156.49H80.5948V152.96ZM87.3895 149.56L84.6695 160.75H83.5495L86.2595 149.56H87.3895ZM88.6762 155.26C88.6762 154.107 88.8695 153.207 89.2562 152.56C89.6495 151.907 90.3228 151.58 91.2762 151.58C92.2295 151.58 92.8995 151.907 93.2862 152.56C93.6795 153.207 93.8762 154.107 93.8762 155.26C93.8762 156.427 93.6795 157.34 93.2862 158C92.8995 158.653 92.2295 158.98 91.2762 158.98C90.3228 158.98 89.6495 158.653 89.2562 158C88.8695 157.34 88.6762 156.427 88.6762 155.26ZM92.7562 155.26C92.7562 154.72 92.7195 154.263 92.6462 153.89C92.5795 153.517 92.4395 153.213 92.2262 152.98C92.0128 152.74 91.6962 152.62 91.2762 152.62C90.8562 152.62 90.5395 152.74 90.3262 152.98C90.1128 153.213 89.9695 153.517 89.8962 153.89C89.8295 154.263 89.7962 154.72 89.7962 155.26C89.7962 155.82 89.8295 156.29 89.8962 156.67C89.9628 157.05 90.1028 157.357 90.3162 157.59C90.5362 157.823 90.8562 157.94 91.2762 157.94C91.6962 157.94 92.0128 157.823 92.2262 157.59C92.4462 157.357 92.5895 157.05 92.6562 156.67C92.7228 156.29 92.7562 155.82 92.7562 155.26ZM96.5024 157.02C96.5691 157.353 96.7124 157.607 96.9324 157.78C97.1524 157.953 97.4491 158.04 97.8224 158.04C98.2958 158.04 98.6424 157.853 98.8624 157.48C99.0824 157.107 99.1924 156.47 99.1924 155.57C99.0324 155.797 98.8058 155.973 98.5124 156.1C98.2258 156.22 97.9124 156.28 97.5724 156.28C97.1391 156.28 96.7458 156.193 96.3924 156.02C96.0391 155.84 95.7591 155.577 95.5524 155.23C95.3524 154.877 95.2524 154.45 95.2524 153.95C95.2524 153.217 95.4658 152.633 95.8924 152.2C96.3258 151.76 96.9191 151.54 97.6724 151.54C98.5791 151.54 99.2224 151.843 99.6024 152.45C99.9891 153.05 100.182 153.973 100.182 155.22C100.182 156.08 100.109 156.783 99.9624 157.33C99.8224 157.877 99.5758 158.29 99.2224 158.57C98.8691 158.85 98.3791 158.99 97.7524 158.99C97.0391 158.99 96.4891 158.803 96.1024 158.43C95.7158 158.057 95.4991 157.587 95.4524 157.02H96.5024ZM97.7724 155.32C98.1724 155.32 98.4858 155.197 98.7124 154.95C98.9458 154.697 99.0624 154.363 99.0624 153.95C99.0624 153.49 98.9391 153.133 98.6924 152.88C98.4524 152.62 98.1224 152.49 97.7024 152.49C97.2824 152.49 96.9491 152.623 96.7024 152.89C96.4624 153.15 96.3424 153.493 96.3424 153.92C96.3424 154.327 96.4591 154.663 96.6924 154.93C96.9324 155.19 97.2924 155.32 97.7724 155.32ZM105.28 149.56L102.56 160.75H101.44L104.15 149.56H105.28ZM107.197 157.45C107.837 156.897 108.34 156.443 108.707 156.09C109.08 155.73 109.39 155.357 109.637 154.97C109.883 154.583 110.007 154.197 110.007 153.81C110.007 153.41 109.91 153.097 109.717 152.87C109.53 152.643 109.233 152.53 108.827 152.53C108.433 152.53 108.127 152.657 107.907 152.91C107.693 153.157 107.58 153.49 107.567 153.91H106.467C106.487 153.15 106.713 152.57 107.147 152.17C107.587 151.763 108.143 151.56 108.817 151.56C109.543 151.56 110.11 151.76 110.517 152.16C110.93 152.56 111.137 153.093 111.137 153.76C111.137 154.24 111.013 154.703 110.767 155.15C110.527 155.59 110.237 155.987 109.897 156.34C109.563 156.687 109.137 157.09 108.617 157.55L108.167 157.95H111.337V158.9H106.477V158.07L107.197 157.45ZM112.338 155.26C112.338 154.107 112.532 153.207 112.918 152.56C113.312 151.907 113.985 151.58 114.938 151.58C115.892 151.58 116.562 151.907 116.948 152.56C117.342 153.207 117.538 154.107 117.538 155.26C117.538 156.427 117.342 157.34 116.948 158C116.562 158.653 115.892 158.98 114.938 158.98C113.985 158.98 113.312 158.653 112.918 158C112.532 157.34 112.338 156.427 112.338 155.26ZM116.418 155.26C116.418 154.72 116.382 154.263 116.308 153.89C116.242 153.517 116.102 153.213 115.888 152.98C115.675 152.74 115.358 152.62 114.938 152.62C114.518 152.62 114.202 152.74 113.988 152.98C113.775 153.213 113.632 153.517 113.558 153.89C113.492 154.263 113.458 154.72 113.458 155.26C113.458 155.82 113.492 156.29 113.558 156.67C113.625 157.05 113.765 157.357 113.978 157.59C114.198 157.823 114.518 157.94 114.938 157.94C115.358 157.94 115.675 157.823 115.888 157.59C116.108 157.357 116.252 157.05 116.318 156.67C116.385 156.29 116.418 155.82 116.418 155.26ZM118.725 153.51C118.765 152.89 119.001 152.407 119.435 152.06C119.875 151.713 120.435 151.54 121.115 151.54C121.581 151.54 121.985 151.623 122.325 151.79C122.665 151.957 122.921 152.183 123.095 152.47C123.268 152.757 123.355 153.08 123.355 153.44C123.355 153.853 123.245 154.207 123.025 154.5C122.805 154.793 122.541 154.99 122.235 155.09V155.13C122.628 155.25 122.935 155.47 123.155 155.79C123.375 156.103 123.485 156.507 123.485 157C123.485 157.393 123.395 157.743 123.215 158.05C123.035 158.357 122.768 158.6 122.415 158.78C122.061 158.953 121.638 159.04 121.145 159.04C120.425 159.04 119.831 158.857 119.365 158.49C118.905 158.117 118.658 157.583 118.625 156.89H119.725C119.751 157.243 119.888 157.533 120.135 157.76C120.381 157.98 120.715 158.09 121.135 158.09C121.541 158.09 121.855 157.98 122.075 157.76C122.295 157.533 122.405 157.243 122.405 156.89C122.405 156.423 122.255 156.093 121.955 155.9C121.661 155.7 121.208 155.6 120.595 155.6H120.335V154.66H120.605C121.145 154.653 121.555 154.563 121.835 154.39C122.121 154.217 122.265 153.943 122.265 153.57C122.265 153.25 122.161 152.997 121.955 152.81C121.748 152.617 121.455 152.52 121.075 152.52C120.701 152.52 120.411 152.617 120.205 152.81C119.998 152.997 119.875 153.23 119.835 153.51H118.725ZM124.682 155.26C124.682 154.107 124.875 153.207 125.262 152.56C125.655 151.907 126.329 151.58 127.282 151.58C128.235 151.58 128.905 151.907 129.292 152.56C129.685 153.207 129.882 154.107 129.882 155.26C129.882 156.427 129.685 157.34 129.292 158C128.905 158.653 128.235 158.98 127.282 158.98C126.329 158.98 125.655 158.653 125.262 158C124.875 157.34 124.682 156.427 124.682 155.26ZM128.762 155.26C128.762 154.72 128.725 154.263 128.652 153.89C128.585 153.517 128.445 153.213 128.232 152.98C128.019 152.74 127.702 152.62 127.282 152.62C126.862 152.62 126.545 152.74 126.332 152.98C126.119 153.213 125.975 153.517 125.902 153.89C125.835 154.263 125.802 154.72 125.802 155.26C125.802 155.82 125.835 156.29 125.902 156.67C125.969 157.05 126.109 157.357 126.322 157.59C126.542 157.823 126.862 157.94 127.282 157.94C127.702 157.94 128.019 157.823 128.232 157.59C128.452 157.357 128.595 157.05 128.662 156.67C128.729 156.29 128.762 155.82 128.762 155.26Z" fill="white"/>
<path d="M154.37 155.51C154.37 154.83 154.527 154.22 154.84 153.68C155.16 153.14 155.59 152.72 156.13 152.42C156.677 152.113 157.273 151.96 157.92 151.96C158.66 151.96 159.317 152.143 159.89 152.51C160.47 152.87 160.89 153.383 161.15 154.05H159.78C159.6 153.683 159.35 153.41 159.03 153.23C158.71 153.05 158.34 152.96 157.92 152.96C157.46 152.96 157.05 153.063 156.69 153.27C156.33 153.477 156.047 153.773 155.84 154.16C155.64 154.547 155.54 154.997 155.54 155.51C155.54 156.023 155.64 156.473 155.84 156.86C156.047 157.247 156.33 157.547 156.69 157.76C157.05 157.967 157.46 158.07 157.92 158.07C158.34 158.07 158.71 157.98 159.03 157.8C159.35 157.62 159.6 157.347 159.78 156.98H161.15C160.89 157.647 160.47 158.16 159.89 158.52C159.317 158.88 158.66 159.06 157.92 159.06C157.267 159.06 156.67 158.91 156.13 158.61C155.59 158.303 155.16 157.88 154.84 157.34C154.527 156.8 154.37 156.19 154.37 155.51ZM168.474 152.05L165.864 159H164.544L161.924 152.05H163.144L165.204 157.83L167.274 152.05H168.474ZM169.048 155.51C169.048 154.83 169.204 154.22 169.518 153.68C169.838 153.14 170.268 152.72 170.808 152.42C171.354 152.113 171.951 151.96 172.598 151.96C173.338 151.96 173.994 152.143 174.568 152.51C175.148 152.87 175.568 153.383 175.828 154.05H174.458C174.278 153.683 174.028 153.41 173.708 153.23C173.388 153.05 173.018 152.96 172.598 152.96C172.138 152.96 171.728 153.063 171.368 153.27C171.008 153.477 170.724 153.773 170.518 154.16C170.318 154.547 170.218 154.997 170.218 155.51C170.218 156.023 170.318 156.473 170.518 156.86C170.724 157.247 171.008 157.547 171.368 157.76C171.728 157.967 172.138 158.07 172.598 158.07C173.018 158.07 173.388 157.98 173.708 157.8C174.028 157.62 174.278 157.347 174.458 156.98H175.828C175.568 157.647 175.148 158.16 174.568 158.52C173.994 158.88 173.338 159.06 172.598 159.06C171.944 159.06 171.348 158.91 170.808 158.61C170.268 158.303 169.838 157.88 169.518 157.34C169.204 156.8 169.048 156.19 169.048 155.51ZM182.837 157.45C183.477 156.897 183.981 156.443 184.347 156.09C184.721 155.73 185.031 155.357 185.277 154.97C185.524 154.583 185.647 154.197 185.647 153.81C185.647 153.41 185.551 153.097 185.357 152.87C185.171 152.643 184.874 152.53 184.467 152.53C184.074 152.53 183.767 152.657 183.547 152.91C183.334 153.157 183.221 153.49 183.207 153.91H182.107C182.127 153.15 182.354 152.57 182.787 152.17C183.227 151.763 183.784 151.56 184.457 151.56C185.184 151.56 185.751 151.76 186.157 152.16C186.571 152.56 186.777 153.093 186.777 153.76C186.777 154.24 186.654 154.703 186.407 155.15C186.167 155.59 185.877 155.987 185.537 156.34C185.204 156.687 184.777 157.09 184.257 157.55L183.807 157.95H186.977V158.9H182.117V158.07L182.837 157.45ZM192.599 152.59L189.819 159H188.669L191.479 152.71H187.779V151.74H192.599V152.59ZM193.555 153.51C193.595 152.89 193.831 152.407 194.265 152.06C194.705 151.713 195.265 151.54 195.945 151.54C196.411 151.54 196.815 151.623 197.155 151.79C197.495 151.957 197.751 152.183 197.925 152.47C198.098 152.757 198.185 153.08 198.185 153.44C198.185 153.853 198.075 154.207 197.855 154.5C197.635 154.793 197.371 154.99 197.065 155.09V155.13C197.458 155.25 197.765 155.47 197.985 155.79C198.205 156.103 198.315 156.507 198.315 157C198.315 157.393 198.225 157.743 198.045 158.05C197.865 158.357 197.598 158.6 197.245 158.78C196.891 158.953 196.468 159.04 195.975 159.04C195.255 159.04 194.661 158.857 194.195 158.49C193.735 158.117 193.488 157.583 193.455 156.89H194.555C194.581 157.243 194.718 157.533 194.965 157.76C195.211 157.98 195.545 158.09 195.965 158.09C196.371 158.09 196.685 157.98 196.905 157.76C197.125 157.533 197.235 157.243 197.235 156.89C197.235 156.423 197.085 156.093 196.785 155.9C196.491 155.7 196.038 155.6 195.425 155.6H195.165V154.66H195.435C195.975 154.653 196.385 154.563 196.665 154.39C196.951 154.217 197.095 153.943 197.095 153.57C197.095 153.25 196.991 152.997 196.785 152.81C196.578 152.617 196.285 152.52 195.905 152.52C195.531 152.52 195.241 152.617 195.035 152.81C194.828 152.997 194.705 153.23 194.665 153.51H193.555Z" fill="white"/>
<defs>
<linearGradient id="paint0_linear_160_216" x1="2.00793e-06" y1="90" x2="308" y2="90" gradientUnits="userSpaceOnUse">
<stop stop-color="#3ED5AA"/>
<stop offset="1" stop-color="#2FB791"/>
</linearGradient>
</defs>
</svg>
