<svg width="308" height="180" viewBox="0 0 308 180" fill="none" xmlns="http://www.w3.org/2000/svg">
<rect width="308" height="180" rx="20" fill="url(#paint0_linear_300_53)"/>
<path d="M31.81 83.75V81.878H35.554V95H33.484V83.75H31.81ZM39.507 92.21C40.659 91.214 41.565 90.398 42.225 89.762C42.897 89.114 43.455 88.442 43.899 87.746C44.343 87.05 44.565 86.354 44.565 85.658C44.565 84.938 44.391 84.374 44.043 83.966C43.707 83.558 43.173 83.354 42.441 83.354C41.733 83.354 41.181 83.582 40.785 84.038C40.401 84.482 40.197 85.082 40.173 85.838H38.193C38.229 84.47 38.637 83.426 39.417 82.706C40.209 81.974 41.211 81.608 42.423 81.608C43.731 81.608 44.751 81.968 45.483 82.688C46.227 83.408 46.599 84.368 46.599 85.568C46.599 86.432 46.377 87.266 45.933 88.07C45.501 88.862 44.979 89.576 44.367 90.212C43.767 90.836 42.999 91.562 42.063 92.39L41.253 93.11H46.959V94.82H38.211V93.326L39.507 92.21ZM48.7256 85.118C48.7976 84.002 49.2236 83.132 50.0036 82.508C50.7956 81.884 51.8036 81.572 53.0276 81.572C53.8676 81.572 54.5936 81.722 55.2056 82.022C55.8176 82.322 56.2796 82.73 56.5916 83.246C56.9036 83.762 57.0596 84.344 57.0596 84.992C57.0596 85.736 56.8616 86.372 56.4656 86.9C56.0696 87.428 55.5956 87.782 55.0436 87.962V88.034C55.7516 88.25 56.3036 88.646 56.6996 89.222C57.0956 89.786 57.2936 90.512 57.2936 91.4C57.2936 92.108 57.1316 92.738 56.8076 93.29C56.4836 93.842 56.0036 94.28 55.3676 94.604C54.7316 94.916 53.9696 95.072 53.0816 95.072C51.7856 95.072 50.7176 94.742 49.8776 94.082C49.0496 93.41 48.6056 92.45 48.5456 91.202H50.5256C50.5736 91.838 50.8196 92.36 51.2636 92.768C51.7076 93.164 52.3076 93.362 53.0636 93.362C53.7956 93.362 54.3596 93.164 54.7556 92.768C55.1516 92.36 55.3496 91.838 55.3496 91.202C55.3496 90.362 55.0796 89.768 54.5396 89.42C54.0116 89.06 53.1956 88.88 52.0916 88.88H51.6236V87.188H52.1096C53.0816 87.176 53.8196 87.014 54.3236 86.702C54.8396 86.39 55.0976 85.898 55.0976 85.226C55.0976 84.65 54.9116 84.194 54.5396 83.858C54.1676 83.51 53.6396 83.336 52.9556 83.336C52.2836 83.336 51.7616 83.51 51.3896 83.858C51.0176 84.194 50.7956 84.614 50.7236 85.118H48.7256ZM59.1971 92.264V90.716L65.2451 82.04H67.7291V90.482H69.4031V92.264H67.7291V95H65.7131V92.264H59.1971ZM65.8031 84.128L61.5551 90.482H65.8031V84.128ZM84.2392 83.642H78.2092V87.224C78.4612 86.888 78.8332 86.606 79.3252 86.378C79.8292 86.15 80.3632 86.036 80.9272 86.036C81.9352 86.036 82.7512 86.252 83.3752 86.684C84.0112 87.116 84.4612 87.662 84.7252 88.322C85.0012 88.982 85.1392 89.678 85.1392 90.41C85.1392 91.298 84.9652 92.09 84.6172 92.786C84.2812 93.47 83.7712 94.01 83.0872 94.406C82.4152 94.802 81.5872 95 80.6032 95C79.2952 95 78.2452 94.676 77.4532 94.028C76.6612 93.38 76.1872 92.522 76.0312 91.454H78.0292C78.1612 92.018 78.4552 92.468 78.9112 92.804C79.3672 93.128 79.9372 93.29 80.6212 93.29C81.4732 93.29 82.1092 93.032 82.5292 92.516C82.9612 92 83.1772 91.316 83.1772 90.464C83.1772 89.6 82.9612 88.94 82.5292 88.484C82.0972 88.016 81.4612 87.782 80.6212 87.782C80.0332 87.782 79.5352 87.932 79.1272 88.232C78.7312 88.52 78.4432 88.916 78.2632 89.42H76.3192V81.842H84.2392V83.642ZM94.3313 84.92C94.1993 84.368 93.9593 83.954 93.6113 83.678C93.2633 83.402 92.7773 83.264 92.1533 83.264C91.2053 83.264 90.4973 83.63 90.0293 84.362C89.5613 85.082 89.3153 86.282 89.2913 87.962C89.6033 87.434 90.0593 87.026 90.6593 86.738C91.2593 86.45 91.9073 86.306 92.6033 86.306C93.3953 86.306 94.0913 86.48 94.6913 86.828C95.3033 87.164 95.7773 87.656 96.1133 88.304C96.4613 88.952 96.6353 89.726 96.6353 90.626C96.6353 91.466 96.4673 92.216 96.1313 92.876C95.8073 93.536 95.3213 94.058 94.6733 94.442C94.0253 94.814 93.2453 95 92.3333 95C91.0973 95 90.1253 94.73 89.4173 94.19C88.7213 93.638 88.2293 92.864 87.9413 91.868C87.6653 90.872 87.5273 89.63 87.5273 88.142C87.5273 83.75 89.0753 81.554 92.1713 81.554C93.3713 81.554 94.3133 81.878 94.9973 82.526C95.6933 83.174 96.1013 83.972 96.2213 84.92H94.3313ZM92.1533 88.034C91.4213 88.034 90.7973 88.256 90.2813 88.7C89.7773 89.132 89.5253 89.762 89.5253 90.59C89.5253 91.418 89.7593 92.078 90.2273 92.57C90.7073 93.05 91.3733 93.29 92.2253 93.29C92.9813 93.29 93.5753 93.056 94.0073 92.588C94.4513 92.12 94.6733 91.496 94.6733 90.716C94.6733 89.9 94.4573 89.252 94.0253 88.772C93.6053 88.28 92.9813 88.034 92.1533 88.034ZM107.14 83.462L102.136 95H100.066L105.124 83.678H98.4641V81.932H107.14V83.462ZM111.11 88.142C109.862 87.518 109.238 86.534 109.238 85.19C109.238 84.542 109.4 83.948 109.724 83.408C110.048 82.868 110.534 82.442 111.182 82.13C111.83 81.806 112.622 81.644 113.558 81.644C114.482 81.644 115.268 81.806 115.916 82.13C116.576 82.442 117.068 82.868 117.392 83.408C117.716 83.948 117.878 84.542 117.878 85.19C117.878 85.862 117.704 86.456 117.356 86.972C117.02 87.476 116.57 87.866 116.006 88.142C116.69 88.394 117.23 88.808 117.626 89.384C118.022 89.948 118.22 90.614 118.22 91.382C118.22 92.162 118.022 92.852 117.626 93.452C117.23 94.052 116.678 94.514 115.97 94.838C115.262 95.162 114.458 95.324 113.558 95.324C112.658 95.324 111.854 95.162 111.146 94.838C110.45 94.514 109.904 94.052 109.508 93.452C109.112 92.852 108.914 92.162 108.914 91.382C108.914 90.602 109.112 89.93 109.508 89.366C109.904 88.802 110.438 88.394 111.11 88.142ZM115.916 85.442C115.916 84.77 115.706 84.254 115.286 83.894C114.866 83.534 114.29 83.354 113.558 83.354C112.838 83.354 112.268 83.534 111.848 83.894C111.428 84.254 111.218 84.776 111.218 85.46C111.218 86.06 111.434 86.552 111.866 86.936C112.31 87.308 112.874 87.494 113.558 87.494C114.242 87.494 114.806 87.302 115.25 86.918C115.694 86.534 115.916 86.042 115.916 85.442ZM113.558 89.042C112.766 89.042 112.118 89.24 111.614 89.636C111.122 90.02 110.876 90.578 110.876 91.31C110.876 91.994 111.116 92.552 111.596 92.984C112.076 93.404 112.73 93.614 113.558 93.614C114.374 93.614 115.016 93.398 115.484 92.966C115.964 92.534 116.204 91.982 116.204 91.31C116.204 90.59 115.958 90.032 115.466 89.636C114.986 89.24 114.35 89.042 113.558 89.042ZM127.265 88.142C126.017 87.518 125.393 86.534 125.393 85.19C125.393 84.542 125.555 83.948 125.879 83.408C126.203 82.868 126.689 82.442 127.337 82.13C127.985 81.806 128.777 81.644 129.713 81.644C130.637 81.644 131.423 81.806 132.071 82.13C132.731 82.442 133.223 82.868 133.547 83.408C133.871 83.948 134.033 84.542 134.033 85.19C134.033 85.862 133.859 86.456 133.511 86.972C133.175 87.476 132.725 87.866 132.161 88.142C132.845 88.394 133.385 88.808 133.781 89.384C134.177 89.948 134.375 90.614 134.375 91.382C134.375 92.162 134.177 92.852 133.781 93.452C133.385 94.052 132.833 94.514 132.125 94.838C131.417 95.162 130.613 95.324 129.713 95.324C128.813 95.324 128.009 95.162 127.301 94.838C126.605 94.514 126.059 94.052 125.663 93.452C125.267 92.852 125.069 92.162 125.069 91.382C125.069 90.602 125.267 89.93 125.663 89.366C126.059 88.802 126.593 88.394 127.265 88.142ZM132.071 85.442C132.071 84.77 131.861 84.254 131.441 83.894C131.021 83.534 130.445 83.354 129.713 83.354C128.993 83.354 128.423 83.534 128.003 83.894C127.583 84.254 127.373 84.776 127.373 85.46C127.373 86.06 127.589 86.552 128.021 86.936C128.465 87.308 129.029 87.494 129.713 87.494C130.397 87.494 130.961 87.302 131.405 86.918C131.849 86.534 132.071 86.042 132.071 85.442ZM129.713 89.042C128.921 89.042 128.273 89.24 127.769 89.636C127.277 90.02 127.031 90.578 127.031 91.31C127.031 91.994 127.271 92.552 127.751 92.984C128.231 93.404 128.885 93.614 129.713 93.614C130.529 93.614 131.171 93.398 131.639 92.966C132.119 92.534 132.359 91.982 132.359 91.31C132.359 90.59 132.113 90.032 131.621 89.636C131.141 89.24 130.505 89.042 129.713 89.042ZM139.085 91.436C139.205 92.036 139.463 92.492 139.859 92.804C140.255 93.116 140.789 93.272 141.461 93.272C142.313 93.272 142.937 92.936 143.333 92.264C143.729 91.592 143.927 90.446 143.927 88.826C143.639 89.234 143.231 89.552 142.703 89.78C142.187 89.996 141.623 90.104 141.011 90.104C140.231 90.104 139.523 89.948 138.887 89.636C138.251 89.312 137.747 88.838 137.375 88.214C137.015 87.578 136.835 86.81 136.835 85.91C136.835 84.59 137.219 83.54 137.987 82.76C138.767 81.968 139.835 81.572 141.191 81.572C142.823 81.572 143.981 82.118 144.665 83.21C145.361 84.29 145.709 85.952 145.709 88.196C145.709 89.744 145.577 91.01 145.313 91.994C145.061 92.978 144.617 93.722 143.981 94.226C143.345 94.73 142.463 94.982 141.335 94.982C140.051 94.982 139.061 94.646 138.365 93.974C137.669 93.302 137.279 92.456 137.195 91.436H139.085ZM141.371 88.376C142.091 88.376 142.655 88.154 143.063 87.71C143.483 87.254 143.693 86.654 143.693 85.91C143.693 85.082 143.471 84.44 143.027 83.984C142.595 83.516 142.001 83.282 141.245 83.282C140.489 83.282 139.889 83.522 139.445 84.002C139.013 84.47 138.797 85.088 138.797 85.856C138.797 86.588 139.007 87.194 139.427 87.674C139.859 88.142 140.507 88.376 141.371 88.376ZM147.685 83.75V81.878H151.429V95H149.359V83.75H147.685ZM154.248 88.268C154.248 86.192 154.596 84.572 155.292 83.408C156 82.232 157.212 81.644 158.928 81.644C160.644 81.644 161.85 82.232 162.546 83.408C163.254 84.572 163.608 86.192 163.608 88.268C163.608 90.368 163.254 92.012 162.546 93.2C161.85 94.376 160.644 94.964 158.928 94.964C157.212 94.964 156 94.376 155.292 93.2C154.596 92.012 154.248 90.368 154.248 88.268ZM161.592 88.268C161.592 87.296 161.526 86.474 161.394 85.802C161.274 85.13 161.022 84.584 160.638 84.164C160.254 83.732 159.684 83.516 158.928 83.516C158.172 83.516 157.602 83.732 157.218 84.164C156.834 84.584 156.576 85.13 156.444 85.802C156.324 86.474 156.264 87.296 156.264 88.268C156.264 89.276 156.324 90.122 156.444 90.806C156.564 91.49 156.816 92.042 157.2 92.462C157.596 92.882 158.172 93.092 158.928 93.092C159.684 93.092 160.254 92.882 160.638 92.462C161.034 92.042 161.292 91.49 161.412 90.806C161.532 90.122 161.592 89.276 161.592 88.268ZM170.185 83.75V81.878H173.929V95H171.859V83.75H170.185ZM176.478 83.75V81.878H180.222V95H178.152V83.75H176.478ZM182.771 83.75V81.878H186.515V95H184.445V83.75H182.771ZM190.468 92.21C191.62 91.214 192.526 90.398 193.186 89.762C193.858 89.114 194.416 88.442 194.86 87.746C195.304 87.05 195.526 86.354 195.526 85.658C195.526 84.938 195.352 84.374 195.004 83.966C194.668 83.558 194.134 83.354 193.402 83.354C192.694 83.354 192.142 83.582 191.746 84.038C191.362 84.482 191.158 85.082 191.134 85.838H189.154C189.19 84.47 189.598 83.426 190.378 82.706C191.17 81.974 192.172 81.608 193.384 81.608C194.692 81.608 195.712 81.968 196.444 82.688C197.188 83.408 197.56 84.368 197.56 85.568C197.56 86.432 197.338 87.266 196.894 88.07C196.462 88.862 195.94 89.576 195.328 90.212C194.728 90.836 193.96 91.562 193.024 92.39L192.214 93.11H197.92V94.82H189.172V93.326L190.468 92.21Z" fill="white"/>
<path d="M33.268 137.896H36.088V139H31.9V130.66H33.268V137.896ZM37.928 131.512C37.68 131.512 37.472 131.428 37.304 131.26C37.136 131.092 37.052 130.884 37.052 130.636C37.052 130.388 37.136 130.18 37.304 130.012C37.472 129.844 37.68 129.76 37.928 129.76C38.168 129.76 38.372 129.844 38.54 130.012C38.708 130.18 38.792 130.388 38.792 130.636C38.792 130.884 38.708 131.092 38.54 131.26C38.372 131.428 38.168 131.512 37.928 131.512ZM38.6 132.388V139H37.232V132.388H38.6ZM42.9521 137.776L44.8241 132.388H46.2761L43.7561 139H42.1241L39.6161 132.388H41.0801L42.9521 137.776ZM48.0062 131.512C47.7582 131.512 47.5502 131.428 47.3822 131.26C47.2142 131.092 47.1302 130.884 47.1302 130.636C47.1302 130.388 47.2142 130.18 47.3822 130.012C47.5502 129.844 47.7582 129.76 48.0062 129.76C48.2462 129.76 48.4502 129.844 48.6182 130.012C48.7862 130.18 48.8702 130.388 48.8702 130.636C48.8702 130.884 48.7862 131.092 48.6182 131.26C48.4502 131.428 48.2462 131.512 48.0062 131.512ZM48.6782 132.388V139H47.3102V132.388H48.6782ZM50.0182 135.664C50.0182 135 50.1542 134.412 50.4262 133.9C50.7062 133.388 51.0822 132.992 51.5542 132.712C52.0342 132.424 52.5622 132.28 53.1382 132.28C53.6582 132.28 54.1102 132.384 54.4942 132.592C54.8862 132.792 55.1982 133.044 55.4302 133.348V132.388H56.8102V139H55.4302V138.016C55.1982 138.328 54.8822 138.588 54.4822 138.796C54.0822 139.004 53.6262 139.108 53.1142 139.108C52.5462 139.108 52.0262 138.964 51.5542 138.676C51.0822 138.38 50.7062 137.972 50.4262 137.452C50.1542 136.924 50.0182 136.328 50.0182 135.664ZM55.4302 135.688C55.4302 135.232 55.3342 134.836 55.1422 134.5C54.9582 134.164 54.7142 133.908 54.4102 133.732C54.1062 133.556 53.7782 133.468 53.4262 133.468C53.0742 133.468 52.7462 133.556 52.4422 133.732C52.1382 133.9 51.8902 134.152 51.6982 134.488C51.5142 134.816 51.4222 135.208 51.4222 135.664C51.4222 136.12 51.5142 136.52 51.6982 136.864C51.8902 137.208 52.1382 137.472 52.4422 137.656C52.7542 137.832 53.0822 137.92 53.4262 137.92C53.7782 137.92 54.1062 137.832 54.4102 137.656C54.7142 137.48 54.9582 137.224 55.1422 136.888C55.3342 136.544 55.4302 136.144 55.4302 135.688ZM63.0922 130.66V139H61.7242V130.66H63.0922ZM66.2563 133.36C66.4883 133.056 66.8043 132.8 67.2043 132.592C67.6043 132.384 68.0563 132.28 68.5603 132.28C69.1363 132.28 69.6603 132.424 70.1323 132.712C70.6123 132.992 70.9883 133.388 71.2603 133.9C71.5323 134.412 71.6683 135 71.6683 135.664C71.6683 136.328 71.5323 136.924 71.2603 137.452C70.9883 137.972 70.6123 138.38 70.1323 138.676C69.6603 138.964 69.1363 139.108 68.5603 139.108C68.0563 139.108 67.6083 139.008 67.2163 138.808C66.8243 138.6 66.5043 138.344 66.2563 138.04V142.144H64.8883V132.388H66.2563V133.36ZM70.2763 135.664C70.2763 135.208 70.1803 134.816 69.9883 134.488C69.8043 134.152 69.5563 133.9 69.2443 133.732C68.9403 133.556 68.6123 133.468 68.2603 133.468C67.9163 133.468 67.5883 133.556 67.2763 133.732C66.9723 133.908 66.7243 134.164 66.5323 134.5C66.3483 134.836 66.2563 135.232 66.2563 135.688C66.2563 136.144 66.3483 136.544 66.5323 136.888C66.7243 137.224 66.9723 137.48 67.2763 137.656C67.5883 137.832 67.9163 137.92 68.2603 137.92C68.6123 137.92 68.9403 137.832 69.2443 137.656C69.5563 137.472 69.8043 137.208 69.9883 136.864C70.1803 136.52 70.2763 136.12 70.2763 135.664ZM75.8891 139.108C75.2651 139.108 74.7011 138.968 74.1971 138.688C73.6931 138.4 73.2971 138 73.0091 137.488C72.7211 136.968 72.5771 136.368 72.5771 135.688C72.5771 135.016 72.7251 134.42 73.0211 133.9C73.3171 133.38 73.7211 132.98 74.2331 132.7C74.7451 132.42 75.3171 132.28 75.9491 132.28C76.5811 132.28 77.1531 132.42 77.6651 132.7C78.1771 132.98 78.5811 133.38 78.8771 133.9C79.1731 134.42 79.3211 135.016 79.3211 135.688C79.3211 136.36 79.1691 136.956 78.8651 137.476C78.5611 137.996 78.1451 138.4 77.6171 138.688C77.0971 138.968 76.5211 139.108 75.8891 139.108ZM75.8891 137.92C76.2411 137.92 76.5691 137.836 76.8731 137.668C77.1851 137.5 77.4371 137.248 77.6291 136.912C77.8211 136.576 77.9171 136.168 77.9171 135.688C77.9171 135.208 77.8251 134.804 77.6411 134.476C77.4571 134.14 77.2131 133.888 76.9091 133.72C76.6051 133.552 76.2771 133.468 75.9251 133.468C75.5731 133.468 75.2451 133.552 74.9411 133.72C74.6451 133.888 74.4091 134.14 74.2331 134.476C74.0571 134.804 73.9691 135.208 73.9691 135.688C73.9691 136.4 74.1491 136.952 74.5091 137.344C74.8771 137.728 75.3371 137.92 75.8891 137.92ZM77.1851 130.504L74.5331 131.812V130.804L77.1851 129.34V130.504ZM82.0414 130.12V139H80.6734V130.12H82.0414ZM84.5335 131.512C84.2855 131.512 84.0775 131.428 83.9095 131.26C83.7415 131.092 83.6575 130.884 83.6575 130.636C83.6575 130.388 83.7415 130.18 83.9095 130.012C84.0775 129.844 84.2855 129.76 84.5335 129.76C84.7735 129.76 84.9775 129.844 85.1455 130.012C85.3135 130.18 85.3975 130.388 85.3975 130.636C85.3975 130.884 85.3135 131.092 85.1455 131.26C84.9775 131.428 84.7735 131.512 84.5335 131.512ZM85.2055 132.388V139H83.8375V132.388H85.2055ZM88.5976 133.504V137.164C88.5976 137.412 88.6536 137.592 88.7656 137.704C88.8856 137.808 89.0856 137.86 89.3656 137.86H90.2056V139H89.1256C88.5096 139 88.0376 138.856 87.7096 138.568C87.3816 138.28 87.2176 137.812 87.2176 137.164V133.504H86.4376V132.388H87.2176V130.744H88.5976V132.388H90.2056V133.504H88.5976ZM94.3344 139.108C93.7104 139.108 93.1464 138.968 92.6424 138.688C92.1384 138.4 91.7424 138 91.4544 137.488C91.1664 136.968 91.0224 136.368 91.0224 135.688C91.0224 135.016 91.1704 134.42 91.4664 133.9C91.7624 133.38 92.1664 132.98 92.6784 132.7C93.1904 132.42 93.7624 132.28 94.3944 132.28C95.0264 132.28 95.5984 132.42 96.1104 132.7C96.6224 132.98 97.0264 133.38 97.3224 133.9C97.6184 134.42 97.7664 135.016 97.7664 135.688C97.7664 136.36 97.6144 136.956 97.3104 137.476C97.0064 137.996 96.5904 138.4 96.0624 138.688C95.5424 138.968 94.9664 139.108 94.3344 139.108ZM94.3344 137.92C94.6864 137.92 95.0144 137.836 95.3184 137.668C95.6304 137.5 95.8824 137.248 96.0744 136.912C96.2664 136.576 96.3624 136.168 96.3624 135.688C96.3624 135.208 96.2704 134.804 96.0864 134.476C95.9024 134.14 95.6584 133.888 95.3544 133.72C95.0504 133.552 94.7224 133.468 94.3704 133.468C94.0184 133.468 93.6904 133.552 93.3864 133.72C93.0904 133.888 92.8544 134.14 92.6784 134.476C92.5024 134.804 92.4144 135.208 92.4144 135.688C92.4144 136.4 92.5944 136.952 92.9544 137.344C93.3224 137.728 93.7824 137.92 94.3344 137.92ZM106.568 139L104.648 135.664H103.604V139H102.236V130.66H105.116C105.756 130.66 106.296 130.772 106.736 130.996C107.184 131.22 107.516 131.52 107.732 131.896C107.956 132.272 108.068 132.692 108.068 133.156C108.068 133.7 107.908 134.196 107.588 134.644C107.276 135.084 106.792 135.384 106.136 135.544L108.2 139H106.568ZM103.604 134.572H105.116C105.628 134.572 106.012 134.444 106.268 134.188C106.532 133.932 106.664 133.588 106.664 133.156C106.664 132.724 106.536 132.388 106.28 132.148C106.024 131.9 105.636 131.776 105.116 131.776H103.604V134.572ZM112.686 139.108C112.062 139.108 111.498 138.968 110.994 138.688C110.49 138.4 110.094 138 109.806 137.488C109.518 136.968 109.374 136.368 109.374 135.688C109.374 135.016 109.522 134.42 109.818 133.9C110.114 133.38 110.518 132.98 111.03 132.7C111.542 132.42 112.114 132.28 112.746 132.28C113.378 132.28 113.95 132.42 114.462 132.7C114.974 132.98 115.378 133.38 115.674 133.9C115.97 134.42 116.118 135.016 116.118 135.688C116.118 136.36 115.966 136.956 115.662 137.476C115.358 137.996 114.942 138.4 114.414 138.688C113.894 138.968 113.318 139.108 112.686 139.108ZM112.686 137.92C113.038 137.92 113.366 137.836 113.67 137.668C113.982 137.5 114.234 137.248 114.426 136.912C114.618 136.576 114.714 136.168 114.714 135.688C114.714 135.208 114.622 134.804 114.438 134.476C114.254 134.14 114.01 133.888 113.706 133.72C113.402 133.552 113.074 133.468 112.722 133.468C112.37 133.468 112.042 133.552 111.738 133.72C111.442 133.888 111.206 134.14 111.03 134.476C110.854 134.804 110.766 135.208 110.766 135.688C110.766 136.4 110.946 136.952 111.306 137.344C111.674 137.728 112.134 137.92 112.686 137.92ZM119.87 139.108C119.35 139.108 118.882 139.016 118.466 138.832C118.058 138.64 117.734 138.384 117.494 138.064C117.254 137.736 117.126 137.372 117.11 136.972H118.526C118.55 137.252 118.682 137.488 118.922 137.68C119.17 137.864 119.478 137.956 119.846 137.956C120.23 137.956 120.526 137.884 120.734 137.74C120.95 137.588 121.058 137.396 121.058 137.164C121.058 136.916 120.938 136.732 120.698 136.612C120.466 136.492 120.094 136.36 119.582 136.216C119.086 136.08 118.682 135.948 118.37 135.82C118.058 135.692 117.786 135.496 117.554 135.232C117.33 134.968 117.218 134.62 117.218 134.188C117.218 133.836 117.322 133.516 117.53 133.228C117.738 132.932 118.034 132.7 118.418 132.532C118.81 132.364 119.258 132.28 119.762 132.28C120.514 132.28 121.118 132.472 121.574 132.856C122.038 133.232 122.286 133.748 122.318 134.404H120.95C120.926 134.108 120.806 133.872 120.59 133.696C120.374 133.52 120.082 133.432 119.714 133.432C119.354 133.432 119.078 133.5 118.886 133.636C118.694 133.772 118.598 133.952 118.598 134.176C118.598 134.352 118.662 134.5 118.79 134.62C118.918 134.74 119.074 134.836 119.258 134.908C119.442 134.972 119.714 135.056 120.074 135.16C120.554 135.288 120.946 135.42 121.25 135.556C121.562 135.684 121.83 135.876 122.054 136.132C122.278 136.388 122.394 136.728 122.402 137.152C122.402 137.528 122.298 137.864 122.09 138.16C121.882 138.456 121.586 138.688 121.202 138.856C120.826 139.024 120.382 139.108 119.87 139.108ZM123.424 135.664C123.424 135 123.56 134.412 123.832 133.9C124.112 133.388 124.488 132.992 124.96 132.712C125.44 132.424 125.968 132.28 126.544 132.28C127.064 132.28 127.516 132.384 127.9 132.592C128.292 132.792 128.604 133.044 128.836 133.348V132.388H130.216V139H128.836V138.016C128.604 138.328 128.288 138.588 127.888 138.796C127.488 139.004 127.032 139.108 126.52 139.108C125.952 139.108 125.432 138.964 124.96 138.676C124.488 138.38 124.112 137.972 123.832 137.452C123.56 136.924 123.424 136.328 123.424 135.664ZM128.836 135.688C128.836 135.232 128.74 134.836 128.548 134.5C128.364 134.164 128.12 133.908 127.816 133.732C127.512 133.556 127.184 133.468 126.832 133.468C126.48 133.468 126.152 133.556 125.848 133.732C125.544 133.9 125.296 134.152 125.104 134.488C124.92 134.816 124.828 135.208 124.828 135.664C124.828 136.12 124.92 136.52 125.104 136.864C125.296 137.208 125.544 137.472 125.848 137.656C126.16 137.832 126.488 137.92 126.832 137.92C127.184 137.92 127.512 137.832 127.816 137.656C128.12 137.48 128.364 137.224 128.548 136.888C128.74 136.544 128.836 136.144 128.836 135.688Z" fill="white"/>
<rect x="31" y="26" width="35" height="25" rx="6" fill="#D9D9D9"/>
<circle cx="254" cy="135" r="11" fill="#EA001B" fill-opacity="0.87"/>
<circle cx="268" cy="135" r="11" fill="#F79E1C" fill-opacity="0.79"/>
<path d="M93.3005 38.5037C93.3535 41.8679 92.1161 45.0269 89.8169 47.3997L91.1831 48.7235C93.8361 45.9864 95.2638 42.3458 95.2028 38.4737C95.1408 34.6016 93.6 31.0078 90.862 28.3557L89.5383 29.7218C91.9111 32.021 93.2475 35.1395 93.3005 38.5037ZM85.4844 44.0221C88.3621 41.0522 88.2842 36.112 85.3143 33.2343L83.9906 34.6004C86.2195 36.7601 86.278 40.4696 84.1183 42.6984L85.4844 44.0221Z" fill="white"/>
<path d="M88.3927 46.6078C92.6747 42.1906 92.5588 34.8392 88.1397 30.5592L86.816 31.9253C90.4941 35.4892 90.5905 41.606 87.0266 45.2841L88.3927 46.6078Z" fill="white"/>
<path d="M79.9845 38.7136C80.001 39.7642 80.8661 40.6025 81.9167 40.5859C82.9673 40.5693 83.8056 39.7042 83.789 38.6536C83.7725 37.603 82.9074 36.7648 81.8567 36.7813C80.8061 36.7979 79.9679 37.663 79.9845 38.7136Z" fill="white"/>
<defs>
<linearGradient id="paint0_linear_300_53" x1="2.00793e-06" y1="90" x2="308" y2="90" gradientUnits="userSpaceOnUse">
<stop stop-color="#3ED5AA"/>
<stop offset="1" stop-color="#2FB791"/>
</linearGradient>
</defs>
</svg>
