<svg width="73" height="70" viewBox="0 0 73 70" fill="none" xmlns="http://www.w3.org/2000/svg">
<rect width="73" height="70" rx="27" fill="url(#paint0_linear_226_41)"/>
<path d="M18 25.25C18 24.0234 18.4873 22.847 19.3546 21.9796C20.222 21.1123 21.3984 20.625 22.625 20.625H50.375C51.6016 20.625 52.778 21.1123 53.6454 21.9796C54.5127 22.847 55 24.0234 55 25.25V43.75C55 44.9766 54.5127 46.153 53.6454 47.0204C52.778 47.8877 51.6016 48.375 50.375 48.375H22.625C21.3984 48.375 20.222 47.8877 19.3546 47.0204C18.4873 46.153 18 44.9766 18 43.75V25.25ZM22.625 22.9375C22.0117 22.9375 21.4235 23.1811 20.9898 23.6148C20.5561 24.0485 20.3125 24.6367 20.3125 25.25V27.5625H52.6875V25.25C52.6875 24.6367 52.4439 24.0485 52.0102 23.6148C51.5765 23.1811 50.9883 22.9375 50.375 22.9375H22.625ZM52.6875 32.1875H20.3125V43.75C20.3125 44.3633 20.5561 44.9515 20.9898 45.3852C21.4235 45.8189 22.0117 46.0625 22.625 46.0625H50.375C50.9883 46.0625 51.5765 45.8189 52.0102 45.3852C52.4439 44.9515 52.6875 44.3633 52.6875 43.75V32.1875Z" fill="white"/>
<path d="M22.625 39.125C22.625 38.5117 22.8686 37.9235 23.3023 37.4898C23.736 37.0561 24.3242 36.8125 24.9375 36.8125H27.25C27.8633 36.8125 28.4515 37.0561 28.8852 37.4898C29.3189 37.9235 29.5625 38.5117 29.5625 39.125V41.4375C29.5625 42.0508 29.3189 42.639 28.8852 43.0727C28.4515 43.5064 27.8633 43.75 27.25 43.75H24.9375C24.3242 43.75 23.736 43.5064 23.3023 43.0727C22.8686 42.639 22.625 42.0508 22.625 41.4375V39.125Z" fill="white"/>
<defs>
<linearGradient id="paint0_linear_226_41" x1="4.75906e-07" y1="35" x2="73" y2="35" gradientUnits="userSpaceOnUse">
<stop stop-color="#3ED5AA"/>
<stop offset="1" stop-color="#2FB791"/>
</linearGradient>
</defs>
</svg>
