<svg width="15" height="19" viewBox="0 0 15 19" fill="none" xmlns="http://www.w3.org/2000/svg">
<g clip-path="url(#clip0_82_1524)">
<path d="M1.40625 0H13.5938C13.8631 0 14.1214 0.100089 14.3119 0.278249C14.5024 0.456408 14.6094 0.698044 14.6094 0.95V18.05C14.6094 18.302 14.5024 18.5436 14.3119 18.7218C14.1214 18.8999 13.8631 19 13.5938 19H1.40625C1.13689 19 0.878561 18.8999 0.688095 18.7218C0.497628 18.5436 0.390625 18.302 0.390625 18.05V0.95C0.390625 0.698044 0.497628 0.456408 0.688095 0.278249C0.878561 0.100089 1.13689 0 1.40625 0ZM7.5 14.25C7.23064 14.25 6.97231 14.3501 6.78185 14.5282C6.59138 14.7064 6.48438 14.948 6.48438 15.2C6.48438 15.452 6.59138 15.6936 6.78185 15.8718C6.97231 16.0499 7.23064 16.15 7.5 16.15C7.76936 16.15 8.02769 16.0499 8.21815 15.8718C8.40862 15.6936 8.51562 15.452 8.51562 15.2C8.51562 14.948 8.40862 14.7064 8.21815 14.5282C8.02769 14.3501 7.76936 14.25 7.5 14.25Z" fill="black"/>
</g>
<defs>
<clipPath id="clip0_82_1524">
<rect width="15" height="19" fill="white"/>
</clipPath>
</defs>
</svg>
