<svg width="26" height="23" viewBox="0 0 26 23" fill="none" xmlns="http://www.w3.org/2000/svg">
<path d="M2.94409 4.5202V18.5962H10.2387L12.8367 20.9989L15.4346 18.5962H22.7293V4.5202H2.94409ZM4.46603 5.9278H21.2074V17.1886H14.8046L12.8367 19.0086L10.8688 17.1886H4.46603V5.9278ZM12.0757 7.33539V8.17151C11.196 8.46499 10.5538 9.24198 10.5538 10.152C10.5538 11.3097 11.5849 12.2634 12.8367 12.2634C13.2674 12.2634 13.5977 12.5688 13.5977 12.9672C13.5977 13.3655 13.2674 13.671 12.8367 13.671C12.406 13.671 12.0757 13.3655 12.0757 12.9672H10.5538C10.5538 13.8772 11.196 14.6521 12.0757 14.9463V15.781H13.5977V14.9449C14.4773 14.6507 15.1196 13.8744 15.1196 12.9644C15.1196 11.8066 14.0885 10.853 12.8367 10.853C12.406 10.853 12.0757 10.5475 12.0757 10.1492C12.0757 9.75083 12.406 9.44538 12.8367 9.44538C13.2674 9.44538 13.5977 9.75083 13.5977 10.1492H15.1196C15.1196 9.23917 14.4773 8.46429 13.5977 8.1701V7.33539H12.0757Z" fill="black"/>
</svg>
