<svg width="20" height="22" viewBox="0 0 20 22" fill="none" xmlns="http://www.w3.org/2000/svg">
<path fill-rule="evenodd" clip-rule="evenodd" d="M5.02839 9.23404L4.01172 5.06184L6.34589 2.66154L7.08339 5.68792V4.02875L10.0001 3.04792V4.83221L12.5359 3.49709L12.5071 3.96L13.0113 1.83334H15.9767L14.823 6.06375L15.5592 5.85659L14.6646 9.52967C14.7226 9.46779 14.7813 9.40546 14.8396 9.34175C14.9188 9.25355 15.021 9.19486 15.1321 9.17393C15.2431 9.153 15.3573 9.17088 15.4586 9.22506C15.56 9.27924 15.6433 9.36699 15.6969 9.47598C15.7505 9.58496 15.7717 9.70969 15.7576 9.83263L14.6751 19.3637C14.6499 19.5854 14.5519 19.7894 14.3996 19.9373C14.2473 20.0851 14.0511 20.1667 13.848 20.1667H6.15214C5.94906 20.1666 5.75299 20.085 5.60077 19.9371C5.44855 19.7892 5.35065 19.5853 5.32547 19.3637L4.24255 9.83492C4.23044 9.72738 4.24527 9.61824 4.28546 9.5193C4.32565 9.42036 4.38966 9.33539 4.47057 9.27357C4.55148 9.21175 4.64621 9.17543 4.74453 9.16855C4.84284 9.16166 4.941 9.18447 5.02839 9.2345V9.23404ZM13.163 7.68488L14.3463 7.29438L13.5296 10.6457C13.0655 11.0614 12.6226 11.402 12.1934 11.6664L13.163 7.68488ZM11.1655 12.1623L11.6076 5.00179L10.5284 5.56967L10.1092 12.3576C10.4679 12.3471 10.8234 12.2814 11.1655 12.1623ZM7.91672 11.7077C8.34464 11.9616 8.7588 12.1417 9.16672 12.2471V4.28542L7.91672 4.70617V11.7072V11.7077ZM6.16089 10.3418C6.4574 10.6212 6.76521 10.8858 7.08339 11.1348V9.22717L5.90047 4.37434L4.9463 5.35563L6.16089 10.3418ZM13.8809 6.32867L12.7301 6.65225L13.6551 2.75H14.8567L13.8809 6.32867Z" fill="black"/>
</svg>
