<svg width="23" height="23" viewBox="0 0 23 23" fill="none" xmlns="http://www.w3.org/2000/svg">
<path d="M11.5 1.08337L8.37501 4.20837H4.20834V8.37504L1.08334 11.5L4.20834 14.625V18.7917H8.37501L11.5 21.9167L14.625 18.7917H18.7917V14.625L21.9167 11.5L18.7917 8.37504V4.20837H14.625L11.5 1.08337Z" stroke="black" stroke-width="2" stroke-linejoin="round"/>
<path d="M11.5 14.625C12.3288 14.625 13.1237 14.2958 13.7097 13.7097C14.2958 13.1237 14.625 12.3288 14.625 11.5C14.625 10.6712 14.2958 9.87634 13.7097 9.29029C13.1237 8.70424 12.3288 8.375 11.5 8.375C10.6712 8.375 9.87634 8.70424 9.29029 9.29029C8.70424 9.87634 8.375 10.6712 8.375 11.5C8.375 12.3288 8.70424 13.1237 9.29029 13.7097C9.87634 14.2958 10.6712 14.625 11.5 14.625V14.625Z" stroke="black" stroke-width="2" stroke-linejoin="round"/>
</svg>
