<svg width="24" height="16" viewBox="0 0 24 16" fill="none" xmlns="http://www.w3.org/2000/svg">
<path d="M14.0736 8.89196C14.9583 8.89196 15.7102 8.61105 16.3295 8.04925C16.9488 7.48745 17.2584 6.80525 17.2584 6.00268C17.2584 5.2001 16.9488 4.51791 16.3295 3.95611C15.7102 3.3943 14.9583 3.1134 14.0736 3.1134C13.1889 3.1134 12.437 3.3943 11.8177 3.95611C11.1984 4.51791 10.8888 5.2001 10.8888 6.00268C10.8888 6.80525 11.1984 7.48745 11.8177 8.04925C12.437 8.61105 13.1889 8.89196 14.0736 8.89196ZM6.64235 11.7812C6.05846 11.7812 5.5588 11.5925 5.14336 11.2149C4.72721 10.838 4.51913 10.3847 4.51913 9.85505V2.15031C4.51913 1.62061 4.72721 1.16731 5.14336 0.790419C5.5588 0.412887 6.05846 0.224121 6.64235 0.224121H21.5048C22.0887 0.224121 22.5887 0.412887 23.0049 0.790419C23.4203 1.16731 23.6281 1.62061 23.6281 2.15031V9.85505C23.6281 10.3847 23.4203 10.838 23.0049 11.2149C22.5887 11.5925 22.0887 11.7812 21.5048 11.7812H6.64235ZM2.39592 15.6336C1.81204 15.6336 1.31237 15.4452 0.89693 15.0683C0.48078 14.6907 0.272705 14.2371 0.272705 13.7074V4.07649C0.272705 3.80362 0.374619 3.57472 0.578448 3.38981C0.781569 3.20554 1.03352 3.1134 1.33431 3.1134C1.6351 3.1134 1.88741 3.20554 2.09124 3.38981C2.29436 3.57472 2.39592 3.80362 2.39592 4.07649V13.7074H19.3816C19.6824 13.7074 19.9344 13.7999 20.1375 13.9848C20.3413 14.1691 20.4432 14.3976 20.4432 14.6705C20.4432 14.9434 20.3413 15.172 20.1375 15.3562C19.9344 15.5411 19.6824 15.6336 19.3816 15.6336H2.39592ZM6.64235 4.07649C7.22623 4.07649 7.72589 3.88773 8.14133 3.51019C8.55748 3.1333 8.76556 2.68001 8.76556 2.15031H6.64235V4.07649ZM21.5048 4.07649V2.15031H19.3816C19.3816 2.68001 19.5893 3.1333 20.0048 3.51019C20.4209 3.88773 20.921 4.07649 21.5048 4.07649ZM6.64235 9.85505H8.76556C8.76556 9.32535 8.55748 8.87173 8.14133 8.4942C7.72589 8.11731 7.22623 7.92886 6.64235 7.92886V9.85505ZM19.3816 9.85505H21.5048V7.92886C20.921 7.92886 20.4209 8.11731 20.0048 8.4942C19.5893 8.87173 19.3816 9.32535 19.3816 9.85505Z" fill="black"/>
</svg>
