<svg width="953" height="38" viewBox="0 0 953 38" fill="none" xmlns="http://www.w3.org/2000/svg">
<mask id="path-1-outside-1_86_646" maskUnits="userSpaceOnUse" x="821" y="3" width="29" height="29" fill="black">
<rect fill="white" x="821" y="3" width="29" height="29"/>
<path d="M844.64 7.9086C842.088 5.42468 838.712 4 835.375 4C832.038 4 828.662 5.42468 826.11 7.9086C823.46 10.4887 822 13.8521 822 17.375C822 18.9675 822.522 21.0227 823.963 24.8716C825.404 28.7205 828.27 30.332 829.48 30.5954C829.827 30.6712 830.233 30.75 830.598 30.75C831.227 30.7505 831.845 30.5858 832.39 30.2723L833.225 29.7946C834.125 29.268 834.388 28.115 833.87 27.2062L828.68 18.0963C828.557 17.8783 828.391 17.687 828.193 17.5335C827.995 17.38 827.768 17.2673 827.526 17.202C827.284 17.1367 827.032 17.1201 826.783 17.153C826.535 17.186 826.295 17.2679 826.079 17.3941L825.261 17.8718C824.947 18.0558 824.665 18.2895 824.425 18.5638C824.396 18.5987 824.357 18.6243 824.313 18.6375C824.269 18.6508 824.222 18.6511 824.178 18.6386C824.134 18.626 824.094 18.601 824.064 18.5665C824.034 18.5321 824.014 18.4897 824.007 18.4444C823.947 18.091 823.915 17.7334 823.911 17.375C823.911 14.371 825.165 11.4948 827.443 9.27775C829.643 7.13775 832.532 5.91071 835.375 5.91071C838.218 5.91071 841.107 7.13775 843.307 9.27775C845.585 11.4948 846.839 14.371 846.839 17.375C846.834 17.7335 846.8 18.0911 846.739 18.4444C846.732 18.4897 846.712 18.5321 846.682 18.5665C846.652 18.601 846.612 18.626 846.568 18.6386C846.524 18.6511 846.478 18.6508 846.434 18.6375C846.39 18.6243 846.351 18.5987 846.321 18.5638C846.082 18.2895 845.799 18.0558 845.485 17.8718L844.668 17.3941C844.451 17.2679 844.212 17.186 843.963 17.153C843.715 17.1201 843.462 17.1367 843.22 17.202C842.978 17.2673 842.752 17.38 842.554 17.5335C842.355 17.687 842.19 17.8783 842.066 18.0963L836.88 27.2062C836.362 28.115 836.625 29.268 837.525 29.7946L838.36 30.2723C838.905 30.5858 839.523 30.7505 840.152 30.75C840.517 30.75 840.923 30.6712 841.27 30.5954C842.48 30.332 845.347 28.7199 846.787 24.8716C848.227 21.0233 848.75 18.9675 848.75 17.375C848.75 13.8521 847.29 10.4887 844.64 7.9086Z"/>
</mask>
<path d="M844.64 7.9086C842.088 5.42468 838.712 4 835.375 4C832.038 4 828.662 5.42468 826.11 7.9086C823.46 10.4887 822 13.8521 822 17.375C822 18.9675 822.522 21.0227 823.963 24.8716C825.404 28.7205 828.27 30.332 829.48 30.5954C829.827 30.6712 830.233 30.75 830.598 30.75C831.227 30.7505 831.845 30.5858 832.39 30.2723L833.225 29.7946C834.125 29.268 834.388 28.115 833.87 27.2062L828.68 18.0963C828.557 17.8783 828.391 17.687 828.193 17.5335C827.995 17.38 827.768 17.2673 827.526 17.202C827.284 17.1367 827.032 17.1201 826.783 17.153C826.535 17.186 826.295 17.2679 826.079 17.3941L825.261 17.8718C824.947 18.0558 824.665 18.2895 824.425 18.5638C824.396 18.5987 824.357 18.6243 824.313 18.6375C824.269 18.6508 824.222 18.6511 824.178 18.6386C824.134 18.626 824.094 18.601 824.064 18.5665C824.034 18.5321 824.014 18.4897 824.007 18.4444C823.947 18.091 823.915 17.7334 823.911 17.375C823.911 14.371 825.165 11.4948 827.443 9.27775C829.643 7.13775 832.532 5.91071 835.375 5.91071C838.218 5.91071 841.107 7.13775 843.307 9.27775C845.585 11.4948 846.839 14.371 846.839 17.375C846.834 17.7335 846.8 18.0911 846.739 18.4444C846.732 18.4897 846.712 18.5321 846.682 18.5665C846.652 18.601 846.612 18.626 846.568 18.6386C846.524 18.6511 846.478 18.6508 846.434 18.6375C846.39 18.6243 846.351 18.5987 846.321 18.5638C846.082 18.2895 845.799 18.0558 845.485 17.8718L844.668 17.3941C844.451 17.2679 844.212 17.186 843.963 17.153C843.715 17.1201 843.462 17.1367 843.22 17.202C842.978 17.2673 842.752 17.38 842.554 17.5335C842.355 17.687 842.19 17.8783 842.066 18.0963L836.88 27.2062C836.362 28.115 836.625 29.268 837.525 29.7946L838.36 30.2723C838.905 30.5858 839.523 30.7505 840.152 30.75C840.517 30.75 840.923 30.6712 841.27 30.5954C842.48 30.332 845.347 28.7199 846.787 24.8716C848.227 21.0233 848.75 18.9675 848.75 17.375C848.75 13.8521 847.29 10.4887 844.64 7.9086Z" fill="#C2C2C2"/>
<path d="M826.11 7.9086L826.703 8.51712L826.703 8.51708L826.11 7.9086ZM829.48 30.5954L829.661 29.7657L829.66 29.7656L829.48 30.5954ZM830.598 30.75L830.599 29.9008H830.598V30.75ZM832.39 30.2723L831.968 29.535L831.966 29.5362L832.39 30.2723ZM833.225 29.7946L833.647 30.532L833.654 30.5276L833.225 29.7946ZM833.87 27.2062L834.608 26.7859L834.608 26.7859L833.87 27.2062ZM828.68 18.0963L827.942 18.5153L827.942 18.5167L828.68 18.0963ZM826.079 17.3941L825.651 16.6603L825.65 16.6609L826.079 17.3941ZM825.261 17.8718L824.833 17.1386L824.832 17.1391L825.261 17.8718ZM824.425 18.5638L823.786 18.0053L823.779 18.013L824.425 18.5638ZM824.007 18.4444L824.847 18.3182L824.846 18.31L824.845 18.3018L824.007 18.4444ZM823.911 17.375H823.061L823.062 17.385L823.911 17.375ZM827.443 9.27775L826.851 8.66907L826.851 8.66911L827.443 9.27775ZM843.307 9.27775L843.899 8.66911L843.899 8.66907L843.307 9.27775ZM846.839 17.375L847.688 17.3878V17.375H846.839ZM846.739 18.4444L845.902 18.299L845.901 18.3086L845.899 18.3182L846.739 18.4444ZM846.321 18.5638L846.967 18.013L846.961 18.0053L846.321 18.5638ZM845.485 17.8718L845.914 17.1391L845.914 17.1386L845.485 17.8718ZM844.668 17.3941L845.096 16.6609L845.095 16.6603L844.668 17.3941ZM842.066 18.0963L842.804 18.5164L842.805 18.5153L842.066 18.0963ZM836.88 27.2062L837.618 27.6266L837.618 27.6264L836.88 27.2062ZM837.525 29.7946L837.096 30.5276L837.103 30.532L837.525 29.7946ZM838.36 30.2723L838.784 29.5362L838.782 29.535L838.36 30.2723ZM840.152 30.75V29.9008H840.151L840.152 30.75ZM841.27 30.5954L841.09 29.7656L841.089 29.7657L841.27 30.5954ZM845.232 7.30013C842.534 4.67332 838.949 3.15079 835.375 3.15079V4.84921C838.474 4.84921 841.643 6.17604 844.047 8.51708L845.232 7.30013ZM835.375 3.15079C831.801 3.15079 828.216 4.67332 825.518 7.30013L826.703 8.51708C829.107 6.17604 832.276 4.84921 835.375 4.84921V3.15079ZM825.518 7.30009C822.712 10.0312 821.151 13.6106 821.151 17.375H822.849C822.849 14.0937 824.207 10.9461 826.703 8.51712L825.518 7.30009ZM821.151 17.375C821.151 19.1378 821.728 21.3234 823.168 25.1693L824.759 24.5739C823.317 20.7219 822.849 18.7971 822.849 17.375H821.151ZM823.168 25.1693C824.707 29.2818 827.8 31.099 829.299 31.4251L829.66 29.7656C828.739 29.5651 826.101 28.1591 824.759 24.5739L823.168 25.1693ZM829.299 31.425C829.646 31.5008 830.132 31.5992 830.598 31.5992V29.9008C830.334 29.9008 830.008 29.8415 829.661 29.7657L829.299 31.425ZM830.597 31.5992C831.375 31.5999 832.139 31.3961 832.813 31.0084L831.966 29.5362C831.55 29.7755 831.079 29.9012 830.599 29.9008L830.597 31.5992ZM832.811 31.0096L833.647 30.532L832.804 29.0573L831.968 29.535L832.811 31.0096ZM833.654 30.5276C834.988 29.7471 835.337 28.0656 834.608 26.7859L833.132 27.6266C833.439 28.1644 833.263 28.7889 832.796 29.0617L833.654 30.5276ZM834.608 26.7859L829.418 17.6759L827.942 18.5167L833.132 27.6266L834.608 26.7859ZM829.419 17.6773C829.24 17.3616 829 17.0845 828.713 16.8622L827.673 18.2048C827.782 18.2895 827.873 18.395 827.942 18.5153L829.419 17.6773ZM828.713 16.8622C828.426 16.6399 828.098 16.4767 827.747 16.3822L827.305 18.0219C827.438 18.0579 827.563 18.1201 827.673 18.2048L828.713 16.8622ZM827.747 16.3822C827.397 16.2876 827.031 16.2635 826.672 16.3112L826.895 17.9949C827.032 17.9767 827.171 17.9859 827.305 18.0219L827.747 16.3822ZM826.672 16.3112C826.312 16.359 825.965 16.4776 825.651 16.6603L826.506 18.1279C826.626 18.0583 826.758 18.0131 826.895 17.9949L826.672 16.3112ZM825.65 16.6609L824.833 17.1386L825.69 18.605L826.507 18.1273L825.65 16.6609ZM824.832 17.1391C824.439 17.3694 824.085 17.662 823.786 18.0053L825.065 19.1223C825.244 18.9171 825.456 18.7422 825.691 18.6045L824.832 17.1391ZM823.779 18.013C823.855 17.9239 823.955 17.8585 824.067 17.8246L824.558 19.4505C824.758 19.3901 824.936 19.2735 825.072 19.1146L823.779 18.013ZM824.067 17.8246C824.179 17.7908 824.299 17.7898 824.411 17.822L823.945 19.4551C824.145 19.5124 824.358 19.5108 824.558 19.4505L824.067 17.8246ZM824.411 17.822C824.524 17.8542 824.625 17.9181 824.702 18.0061L823.426 19.127C823.564 19.2838 823.744 19.3977 823.945 19.4551L824.411 17.822ZM824.702 18.0061C824.779 18.094 824.83 18.2024 824.847 18.3182L823.168 18.5706C823.199 18.7771 823.288 18.9702 823.426 19.127L824.702 18.0061ZM824.845 18.3018C824.792 17.9923 824.764 17.679 824.76 17.365L823.062 17.385C823.066 17.7879 823.103 18.1898 823.17 18.587L824.845 18.3018ZM824.76 17.375C824.76 14.6145 825.911 11.9538 828.035 9.88639L826.851 8.66911C824.419 11.0358 823.062 14.1275 823.062 17.375H824.76ZM828.035 9.88644C830.09 7.88706 832.772 6.75992 835.375 6.75992V5.06151C832.292 5.06151 829.195 6.38844 826.851 8.66907L828.035 9.88644ZM835.375 6.75992C837.978 6.75992 840.66 7.88706 842.715 9.88644L843.899 8.66907C841.555 6.38844 838.458 5.06151 835.375 5.06151V6.75992ZM842.715 9.88639C844.839 11.9538 845.99 14.6145 845.99 17.375H847.688C847.688 14.1275 846.331 11.0358 843.899 8.66911L842.715 9.88639ZM845.99 17.3622C845.985 17.6763 845.956 17.9895 845.902 18.299L847.576 18.5898C847.645 18.1927 847.682 17.7908 847.688 17.3878L845.99 17.3622ZM845.899 18.3182C845.917 18.2024 845.967 18.094 846.044 18.0061L847.32 19.127C847.458 18.9702 847.548 18.7771 847.579 18.5706L845.899 18.3182ZM846.044 18.0061C846.122 17.9181 846.222 17.8542 846.335 17.822L846.802 19.4551C847.002 19.3977 847.182 19.2838 847.32 19.127L846.044 18.0061ZM846.335 17.822C846.448 17.7898 846.567 17.7908 846.679 17.8246L846.188 19.4505C846.388 19.5108 846.601 19.5124 846.802 19.4551L846.335 17.822ZM846.679 17.8246C846.791 17.8585 846.891 17.9239 846.967 18.013L845.675 19.1146C845.81 19.2735 845.988 19.3901 846.188 19.4505L846.679 17.8246ZM846.961 18.0053C846.661 17.662 846.308 17.3694 845.914 17.1391L845.056 18.6045C845.291 18.7422 845.502 18.9171 845.681 19.1223L846.961 18.0053ZM845.914 17.1386L845.096 16.6609L844.239 18.1273L845.057 18.605L845.914 17.1386ZM845.095 16.6603C844.781 16.4776 844.435 16.359 844.075 16.3112L843.851 17.9949C843.989 18.0131 844.121 18.0583 844.24 18.1279L845.095 16.6603ZM844.075 16.3112C843.715 16.2635 843.349 16.2876 842.999 16.3822L843.442 18.0219C843.575 17.9859 843.714 17.9767 843.851 17.9949L844.075 16.3112ZM842.999 16.3822C842.649 16.4767 842.32 16.6399 842.033 16.8622L843.074 18.2048C843.183 18.1201 843.308 18.0579 843.442 18.0219L842.999 16.3822ZM842.033 16.8622C841.747 17.0845 841.507 17.3616 841.327 17.6773L842.805 18.5153C842.873 18.395 842.964 18.2895 843.074 18.2048L842.033 16.8622ZM841.328 17.6761L836.142 26.7861L837.618 27.6264L842.804 18.5164L841.328 17.6761ZM836.142 26.7859C835.413 28.0656 835.762 29.7471 837.096 30.5276L837.954 29.0617C837.487 28.7889 837.311 28.1644 837.618 27.6266L836.142 26.7859ZM837.103 30.532L837.939 31.0096L838.782 29.535L837.946 29.0573L837.103 30.532ZM837.937 31.0084C838.611 31.3961 839.375 31.5999 840.153 31.5992L840.151 29.9008C839.671 29.9012 839.2 29.7755 838.784 29.5362L837.937 31.0084ZM840.152 31.5992C840.618 31.5992 841.104 31.5008 841.451 31.425L841.089 29.7657C840.742 29.8415 840.416 29.9008 840.152 29.9008V31.5992ZM841.451 31.4251C842.95 31.099 846.043 29.2812 847.582 25.1692L845.991 24.5739C844.65 28.1585 842.011 29.5651 841.09 29.7656L841.451 31.4251ZM847.582 25.1692C849.021 21.3241 849.599 19.1378 849.599 17.375H847.901C847.901 18.7971 847.433 20.7224 845.991 24.5739L847.582 25.1692ZM849.599 17.375C849.599 13.6106 848.038 10.0312 845.232 7.30009L844.047 8.51712C846.543 10.9461 847.901 14.0937 847.901 17.375H849.599Z" fill="#C2C2C2" mask="url(#path-1-outside-1_86_646)"/>
<path d="M864.44 26.168C863.272 26.168 862.216 25.968 861.272 25.568C860.344 25.168 859.608 24.592 859.064 23.84C858.52 23.088 858.24 22.2 858.224 21.176H861.824C861.872 21.864 862.112 22.408 862.544 22.808C862.992 23.208 863.6 23.408 864.368 23.408C865.152 23.408 865.768 23.224 866.216 22.856C866.664 22.472 866.888 21.976 866.888 21.368C866.888 20.872 866.736 20.464 866.432 20.144C866.128 19.824 865.744 19.576 865.28 19.4C864.832 19.208 864.208 19 863.408 18.776C862.32 18.456 861.432 18.144 860.744 17.84C860.072 17.52 859.488 17.048 858.992 16.424C858.512 15.784 858.272 14.936 858.272 13.88C858.272 12.888 858.52 12.024 859.016 11.288C859.512 10.552 860.208 9.992 861.104 9.608C862 9.208 863.024 9.008 864.176 9.008C865.904 9.008 867.304 9.432 868.376 10.28C869.464 11.112 870.064 12.28 870.176 13.784H866.48C866.448 13.208 866.2 12.736 865.736 12.368C865.288 11.984 864.688 11.792 863.936 11.792C863.28 11.792 862.752 11.96 862.352 12.296C861.968 12.632 861.776 13.12 861.776 13.76C861.776 14.208 861.92 14.584 862.208 14.888C862.512 15.176 862.88 15.416 863.312 15.608C863.76 15.784 864.384 15.992 865.184 16.232C866.272 16.552 867.16 16.872 867.848 17.192C868.536 17.512 869.128 17.992 869.624 18.632C870.12 19.272 870.368 20.112 870.368 21.152C870.368 22.048 870.136 22.88 869.672 23.648C869.208 24.416 868.528 25.032 867.632 25.496C866.736 25.944 865.672 26.168 864.44 26.168ZM885.833 12.704V26H882.449V24.32C882.017 24.896 881.449 25.352 880.745 25.688C880.057 26.008 879.305 26.168 878.489 26.168C877.449 26.168 876.529 25.952 875.729 25.52C874.929 25.072 874.297 24.424 873.833 23.576C873.385 22.712 873.161 21.688 873.161 20.504V12.704H876.521V20.024C876.521 21.08 876.785 21.896 877.313 22.472C877.841 23.032 878.561 23.312 879.473 23.312C880.401 23.312 881.129 23.032 881.657 22.472C882.185 21.896 882.449 21.08 882.449 20.024V12.704H885.833ZM892.508 14.624C892.94 14.016 893.532 13.512 894.284 13.112C895.052 12.696 895.924 12.488 896.9 12.488C898.036 12.488 899.06 12.768 899.972 13.328C900.9 13.888 901.628 14.688 902.156 15.728C902.7 16.752 902.972 17.944 902.972 19.304C902.972 20.664 902.7 21.872 902.156 22.928C901.628 23.968 900.9 24.776 899.972 25.352C899.06 25.928 898.036 26.216 896.9 26.216C895.924 26.216 895.06 26.016 894.308 25.616C893.572 25.216 892.972 24.712 892.508 24.104V32.336H889.148V12.704H892.508V14.624ZM899.54 19.304C899.54 18.504 899.372 17.816 899.036 17.24C898.716 16.648 898.284 16.2 897.74 15.896C897.212 15.592 896.636 15.44 896.012 15.44C895.404 15.44 894.828 15.6 894.284 15.92C893.756 16.224 893.324 16.672 892.988 17.264C892.668 17.856 892.508 18.552 892.508 19.352C892.508 20.152 892.668 20.848 892.988 21.44C893.324 22.032 893.756 22.488 894.284 22.808C894.828 23.112 895.404 23.264 896.012 23.264C896.636 23.264 897.212 23.104 897.74 22.784C898.284 22.464 898.716 22.008 899.036 21.416C899.372 20.824 899.54 20.12 899.54 19.304ZM911.318 26.216C910.038 26.216 908.886 25.936 907.862 25.376C906.838 24.8 906.03 23.992 905.438 22.952C904.862 21.912 904.574 20.712 904.574 19.352C904.574 17.992 904.87 16.792 905.462 15.752C906.07 14.712 906.894 13.912 907.934 13.352C908.974 12.776 910.134 12.488 911.414 12.488C912.694 12.488 913.854 12.776 914.894 13.352C915.934 13.912 916.75 14.712 917.342 15.752C917.95 16.792 918.254 17.992 918.254 19.352C918.254 20.712 917.942 21.912 917.318 22.952C916.71 23.992 915.878 24.8 914.822 25.376C913.782 25.936 912.614 26.216 911.318 26.216ZM911.318 23.288C911.926 23.288 912.494 23.144 913.022 22.856C913.566 22.552 913.998 22.104 914.318 21.512C914.638 20.92 914.798 20.2 914.798 19.352C914.798 18.088 914.462 17.12 913.79 16.448C913.134 15.76 912.326 15.416 911.366 15.416C910.406 15.416 909.598 15.76 908.942 16.448C908.302 17.12 907.982 18.088 907.982 19.352C907.982 20.616 908.294 21.592 908.918 22.28C909.558 22.952 910.358 23.288 911.318 23.288ZM924.079 14.768C924.511 14.064 925.071 13.512 925.759 13.112C926.463 12.712 927.263 12.512 928.159 12.512V16.04H927.271C926.215 16.04 925.415 16.288 924.871 16.784C924.343 17.28 924.079 18.144 924.079 19.376V26H920.719V12.704H924.079V14.768ZM934.334 15.464V21.896C934.334 22.344 934.438 22.672 934.646 22.88C934.87 23.072 935.238 23.168 935.75 23.168H937.31V26H935.198C932.366 26 930.95 24.624 930.95 21.872V15.464H929.366V12.704H930.95V9.416H934.334V12.704H937.31V15.464H934.334ZM952.086 19.064C952.086 19.544 952.054 19.976 951.99 20.36H942.27C942.35 21.32 942.686 22.072 943.278 22.616C943.87 23.16 944.598 23.432 945.462 23.432C946.71 23.432 947.598 22.896 948.126 21.824H951.75C951.366 23.104 950.63 24.16 949.542 24.992C948.454 25.808 947.118 26.216 945.534 26.216C944.254 26.216 943.102 25.936 942.078 25.376C941.07 24.8 940.278 23.992 939.702 22.952C939.142 21.912 938.862 20.712 938.862 19.352C938.862 17.976 939.142 16.768 939.702 15.728C940.262 14.688 941.046 13.888 942.054 13.328C943.062 12.768 944.222 12.488 945.534 12.488C946.798 12.488 947.926 12.76 948.918 13.304C949.926 13.848 950.702 14.624 951.246 15.632C951.806 16.624 952.086 17.768 952.086 19.064ZM948.606 18.104C948.59 17.24 948.278 16.552 947.67 16.04C947.062 15.512 946.318 15.248 945.438 15.248C944.606 15.248 943.902 15.504 943.326 16.016C942.766 16.512 942.422 17.208 942.294 18.104H948.606Z" fill="#C2C2C2"/>
<path d="M589.872 16.432C589.872 17.328 589.656 18.168 589.224 18.952C588.808 19.736 588.144 20.368 587.232 20.848C586.336 21.328 585.2 21.568 583.824 21.568H581.016V28H577.656V11.248H583.824C585.12 11.248 586.224 11.472 587.136 11.92C588.048 12.368 588.728 12.984 589.176 13.768C589.64 14.552 589.872 15.44 589.872 16.432ZM583.68 18.856C584.608 18.856 585.296 18.648 585.744 18.232C586.192 17.8 586.416 17.2 586.416 16.432C586.416 14.8 585.504 13.984 583.68 13.984H581.016V18.856H583.68ZM598.162 28.216C596.882 28.216 595.73 27.936 594.706 27.376C593.682 26.8 592.874 25.992 592.282 24.952C591.706 23.912 591.418 22.712 591.418 21.352C591.418 19.992 591.714 18.792 592.306 17.752C592.914 16.712 593.738 15.912 594.778 15.352C595.818 14.776 596.978 14.488 598.258 14.488C599.538 14.488 600.698 14.776 601.738 15.352C602.778 15.912 603.594 16.712 604.186 17.752C604.794 18.792 605.098 19.992 605.098 21.352C605.098 22.712 604.786 23.912 604.162 24.952C603.554 25.992 602.722 26.8 601.666 27.376C600.626 27.936 599.458 28.216 598.162 28.216ZM598.162 25.288C598.77 25.288 599.338 25.144 599.866 24.856C600.41 24.552 600.842 24.104 601.162 23.512C601.482 22.92 601.642 22.2 601.642 21.352C601.642 20.088 601.306 19.12 600.634 18.448C599.978 17.76 599.17 17.416 598.21 17.416C597.25 17.416 596.442 17.76 595.786 18.448C595.146 19.12 594.826 20.088 594.826 21.352C594.826 22.616 595.138 23.592 595.762 24.28C596.402 24.952 597.202 25.288 598.162 25.288ZM610.922 16.768C611.354 16.064 611.914 15.512 612.602 15.112C613.306 14.712 614.106 14.512 615.002 14.512V18.04H614.114C613.058 18.04 612.258 18.288 611.714 18.784C611.186 19.28 610.922 20.144 610.922 21.376V28H607.562V14.704H610.922V16.768ZM621.177 17.464V23.896C621.177 24.344 621.281 24.672 621.489 24.88C621.713 25.072 622.081 25.168 622.593 25.168H624.153V28H622.041C619.209 28 617.793 26.624 617.793 23.872V17.464H616.209V14.704H617.793V11.416H621.177V14.704H624.153V17.464H621.177ZM625.706 21.304C625.706 19.96 625.97 18.768 626.498 17.728C627.042 16.688 627.77 15.888 628.682 15.328C629.61 14.768 630.642 14.488 631.778 14.488C632.77 14.488 633.634 14.688 634.37 15.088C635.122 15.488 635.722 15.992 636.17 16.6V14.704H639.554V28H636.17V26.056C635.738 26.68 635.138 27.2 634.37 27.616C633.618 28.016 632.746 28.216 631.754 28.216C630.634 28.216 629.61 27.928 628.682 27.352C627.77 26.776 627.042 25.968 626.498 24.928C625.97 23.872 625.706 22.664 625.706 21.304ZM636.17 21.352C636.17 20.536 636.01 19.84 635.69 19.264C635.37 18.672 634.938 18.224 634.394 17.92C633.85 17.6 633.266 17.44 632.642 17.44C632.018 17.44 631.442 17.592 630.914 17.896C630.386 18.2 629.954 18.648 629.618 19.24C629.298 19.816 629.138 20.504 629.138 21.304C629.138 22.104 629.298 22.808 629.618 23.416C629.954 24.008 630.386 24.464 630.914 24.784C631.458 25.104 632.034 25.264 632.642 25.264C633.266 25.264 633.85 25.112 634.394 24.808C634.938 24.488 635.37 24.04 635.69 23.464C636.01 22.872 636.17 22.168 636.17 21.352ZM646.196 16.648C646.628 16.008 647.22 15.488 647.972 15.088C648.74 14.688 649.612 14.488 650.588 14.488C651.724 14.488 652.748 14.768 653.66 15.328C654.588 15.888 655.316 16.688 655.844 17.728C656.388 18.752 656.66 19.944 656.66 21.304C656.66 22.664 656.388 23.872 655.844 24.928C655.316 25.968 654.588 26.776 653.66 27.352C652.748 27.928 651.724 28.216 650.588 28.216C649.596 28.216 648.724 28.024 647.972 27.64C647.236 27.24 646.644 26.728 646.196 26.104V28H642.836V10.24H646.196V16.648ZM653.228 21.304C653.228 20.504 653.06 19.816 652.724 19.24C652.404 18.648 651.972 18.2 651.428 17.896C650.9 17.592 650.324 17.44 649.7 17.44C649.092 17.44 648.516 17.6 647.972 17.92C647.444 18.224 647.012 18.672 646.676 19.264C646.356 19.856 646.196 20.552 646.196 21.352C646.196 22.152 646.356 22.848 646.676 23.44C647.012 24.032 647.444 24.488 647.972 24.808C648.516 25.112 649.092 25.264 649.7 25.264C650.324 25.264 650.9 25.104 651.428 24.784C651.972 24.464 652.404 24.008 652.724 23.416C653.06 22.824 653.228 22.12 653.228 21.304ZM660.805 13.12C660.213 13.12 659.717 12.936 659.317 12.568C658.933 12.184 658.741 11.712 658.741 11.152C658.741 10.592 658.933 10.128 659.317 9.76C659.717 9.376 660.213 9.184 660.805 9.184C661.397 9.184 661.885 9.376 662.269 9.76C662.669 10.128 662.869 10.592 662.869 11.152C662.869 11.712 662.669 12.184 662.269 12.568C661.885 12.936 661.397 13.12 660.805 13.12ZM662.461 14.704V28H659.101V14.704H662.461ZM669.141 10.24V28H665.781V10.24H669.141ZM674.165 13.12C673.573 13.12 673.077 12.936 672.677 12.568C672.293 12.184 672.101 11.712 672.101 11.152C672.101 10.592 672.293 10.128 672.677 9.76C673.077 9.376 673.573 9.184 674.165 9.184C674.757 9.184 675.245 9.376 675.629 9.76C676.029 10.128 676.229 10.592 676.229 11.152C676.229 11.712 676.029 12.184 675.629 12.568C675.245 12.936 674.757 13.12 674.165 13.12ZM675.821 14.704V28H672.461V14.704H675.821ZM678.276 21.304C678.276 19.96 678.54 18.768 679.068 17.728C679.612 16.688 680.348 15.888 681.276 15.328C682.204 14.768 683.236 14.488 684.372 14.488C685.236 14.488 686.06 14.68 686.844 15.064C687.628 15.432 688.252 15.928 688.716 16.552V10.24H692.124V28H688.716V26.032C688.3 26.688 687.716 27.216 686.964 27.616C686.212 28.016 685.34 28.216 684.348 28.216C683.228 28.216 682.204 27.928 681.276 27.352C680.348 26.776 679.612 25.968 679.068 24.928C678.54 23.872 678.276 22.664 678.276 21.304ZM688.74 21.352C688.74 20.536 688.58 19.84 688.26 19.264C687.94 18.672 687.508 18.224 686.964 17.92C686.42 17.6 685.836 17.44 685.212 17.44C684.588 17.44 684.012 17.592 683.484 17.896C682.956 18.2 682.524 18.648 682.188 19.24C681.868 19.816 681.708 20.504 681.708 21.304C681.708 22.104 681.868 22.808 682.188 23.416C682.524 24.008 682.956 24.464 683.484 24.784C684.028 25.104 684.604 25.264 685.212 25.264C685.836 25.264 686.42 25.112 686.964 24.808C687.508 24.488 687.94 24.04 688.26 23.464C688.58 22.872 688.74 22.168 688.74 21.352ZM694.542 21.304C694.542 19.96 694.806 18.768 695.334 17.728C695.878 16.688 696.606 15.888 697.518 15.328C698.446 14.768 699.478 14.488 700.614 14.488C701.606 14.488 702.47 14.688 703.206 15.088C703.958 15.488 704.558 15.992 705.006 16.6V14.704H708.39V28H705.006V26.056C704.574 26.68 703.974 27.2 703.206 27.616C702.454 28.016 701.582 28.216 700.59 28.216C699.47 28.216 698.446 27.928 697.518 27.352C696.606 26.776 695.878 25.968 695.334 24.928C694.806 23.872 694.542 22.664 694.542 21.304ZM705.006 21.352C705.006 20.536 704.846 19.84 704.526 19.264C704.206 18.672 703.774 18.224 703.23 17.92C702.686 17.6 702.102 17.44 701.478 17.44C700.854 17.44 700.278 17.592 699.75 17.896C699.222 18.2 698.79 18.648 698.454 19.24C698.134 19.816 697.974 20.504 697.974 21.304C697.974 22.104 698.134 22.808 698.454 23.416C698.79 24.008 699.222 24.464 699.75 24.784C700.294 25.104 700.87 25.264 701.478 25.264C702.102 25.264 702.686 25.112 703.23 24.808C703.774 24.488 704.206 24.04 704.526 23.464C704.846 22.872 705.006 22.168 705.006 21.352ZM710.808 21.304C710.808 19.96 711.072 18.768 711.6 17.728C712.144 16.688 712.88 15.888 713.808 15.328C714.736 14.768 715.768 14.488 716.904 14.488C717.768 14.488 718.592 14.68 719.376 15.064C720.16 15.432 720.784 15.928 721.248 16.552V10.24H724.656V28H721.248V26.032C720.832 26.688 720.248 27.216 719.496 27.616C718.744 28.016 717.872 28.216 716.88 28.216C715.76 28.216 714.736 27.928 713.808 27.352C712.88 26.776 712.144 25.968 711.6 24.928C711.072 23.872 710.808 22.664 710.808 21.304ZM721.272 21.352C721.272 20.536 721.112 19.84 720.792 19.264C720.472 18.672 720.04 18.224 719.496 17.92C718.952 17.6 718.368 17.44 717.744 17.44C717.12 17.44 716.544 17.592 716.016 17.896C715.488 18.2 715.056 18.648 714.72 19.24C714.4 19.816 714.24 20.504 714.24 21.304C714.24 22.104 714.4 22.808 714.72 23.416C715.056 24.008 715.488 24.464 716.016 24.784C716.56 25.104 717.136 25.264 717.744 25.264C718.368 25.264 718.952 25.112 719.496 24.808C720.04 24.488 720.472 24.04 720.792 23.464C721.112 22.872 721.272 22.168 721.272 21.352ZM740.297 21.064C740.297 21.544 740.265 21.976 740.201 22.36H730.481C730.561 23.32 730.897 24.072 731.489 24.616C732.081 25.16 732.809 25.432 733.673 25.432C734.921 25.432 735.809 24.896 736.337 23.824H739.961C739.577 25.104 738.841 26.16 737.753 26.992C736.665 27.808 735.329 28.216 733.745 28.216C732.465 28.216 731.313 27.936 730.289 27.376C729.281 26.8 728.489 25.992 727.913 24.952C727.353 23.912 727.073 22.712 727.073 21.352C727.073 19.976 727.353 18.768 727.913 17.728C728.473 16.688 729.257 15.888 730.265 15.328C731.273 14.768 732.433 14.488 733.745 14.488C735.009 14.488 736.137 14.76 737.129 15.304C738.137 15.848 738.913 16.624 739.457 17.632C740.017 18.624 740.297 19.768 740.297 21.064ZM736.817 20.104C736.801 19.24 736.489 18.552 735.881 18.04C735.273 17.512 734.529 17.248 733.649 17.248C732.817 17.248 732.113 17.504 731.537 18.016C730.977 18.512 730.633 19.208 730.505 20.104H736.817Z" fill="#C2C2C2"/>
<path d="M544.5 4.91667C541.616 4.91667 538.796 5.77197 536.398 7.37441C534 8.97684 532.131 11.2544 531.027 13.9192C529.923 16.584 529.634 19.5162 530.197 22.3451C530.76 25.174 532.149 27.7725 534.188 29.812C536.228 31.8515 538.826 33.2404 541.655 33.8031C544.484 34.3658 547.416 34.077 550.081 32.9733C552.746 31.8695 555.023 30.0003 556.626 27.6021C558.228 25.2039 559.083 22.3843 559.083 19.5C559.083 17.5849 558.706 15.6885 557.973 13.9192C557.24 12.1499 556.166 10.5422 554.812 9.18803C553.458 7.83384 551.85 6.75964 550.081 6.02676C548.311 5.29388 546.415 4.91667 544.5 4.91667ZM544.5 31.1667C542.193 31.1667 539.937 30.4824 538.018 29.2005C536.1 27.9185 534.604 26.0965 533.721 23.9646C532.838 21.8328 532.607 19.4871 533.058 17.224C533.508 14.9608 534.619 12.882 536.25 11.2504C537.882 9.61881 539.961 8.50767 542.224 8.05751C544.487 7.60735 546.833 7.83839 548.965 8.72141C551.096 9.60443 552.919 11.0998 554.2 13.0184C555.482 14.9369 556.167 17.1926 556.167 19.5C556.167 22.5942 554.938 25.5617 552.75 27.7496C550.562 29.9375 547.594 31.1667 544.5 31.1667Z" fill="#C2C2C2"/>
<path d="M544.5 18.0417C541.583 18.0417 541.583 17.1229 541.583 16.5833C541.583 16.0438 542.604 15.125 544.5 15.125C546.396 15.125 546.527 16.0583 546.542 16.5833H549.458C549.439 15.5899 549.081 14.6327 548.445 13.8693C547.809 13.1059 546.932 12.5819 545.958 12.3833V10.75H543.042V12.3396C540.125 12.8208 538.667 14.7021 538.667 16.5833C538.667 18.2167 539.425 20.9583 544.5 20.9583C547.417 20.9583 547.417 21.95 547.417 22.4167C547.417 22.8833 546.513 23.875 544.5 23.875C541.817 23.875 541.583 22.6208 541.583 22.4167H538.667C538.667 23.7583 539.629 26.1354 543.042 26.675V28.25H545.958V26.675C548.875 26.1792 550.333 24.2979 550.333 22.4167C550.333 20.7833 549.575 18.0417 544.5 18.0417Z" fill="#C2C2C2"/>
<path d="M295.016 11.248V28H291.656V11.248H295.016ZM305.704 14.512C307.288 14.512 308.568 15.016 309.544 16.024C310.52 17.016 311.008 18.408 311.008 20.2V28H307.648V20.656C307.648 19.6 307.384 18.792 306.856 18.232C306.328 17.656 305.608 17.368 304.696 17.368C303.768 17.368 303.032 17.656 302.488 18.232C301.96 18.792 301.696 19.6 301.696 20.656V28H298.336V14.704H301.696V16.36C302.144 15.784 302.712 15.336 303.4 15.016C304.104 14.68 304.872 14.512 305.704 14.512ZM319.747 24.904L323.107 14.704H326.683L321.763 28H317.683L312.787 14.704H316.387L319.747 24.904ZM340.93 21.064C340.93 21.544 340.898 21.976 340.834 22.36H331.114C331.194 23.32 331.53 24.072 332.122 24.616C332.714 25.16 333.442 25.432 334.306 25.432C335.554 25.432 336.442 24.896 336.97 23.824H340.594C340.21 25.104 339.474 26.16 338.386 26.992C337.298 27.808 335.962 28.216 334.378 28.216C333.098 28.216 331.946 27.936 330.922 27.376C329.914 26.8 329.122 25.992 328.546 24.952C327.986 23.912 327.706 22.712 327.706 21.352C327.706 19.976 327.986 18.768 328.546 17.728C329.106 16.688 329.89 15.888 330.898 15.328C331.906 14.768 333.066 14.488 334.378 14.488C335.642 14.488 336.77 14.76 337.762 15.304C338.77 15.848 339.546 16.624 340.09 17.632C340.65 18.624 340.93 19.768 340.93 21.064ZM337.45 20.104C337.434 19.24 337.122 18.552 336.514 18.04C335.906 17.512 335.162 17.248 334.282 17.248C333.45 17.248 332.746 17.504 332.17 18.016C331.61 18.512 331.266 19.208 331.138 20.104H337.45ZM348.471 28.216C347.383 28.216 346.407 28.024 345.543 27.64C344.679 27.24 343.991 26.704 343.479 26.032C342.983 25.36 342.711 24.616 342.663 23.8H346.047C346.111 24.312 346.359 24.736 346.791 25.072C347.239 25.408 347.791 25.576 348.447 25.576C349.087 25.576 349.583 25.448 349.935 25.192C350.303 24.936 350.487 24.608 350.487 24.208C350.487 23.776 350.263 23.456 349.815 23.248C349.383 23.024 348.687 22.784 347.727 22.528C346.735 22.288 345.919 22.04 345.279 21.784C344.655 21.528 344.111 21.136 343.647 20.608C343.199 20.08 342.975 19.368 342.975 18.472C342.975 17.736 343.183 17.064 343.599 16.456C344.031 15.848 344.639 15.368 345.423 15.016C346.223 14.664 347.159 14.488 348.231 14.488C349.815 14.488 351.079 14.888 352.023 15.688C352.967 16.472 353.487 17.536 353.583 18.88H350.367C350.319 18.352 350.095 17.936 349.695 17.632C349.311 17.312 348.791 17.152 348.135 17.152C347.527 17.152 347.055 17.264 346.719 17.488C346.399 17.712 346.239 18.024 346.239 18.424C346.239 18.872 346.463 19.216 346.911 19.456C347.359 19.68 348.055 19.912 348.999 20.152C349.959 20.392 350.751 20.64 351.375 20.896C351.999 21.152 352.535 21.552 352.983 22.096C353.447 22.624 353.687 23.328 353.703 24.208C353.703 24.976 353.487 25.664 353.055 26.272C352.639 26.88 352.031 27.36 351.231 27.712C350.447 28.048 349.527 28.216 348.471 28.216ZM360.373 17.464V23.896C360.373 24.344 360.477 24.672 360.685 24.88C360.909 25.072 361.277 25.168 361.789 25.168H363.349V28H361.237C358.405 28 356.989 26.624 356.989 23.872V17.464H355.405V14.704H356.989V11.416H360.373V14.704H363.349V17.464H360.373ZM367.469 13.12C366.877 13.12 366.381 12.936 365.981 12.568C365.597 12.184 365.405 11.712 365.405 11.152C365.405 10.592 365.597 10.128 365.981 9.76C366.381 9.376 366.877 9.184 367.469 9.184C368.061 9.184 368.549 9.376 368.933 9.76C369.333 10.128 369.533 10.592 369.533 11.152C369.533 11.712 369.333 12.184 368.933 12.568C368.549 12.936 368.061 13.12 367.469 13.12ZM369.125 14.704V28H365.765V14.704H369.125ZM388.957 14.512C390.589 14.512 391.901 15.016 392.893 16.024C393.901 17.016 394.405 18.408 394.405 20.2V28H391.045V20.656C391.045 19.616 390.781 18.824 390.253 18.28C389.725 17.72 389.005 17.44 388.093 17.44C387.181 17.44 386.453 17.72 385.909 18.28C385.381 18.824 385.117 19.616 385.117 20.656V28H381.757V20.656C381.757 19.616 381.493 18.824 380.965 18.28C380.437 17.72 379.717 17.44 378.805 17.44C377.877 17.44 377.141 17.72 376.597 18.28C376.069 18.824 375.805 19.616 375.805 20.656V28H372.445V14.704H375.805V16.312C376.237 15.752 376.789 15.312 377.461 14.992C378.149 14.672 378.901 14.512 379.717 14.512C380.757 14.512 381.685 14.736 382.501 15.184C383.317 15.616 383.949 16.24 384.397 17.056C384.829 16.288 385.453 15.672 386.269 15.208C387.101 14.744 387.997 14.512 388.957 14.512ZM409.954 21.064C409.954 21.544 409.922 21.976 409.858 22.36H400.138C400.218 23.32 400.554 24.072 401.146 24.616C401.738 25.16 402.466 25.432 403.33 25.432C404.578 25.432 405.466 24.896 405.994 23.824H409.618C409.234 25.104 408.498 26.16 407.41 26.992C406.322 27.808 404.986 28.216 403.402 28.216C402.122 28.216 400.97 27.936 399.946 27.376C398.938 26.8 398.146 25.992 397.57 24.952C397.01 23.912 396.729 22.712 396.729 21.352C396.729 19.976 397.01 18.768 397.57 17.728C398.13 16.688 398.914 15.888 399.922 15.328C400.93 14.768 402.09 14.488 403.402 14.488C404.666 14.488 405.794 14.76 406.786 15.304C407.794 15.848 408.57 16.624 409.114 17.632C409.674 18.624 409.954 19.768 409.954 21.064ZM406.474 20.104C406.458 19.24 406.146 18.552 405.538 18.04C404.93 17.512 404.186 17.248 403.306 17.248C402.474 17.248 401.77 17.504 401.194 18.016C400.634 18.512 400.29 19.208 400.162 20.104H406.474ZM419.774 14.512C421.358 14.512 422.638 15.016 423.614 16.024C424.59 17.016 425.078 18.408 425.078 20.2V28H421.718V20.656C421.718 19.6 421.454 18.792 420.926 18.232C420.398 17.656 419.678 17.368 418.766 17.368C417.838 17.368 417.102 17.656 416.558 18.232C416.03 18.792 415.766 19.6 415.766 20.656V28H412.406V14.704H415.766V16.36C416.214 15.784 416.782 15.336 417.47 15.016C418.174 14.68 418.942 14.512 419.774 14.512ZM432.185 17.464V23.896C432.185 24.344 432.289 24.672 432.497 24.88C432.721 25.072 433.089 25.168 433.601 25.168H435.161V28H433.049C430.217 28 428.801 26.624 428.801 23.872V17.464H427.217V14.704H428.801V11.416H432.185V14.704H435.161V17.464H432.185ZM443.482 28.216C442.202 28.216 441.05 27.936 440.026 27.376C439.002 26.8 438.194 25.992 437.602 24.952C437.026 23.912 436.738 22.712 436.738 21.352C436.738 19.992 437.034 18.792 437.626 17.752C438.234 16.712 439.058 15.912 440.098 15.352C441.138 14.776 442.298 14.488 443.578 14.488C444.858 14.488 446.018 14.776 447.058 15.352C448.098 15.912 448.914 16.712 449.506 17.752C450.114 18.792 450.418 19.992 450.418 21.352C450.418 22.712 450.106 23.912 449.482 24.952C448.874 25.992 448.042 26.8 446.986 27.376C445.946 27.936 444.778 28.216 443.482 28.216ZM443.482 25.288C444.09 25.288 444.658 25.144 445.186 24.856C445.73 24.552 446.162 24.104 446.482 23.512C446.802 22.92 446.962 22.2 446.962 21.352C446.962 20.088 446.626 19.12 445.954 18.448C445.298 17.76 444.49 17.416 443.53 17.416C442.57 17.416 441.762 17.76 441.106 18.448C440.466 19.12 440.146 20.088 440.146 21.352C440.146 22.616 440.458 23.592 441.082 24.28C441.722 24.952 442.522 25.288 443.482 25.288Z" fill="#C2C2C2"/>
<g clip-path="url(#clip0_86_646)">
<path d="M264.5 6.75C272.094 6.75 278.25 12.9059 278.25 20.5C278.25 28.0941 272.094 34.25 264.5 34.25C256.906 34.25 250.75 28.0941 250.75 20.5C250.75 12.9059 256.906 6.75 264.5 6.75ZM263.528 15.638L259.638 19.5279C259.38 19.7857 259.235 20.1354 259.235 20.5C259.235 20.8646 259.38 21.2143 259.638 21.4721L263.528 25.362C263.786 25.6198 264.135 25.7646 264.5 25.7646C264.865 25.7646 265.214 25.6198 265.472 25.362L269.362 21.4721C269.62 21.2143 269.764 20.8646 269.764 20.5C269.764 20.1354 269.62 19.7857 269.362 19.5279L265.472 15.638C265.214 15.3802 264.865 15.2354 264.5 15.2354C264.135 15.2354 263.786 15.3802 263.528 15.638Z" fill="#C2C2C2"/>
</g>
<path d="M45.44 26.168C44.272 26.168 43.216 25.968 42.272 25.568C41.344 25.168 40.608 24.592 40.064 23.84C39.52 23.088 39.24 22.2 39.224 21.176H42.824C42.872 21.864 43.112 22.408 43.544 22.808C43.992 23.208 44.6 23.408 45.368 23.408C46.152 23.408 46.768 23.224 47.216 22.856C47.664 22.472 47.888 21.976 47.888 21.368C47.888 20.872 47.736 20.464 47.432 20.144C47.128 19.824 46.744 19.576 46.28 19.4C45.832 19.208 45.208 19 44.408 18.776C43.32 18.456 42.432 18.144 41.744 17.84C41.072 17.52 40.488 17.048 39.992 16.424C39.512 15.784 39.272 14.936 39.272 13.88C39.272 12.888 39.52 12.024 40.016 11.288C40.512 10.552 41.208 9.992 42.104 9.608C43 9.208 44.024 9.008 45.176 9.008C46.904 9.008 48.304 9.432 49.376 10.28C50.464 11.112 51.064 12.28 51.176 13.784H47.48C47.448 13.208 47.2 12.736 46.736 12.368C46.288 11.984 45.688 11.792 44.936 11.792C44.28 11.792 43.752 11.96 43.352 12.296C42.968 12.632 42.776 13.12 42.776 13.76C42.776 14.208 42.92 14.584 43.208 14.888C43.512 15.176 43.88 15.416 44.312 15.608C44.76 15.784 45.384 15.992 46.184 16.232C47.272 16.552 48.16 16.872 48.848 17.192C49.536 17.512 50.128 17.992 50.624 18.632C51.12 19.272 51.368 20.112 51.368 21.152C51.368 22.048 51.136 22.88 50.672 23.648C50.208 24.416 49.528 25.032 48.632 25.496C47.736 25.944 46.672 26.168 45.44 26.168ZM66.641 19.064C66.641 19.544 66.609 19.976 66.545 20.36H56.825C56.905 21.32 57.241 22.072 57.833 22.616C58.425 23.16 59.153 23.432 60.017 23.432C61.265 23.432 62.153 22.896 62.681 21.824H66.305C65.921 23.104 65.185 24.16 64.097 24.992C63.009 25.808 61.673 26.216 60.089 26.216C58.809 26.216 57.657 25.936 56.633 25.376C55.625 24.8 54.833 23.992 54.257 22.952C53.697 21.912 53.417 20.712 53.417 19.352C53.417 17.976 53.697 16.768 54.257 15.728C54.817 14.688 55.601 13.888 56.609 13.328C57.617 12.768 58.777 12.488 60.089 12.488C61.353 12.488 62.481 12.76 63.473 13.304C64.481 13.848 65.257 14.624 65.801 15.632C66.361 16.624 66.641 17.768 66.641 19.064ZM63.161 18.104C63.145 17.24 62.833 16.552 62.225 16.04C61.617 15.512 60.873 15.248 59.993 15.248C59.161 15.248 58.457 15.504 57.881 16.016C57.321 16.512 56.977 17.208 56.849 18.104H63.161ZM74.3015 12.488C75.2935 12.488 76.1655 12.688 76.9175 13.088C77.6695 13.472 78.2615 13.976 78.6935 14.6V12.704H82.0775V26.096C82.0775 27.328 81.8295 28.424 81.3335 29.384C80.8375 30.36 80.0935 31.128 79.1015 31.688C78.1095 32.264 76.9095 32.552 75.5015 32.552C73.6135 32.552 72.0615 32.112 70.8455 31.232C69.6455 30.352 68.9655 29.152 68.8055 27.632H72.1415C72.3175 28.24 72.6935 28.72 73.2695 29.072C73.8615 29.44 74.5735 29.624 75.4055 29.624C76.3815 29.624 77.1735 29.328 77.7815 28.736C78.3895 28.16 78.6935 27.28 78.6935 26.096V24.032C78.2615 24.656 77.6615 25.176 76.8935 25.592C76.1415 26.008 75.2775 26.216 74.3015 26.216C73.1815 26.216 72.1575 25.928 71.2295 25.352C70.3015 24.776 69.5655 23.968 69.0215 22.928C68.4935 21.872 68.2295 20.664 68.2295 19.304C68.2295 17.96 68.4935 16.768 69.0215 15.728C69.5655 14.688 70.2935 13.888 71.2055 13.328C72.1335 12.768 73.1655 12.488 74.3015 12.488ZM78.6935 19.352C78.6935 18.536 78.5335 17.84 78.2135 17.264C77.8935 16.672 77.4615 16.224 76.9175 15.92C76.3735 15.6 75.7895 15.44 75.1655 15.44C74.5415 15.44 73.9655 15.592 73.4375 15.896C72.9095 16.2 72.4775 16.648 72.1415 17.24C71.8215 17.816 71.6615 18.504 71.6615 19.304C71.6615 20.104 71.8215 20.808 72.1415 21.416C72.4775 22.008 72.9095 22.464 73.4375 22.784C73.9815 23.104 74.5575 23.264 75.1655 23.264C75.7895 23.264 76.3735 23.112 76.9175 22.808C77.4615 22.488 77.8935 22.04 78.2135 21.464C78.5335 20.872 78.6935 20.168 78.6935 19.352ZM97.9111 12.704V26H94.5271V24.32C94.0951 24.896 93.5271 25.352 92.8231 25.688C92.1351 26.008 91.3831 26.168 90.5671 26.168C89.5271 26.168 88.6071 25.952 87.8071 25.52C87.0071 25.072 86.3751 24.424 85.9111 23.576C85.4631 22.712 85.2391 21.688 85.2391 20.504V12.704H88.5991V20.024C88.5991 21.08 88.8631 21.896 89.3911 22.472C89.9191 23.032 90.6391 23.312 91.5511 23.312C92.4791 23.312 93.2071 23.032 93.7351 22.472C94.2631 21.896 94.5271 21.08 94.5271 20.024V12.704H97.9111ZM104.586 14.768C105.018 14.064 105.578 13.512 106.266 13.112C106.97 12.712 107.77 12.512 108.666 12.512V16.04H107.778C106.722 16.04 105.922 16.288 105.378 16.784C104.85 17.28 104.586 18.144 104.586 19.376V26H101.226V12.704H104.586V14.768ZM110.065 19.304C110.065 17.96 110.329 16.768 110.857 15.728C111.401 14.688 112.129 13.888 113.041 13.328C113.969 12.768 115.001 12.488 116.137 12.488C117.129 12.488 117.993 12.688 118.729 13.088C119.481 13.488 120.081 13.992 120.529 14.6V12.704H123.913V26H120.529V24.056C120.097 24.68 119.497 25.2 118.729 25.616C117.977 26.016 117.105 26.216 116.113 26.216C114.993 26.216 113.969 25.928 113.041 25.352C112.129 24.776 111.401 23.968 110.857 22.928C110.329 21.872 110.065 20.664 110.065 19.304ZM120.529 19.352C120.529 18.536 120.369 17.84 120.049 17.264C119.729 16.672 119.297 16.224 118.753 15.92C118.209 15.6 117.625 15.44 117.001 15.44C116.377 15.44 115.801 15.592 115.273 15.896C114.745 16.2 114.313 16.648 113.977 17.24C113.657 17.816 113.497 18.504 113.497 19.304C113.497 20.104 113.657 20.808 113.977 21.416C114.313 22.008 114.745 22.464 115.273 22.784C115.817 23.104 116.393 23.264 117.001 23.264C117.625 23.264 118.209 23.112 118.753 22.808C119.297 22.488 119.729 22.04 120.049 21.464C120.369 20.872 120.529 20.168 120.529 19.352ZM134.563 12.512C136.147 12.512 137.427 13.016 138.403 14.024C139.379 15.016 139.867 16.408 139.867 18.2V26H136.507V18.656C136.507 17.6 136.243 16.792 135.715 16.232C135.187 15.656 134.467 15.368 133.555 15.368C132.627 15.368 131.891 15.656 131.347 16.232C130.819 16.792 130.555 17.6 130.555 18.656V26H127.195V12.704H130.555V14.36C131.003 13.784 131.571 13.336 132.259 13.016C132.963 12.68 133.731 12.512 134.563 12.512ZM148.75 23.336C150.11 23.336 150.998 22.728 151.414 21.512H155.038C154.702 22.808 154.078 23.864 153.166 24.68C152.27 25.496 151.142 25.984 149.782 26.144V27.08C150.662 27.08 151.398 27.304 151.99 27.752C152.598 28.2 152.902 28.848 152.902 29.696C152.902 30.56 152.59 31.224 151.966 31.688C151.358 32.152 150.606 32.384 149.71 32.384H146.302V30.416H149.158C149.542 30.416 149.83 30.36 150.022 30.248C150.23 30.136 150.334 29.936 150.334 29.648C150.334 29.36 150.23 29.16 150.022 29.048C149.83 28.952 149.542 28.904 149.158 28.904H147.67V26.144C146.582 25.984 145.622 25.608 144.79 25.016C143.974 24.408 143.334 23.624 142.87 22.664C142.422 21.688 142.198 20.584 142.198 19.352C142.198 17.976 142.478 16.776 143.038 15.752C143.598 14.712 144.374 13.912 145.366 13.352C146.358 12.776 147.494 12.488 148.774 12.488C150.422 12.488 151.782 12.904 152.854 13.736C153.942 14.552 154.67 15.704 155.038 17.192H151.414C151.222 16.616 150.894 16.168 150.43 15.848C149.982 15.512 149.422 15.344 148.75 15.344C147.79 15.344 147.03 15.696 146.47 16.4C145.91 17.088 145.63 18.072 145.63 19.352C145.63 20.616 145.91 21.6 146.47 22.304C147.03 22.992 147.79 23.336 148.75 23.336ZM156.636 19.304C156.636 17.96 156.9 16.768 157.428 15.728C157.972 14.688 158.7 13.888 159.612 13.328C160.54 12.768 161.572 12.488 162.708 12.488C163.7 12.488 164.564 12.688 165.3 13.088C166.052 13.488 166.652 13.992 167.1 14.6V12.704H170.484V26H167.1V24.056C166.668 24.68 166.068 25.2 165.3 25.616C164.548 26.016 163.676 26.216 162.684 26.216C161.564 26.216 160.54 25.928 159.612 25.352C158.7 24.776 157.972 23.968 157.428 22.928C156.9 21.872 156.636 20.664 156.636 19.304ZM167.1 19.352C167.1 18.536 166.94 17.84 166.62 17.264C166.3 16.672 165.868 16.224 165.324 15.92C164.78 15.6 164.196 15.44 163.572 15.44C162.948 15.44 162.372 15.592 161.844 15.896C161.316 16.2 160.884 16.648 160.548 17.24C160.228 17.816 160.068 18.504 160.068 19.304C160.068 20.104 160.228 20.808 160.548 21.416C160.884 22.008 161.316 22.464 161.844 22.784C162.388 23.104 162.964 23.264 163.572 23.264C164.196 23.264 164.78 23.112 165.324 22.808C165.868 22.488 166.3 22.04 166.62 21.464C166.94 20.872 167.1 20.168 167.1 19.352Z" fill="#C2C2C2"/>
<path d="M27.2689 7.80153C27.1566 7.67324 27.019 7.56952 26.8647 7.49685C26.7104 7.42419 26.5428 7.38414 26.3724 7.37922C23.7243 7.30999 20.3735 4.47845 18.1582 3.3673C16.7897 2.68307 15.8862 2.23191 15.2078 2.11307C15.07 2.09299 14.93 2.09338 14.7924 2.11422C14.1139 2.23307 13.2105 2.68422 11.8432 3.36845C9.62777 4.47845 6.277 7.30999 3.62893 7.37922C3.45836 7.3844 3.29066 7.42455 3.13625 7.49719C2.98183 7.56984 2.84398 7.67342 2.73124 7.80153C2.49755 8.06591 2.37698 8.41146 2.39547 8.76384C2.96431 20.3288 7.11239 27.4861 14.3909 31.6458C14.5801 31.7531 14.7901 31.8085 14.9989 31.8085C15.2078 31.8085 15.4178 31.7531 15.6082 31.6458C22.8866 27.4861 27.0335 20.3288 27.6035 8.76384C27.6231 8.41152 27.5029 8.06571 27.2689 7.80153ZM21.4812 12.35L15.3393 21.4135C15.1189 21.7388 14.7728 21.9546 14.4301 21.9546C14.0862 21.9546 13.7043 21.7665 13.4632 21.5254L9.13393 17.195C8.99258 17.0531 8.91322 16.861 8.91322 16.6608C8.91322 16.4605 8.99258 16.2684 9.13393 16.1265L10.2035 15.0546C10.3457 14.9138 10.5377 14.8348 10.7378 14.8348C10.9379 14.8348 11.1298 14.9138 11.272 15.0546L14.0874 17.87L18.9785 10.6504C19.0917 10.4852 19.2656 10.3714 19.4624 10.334C19.6591 10.2966 19.8626 10.3386 20.0285 10.4508L21.2805 11.3C21.4459 11.413 21.5598 11.5868 21.5974 11.7836C21.6351 11.9803 21.5933 12.184 21.4812 12.35Z" fill="#C2C2C2"/>
<defs>
<clipPath id="clip0_86_646">
<rect width="33" height="33" fill="white" transform="translate(248 4)"/>
</clipPath>
</defs>
</svg>
