<svg width="20" height="20" viewBox="0 0 20 20" fill="none" xmlns="http://www.w3.org/2000/svg">
<path d="M19.8311 5.45607L19.8311 5.45613L19.8347 5.45226C20.0268 5.2461 20.1314 4.97344 20.1264 4.6917C20.1215 4.40996 20.0073 4.14116 19.8081 3.94191C19.6088 3.74266 19.34 3.62853 19.0583 3.62355C18.7766 3.61858 18.5039 3.72316 18.2977 3.91526L18.2977 3.91519L18.2939 3.91893L12.5 9.71287L9.51857 6.73143L9.5185 6.73137C9.31459 6.52771 9.03819 6.41332 8.75 6.41332C8.46181 6.41332 8.18541 6.52771 7.9815 6.73137L7.98143 6.73143L3.91893 10.7939L3.91887 10.7939L3.91526 10.7977C3.72316 11.0039 3.61858 11.2766 3.62355 11.5583C3.62853 11.84 3.74266 12.1088 3.94191 12.3081C4.14116 12.5073 4.40996 12.6215 4.6917 12.6264C4.97344 12.6314 5.24611 12.5268 5.45226 12.3347L5.45232 12.3348L5.45607 12.3311L8.75 9.03713L11.7314 12.0186L11.7315 12.0186C11.9354 12.2223 12.2118 12.3367 12.5 12.3367C12.7882 12.3367 13.0646 12.2223 13.2685 12.0186L13.2686 12.0186L19.8311 5.45607ZM2.025 2.1875C2.025 1.89908 1.91042 1.62247 1.70648 1.41852C1.50253 1.21458 1.22592 1.1 0.9375 1.1C0.649077 1.1 0.372467 1.21458 0.168521 1.41852C-0.0354244 1.62247 -0.15 1.89908 -0.15 2.1875V17.8125C-0.15 18.4128 0.337157 18.9 0.9375 18.9H19.0625C19.3509 18.9 19.6275 18.7854 19.8315 18.5815C20.0354 18.3775 20.15 18.1009 20.15 17.8125C20.15 17.5241 20.0354 17.2475 19.8315 17.0435C19.6275 16.8396 19.3509 16.725 19.0625 16.725H2.025V2.1875Z" fill="black" stroke="black" stroke-width="0.3"/>
</svg>
