<svg width="21" height="22" viewBox="0 0 21 22" fill="none" xmlns="http://www.w3.org/2000/svg">
<path d="M8.59375 3.125H11.7188C11.7188 2.7106 11.5541 2.31317 11.2611 2.02015C10.9681 1.72712 10.5707 1.5625 10.1562 1.5625C9.74185 1.5625 9.34442 1.72712 9.0514 2.02015C8.75837 2.31317 8.59375 2.7106 8.59375 3.125ZM7.03125 3.125C7.03125 2.2962 7.36049 1.50134 7.94654 0.915291C8.53259 0.32924 9.32745 0 10.1562 0C10.9851 0 11.7799 0.32924 12.366 0.915291C12.952 1.50134 13.2812 2.2962 13.2812 3.125H19.5312C19.7385 3.125 19.9372 3.20731 20.0837 3.35382C20.2302 3.50034 20.3125 3.69905 20.3125 3.90625C20.3125 4.11345 20.2302 4.31216 20.0837 4.45868C19.9372 4.60519 19.7385 4.6875 19.5312 4.6875H18.65L16.7672 18.4969C16.6395 19.4327 16.177 20.2906 15.4655 20.9117C14.7539 21.5328 13.8414 21.875 12.8969 21.875H7.41562C6.47112 21.875 5.55861 21.5328 4.84703 20.9117C4.13546 20.2906 3.67301 19.4327 3.54531 18.4969L1.6625 4.6875H0.78125C0.57405 4.6875 0.375336 4.60519 0.228823 4.45868C0.08231 4.31216 0 4.11345 0 3.90625C0 3.69905 0.08231 3.50034 0.228823 3.35382C0.375336 3.20731 0.57405 3.125 0.78125 3.125H7.03125ZM8.59375 8.59375C8.59375 8.38655 8.51144 8.18784 8.36493 8.04132C8.21841 7.89481 8.0197 7.8125 7.8125 7.8125C7.6053 7.8125 7.40659 7.89481 7.26007 8.04132C7.11356 8.18784 7.03125 8.38655 7.03125 8.59375V16.4062C7.03125 16.6135 7.11356 16.8122 7.26007 16.9587C7.40659 17.1052 7.6053 17.1875 7.8125 17.1875C8.0197 17.1875 8.21841 17.1052 8.36493 16.9587C8.51144 16.8122 8.59375 16.6135 8.59375 16.4062V8.59375ZM12.5 7.8125C12.7072 7.8125 12.9059 7.89481 13.0524 8.04132C13.1989 8.18784 13.2812 8.38655 13.2812 8.59375V16.4062C13.2812 16.6135 13.1989 16.8122 13.0524 16.9587C12.9059 17.1052 12.7072 17.1875 12.5 17.1875C12.2928 17.1875 12.0941 17.1052 11.9476 16.9587C11.8011 16.8122 11.7188 16.6135 11.7188 16.4062V8.59375C11.7188 8.38655 11.8011 8.18784 11.9476 8.04132C12.0941 7.89481 12.2928 7.8125 12.5 7.8125ZM5.09375 18.2859C5.17043 18.8473 5.44788 19.3619 5.87476 19.7345C6.30163 20.1071 6.84902 20.3124 7.41562 20.3125H12.8969C13.4637 20.3128 14.0115 20.1076 14.4387 19.735C14.8659 19.3624 15.1436 18.8476 15.2203 18.2859L17.0734 4.6875H3.23906L5.09375 18.2859Z" fill="white"/>
</svg>
