<svg width="41" height="41" viewBox="0 0 41 41" fill="none" xmlns="http://www.w3.org/2000/svg">
<rect width="41" height="41" rx="14" fill="black"/>
<path d="M29 28C30.1 28 30.99 27.1 30.99 26L31 16C31 14.9 30.1 14 29 14H13C11.9 14 11 14.9 11 16V26C11 27.1 11.9 28 13 28H10C9.45 28 9 28.45 9 29C9 29.55 9.45 30 10 30H32C32.55 30 33 29.55 33 29C33 28.45 32.55 28 32 28H29ZM14 16H28C28.55 16 29 16.45 29 17V25C29 25.55 28.55 26 28 26H14C13.45 26 13 25.55 13 25V17C13 16.45 13.45 16 14 16Z" fill="white"/>
</svg>
