<svg width="33" height="33" viewBox="0 0 33 33" fill="none" xmlns="http://www.w3.org/2000/svg">
<g clip-path="url(#clip0_73_350)">
<path d="M16.5 2.75C24.0941 2.75 30.25 8.90588 30.25 16.5C30.25 24.0941 24.0941 30.25 16.5 30.25C8.90588 30.25 2.75 24.0941 2.75 16.5C2.75 8.90588 8.90588 2.75 16.5 2.75ZM15.5279 11.638L11.638 15.5279C11.3802 15.7857 11.2354 16.1354 11.2354 16.5C11.2354 16.8646 11.3802 17.2143 11.638 17.4721L15.5279 21.362C15.7857 21.6198 16.1354 21.7646 16.5 21.7646C16.8646 21.7646 17.2143 21.6198 17.4721 21.362L21.362 17.4721C21.6198 17.2143 21.7646 16.8646 21.7646 16.5C21.7646 16.1354 21.6198 15.7857 21.362 15.5279L17.4721 11.638C17.2143 11.3802 16.8646 11.2354 16.5 11.2354C16.1354 11.2354 15.7857 11.3802 15.5279 11.638Z" fill="#C2C2C2"/>
</g>
<defs>
<clipPath id="clip0_73_350">
<rect width="33" height="33" fill="white"/>
</clipPath>
</defs>
</svg>
