<svg width="31" height="31" viewBox="0 0 31 31" fill="none" xmlns="http://www.w3.org/2000/svg">
<path d="M22.4503 13.745C23.1671 20.4515 25.9859 22.479 25.9859 22.479H3.78052C3.78052 22.479 7.48142 19.8176 7.48142 10.5009C7.48142 8.38353 8.26107 6.35224 9.64891 4.85498C11.038 3.35771 12.9217 2.5155 14.8832 2.5155C15.2989 2.5155 15.7122 2.55293 16.1168 2.6278M19.6586 23.439C19.4419 23.8174 17.7649 25.8669 17.3903 26.0853C17.0157 26.3037 15.1763 26.8414 14.7439 26.8414C14.3115 26.8414 12.4722 25.9257 12.0976 25.7073C11.723 25.4888 10.802 23.8174 10.5854 23.439M23.5186 10.0018C24.5002 10.0018 25.4415 9.60746 26.1356 8.90548C26.8296 8.2035 27.2195 7.25141 27.2195 6.25866C27.2195 5.26592 26.8296 4.31383 26.1356 3.61185C25.4415 2.90987 24.5002 2.5155 23.5186 2.5155C22.5371 2.5155 21.5958 2.90987 20.9017 3.61185C20.2077 4.31383 19.8177 5.26592 19.8177 6.25866C19.8177 7.25141 20.2077 8.2035 20.9017 8.90548C21.5958 9.60746 22.5371 10.0018 23.5186 10.0018Z" stroke="black" stroke-width="3" stroke-linecap="round" stroke-linejoin="round"/>
</svg>
