<svg width="25" height="25" viewBox="0 0 25 25" fill="none" xmlns="http://www.w3.org/2000/svg">
<path d="M22.1426 11.4188C22.6364 12.0646 22.6364 12.9365 22.1426 13.5813C20.5874 15.6115 16.8562 19.7917 12.4999 19.7917C8.14366 19.7917 4.41241 15.6115 2.8572 13.5813C2.61698 13.272 2.48657 12.8916 2.48657 12.5C2.48657 12.1084 2.61698 11.728 2.8572 11.4188C4.41241 9.38855 8.14366 5.20834 12.4999 5.20834C16.8562 5.20834 20.5874 9.38855 22.1426 11.4188V11.4188Z" stroke="black" stroke-width="2.5" stroke-linecap="round" stroke-linejoin="round"/>
<path d="M12.5 15.625C14.2259 15.625 15.625 14.2259 15.625 12.5C15.625 10.7741 14.2259 9.375 12.5 9.375C10.7741 9.375 9.375 10.7741 9.375 12.5C9.375 14.2259 10.7741 15.625 12.5 15.625Z" stroke="black" stroke-width="2.5" stroke-linecap="round" stroke-linejoin="round"/>
</svg>
