<svg width="26" height="26" viewBox="0 0 26 26" fill="none" xmlns="http://www.w3.org/2000/svg">
<g clip-path="url(#clip0_305_54)">
<path d="M15.25 14.5V10.75H19V8.25L24 12.625L19 17V14.5H15.25ZM14 6.625V8.25H-1V6.625L6.5 2L14 6.625ZM5.25 9.5H7.75V15.75H5.25V9.5ZM0.25 9.5H2.75V15.75H0.25V9.5ZM12.75 9.5V12.625L10.25 14.875V9.5H12.75ZM7.875 17L7.125 17.625L9.25 19.5H-1V17H7.875ZM17.75 15.75V19.5H14V22L9 17.625L14 13.25V15.75H17.75Z" fill="black"/>
</g>
<defs>
<clipPath id="clip0_305_54">
<rect width="26" height="26" fill="white"/>
</clipPath>
</defs>
</svg>
