<svg width="19" height="19" viewBox="0 0 19 19" fill="none" xmlns="http://www.w3.org/2000/svg">
<path d="M18.6024 0.397643C18.8568 0.652145 18.9997 0.997277 18.9997 1.35714C18.9997 1.71701 18.8568 2.06214 18.6024 2.31664L2.31664 18.6024C2.06068 18.8496 1.71787 18.9864 1.36203 18.9833C1.00619 18.9802 0.6658 18.8375 0.414175 18.5858C0.16255 18.3342 0.01982 17.9938 0.0167278 17.638C0.0136357 17.2821 0.150429 16.9393 0.397643 16.6834L16.6834 0.397643C16.9379 0.143218 17.283 0.000289917 17.6429 0.000289917C18.0027 0.000289917 18.3479 0.143218 18.6024 0.397643ZM16.2857 19C17.0056 19 17.696 18.714 18.205 18.205C18.714 17.696 19 17.0056 19 16.2857C19 15.5658 18.714 14.8755 18.205 14.3664C17.696 13.8574 17.0056 13.5714 16.2857 13.5714C15.5658 13.5714 14.8755 13.8574 14.3664 14.3664C13.8574 14.8755 13.5714 15.5658 13.5714 16.2857C13.5714 17.0056 13.8574 17.696 14.3664 18.205C14.8755 18.714 15.5658 19 16.2857 19ZM2.71429 5.42857C3.43416 5.42857 4.12455 5.1426 4.63357 4.63357C5.1426 4.12455 5.42857 3.43416 5.42857 2.71429C5.42857 1.99441 5.1426 1.30402 4.63357 0.794996C4.12455 0.285968 3.43416 0 2.71429 0C1.99441 0 1.30402 0.285968 0.794996 0.794996C0.285968 1.30402 0 1.99441 0 2.71429C0 3.43416 0.285968 4.12455 0.794996 4.63357C1.30402 5.1426 1.99441 5.42857 2.71429 5.42857Z" fill="white"/>
</svg>
