<svg width="50" height="50" viewBox="0 0 50 50" fill="none" xmlns="http://www.w3.org/2000/svg">
<path d="M35.4168 28.125C35.4168 27.2962 35.0875 26.5013 34.5015 25.9153C33.9154 25.3292 33.1206 25 32.2918 25H17.7084C16.8796 25 16.0848 25.3292 15.4987 25.9153C14.9127 26.5013 14.5834 27.2962 14.5834 28.125V29.1666C14.5834 33.2729 18.4584 37.5 25.0001 37.5C31.5418 37.5 35.4168 33.2729 35.4168 29.1666V28.125ZM30.7293 17.1875C30.7293 15.668 30.1256 14.2108 29.0512 13.1363C27.9768 12.0619 26.5196 11.4583 25.0001 11.4583C23.4806 11.4583 22.0234 12.0619 20.9489 13.1363C19.8745 14.2108 19.2709 15.668 19.2709 17.1875C19.2709 18.7069 19.8745 20.1642 20.9489 21.2386C22.0234 22.313 23.4806 22.9166 25.0001 22.9166C26.5196 22.9166 27.9768 22.313 29.0512 21.2386C30.1256 20.1642 30.7293 18.7069 30.7293 17.1875ZM45.8334 25C45.8334 36.5062 36.5063 45.8333 25.0001 45.8333C13.4938 45.8333 4.16675 36.5062 4.16675 25C4.16675 13.4937 13.4938 4.16663 25.0001 4.16663C36.5063 4.16663 45.8334 13.4937 45.8334 25ZM42.7084 25C42.7084 20.3034 40.8427 15.7992 37.5218 12.4783C34.2008 9.15732 29.6966 7.29163 25.0001 7.29163C20.3035 7.29163 15.7994 9.15732 12.4784 12.4783C9.15744 15.7992 7.29175 20.3034 7.29175 25C7.29175 29.6965 9.15744 34.2007 12.4784 37.5216C15.7994 40.8426 20.3035 42.7083 25.0001 42.7083C29.6966 42.7083 34.2008 40.8426 37.5218 37.5216C40.8427 34.2007 42.7084 29.6965 42.7084 25V25Z" fill="black"/>
</svg>
