<svg width="21" height="19" viewBox="0 0 21 19" fill="none" xmlns="http://www.w3.org/2000/svg">
<g clip-path="url(#clip0_86_486)">
<path d="M10.0778 10.8259C10.283 10.6384 10.6365 10.6384 10.8417 10.8259L13.7683 13.4999C14.308 13.993 15.0263 14.2639 15.7864 14.2639H16.3603L12.6699 17.6359C11.5183 18.6603 9.64833 18.6603 8.49673 17.6359L4.79107 14.2535H5.14453C5.90467 14.2535 6.62299 13.9826 7.16269 13.4895L10.0778 10.8259ZM10.8417 8.27004C10.5985 8.46104 10.2868 8.46451 10.0778 8.27004L7.16269 5.60649C6.62299 5.08211 5.90467 4.8425 5.14453 4.8425H4.79107L8.49293 1.45871C9.64833 0.404887 11.5183 0.404887 12.6699 1.45871L16.3641 4.83208H15.7864C15.0263 4.83208 14.308 5.10295 13.7683 5.59607L10.8417 8.27004ZM5.14453 5.62385C5.66902 5.62385 6.15171 5.81832 6.55458 6.15865L9.4697 8.8222C9.74335 9.04098 10.1006 9.19725 10.4617 9.19725C10.8189 9.19725 11.1762 9.04098 11.4499 8.8222L14.3764 6.14823C14.7488 5.81138 15.2619 5.61691 15.7864 5.61691H17.2193L19.4351 7.64149C20.5867 8.69371 20.5867 10.4023 19.4351 11.4545L17.2193 13.4791H15.7864C15.2619 13.4791 14.7488 13.2846 14.3764 12.9443L11.4499 10.2703C10.9216 9.78761 9.99799 9.78761 9.4697 10.2738L6.55458 12.9339C6.15171 13.2742 5.66902 13.4687 5.14453 13.4687H3.93516L1.73 11.4545C0.576652 10.4023 0.576652 8.69371 1.73 7.64149L3.93516 5.62385H5.14453Z" fill="black"/>
</g>
<defs>
<clipPath id="clip0_86_486">
<rect width="19.4595" height="17.7802" fill="white" transform="translate(0.864746 0.668091)"/>
</clipPath>
</defs>
</svg>
