<svg width="52" height="52" viewBox="0 0 52 52" fill="none" xmlns="http://www.w3.org/2000/svg">
<path d="M32.059 21.6667V15.1667H38.5373V10.8333L47.175 18.4167L38.5373 26V21.6667H32.059ZM29.8996 8.01667V10.8333H3.98657V8.01667L16.9431 0L29.8996 8.01667ZM14.7837 13H19.1025V23.8333H14.7837V13ZM6.14599 13H10.4648V23.8333H6.14599V13ZM27.7402 13V18.4167L23.4214 22.3167V13H27.7402ZM19.3185 26L18.0228 27.0833L21.6938 30.3333H3.98657V26H19.3185ZM36.3779 23.8333V30.3333H29.8996V34.6667L21.2619 27.0833L29.8996 19.5V23.8333H36.3779Z" fill="black"/>
</svg>
