<svg width="35" height="35" viewBox="0 0 35 35" fill="none" xmlns="http://www.w3.org/2000/svg">
<path d="M17.5001 2.91667C14.6158 2.91667 11.7962 3.77197 9.39802 5.3744C6.99981 6.97684 5.13062 9.25445 4.02684 11.9192C2.92307 14.584 2.63427 17.5162 3.19697 20.3451C3.75967 23.174 5.1486 25.7725 7.18811 27.812C9.22763 29.8515 11.8261 31.2404 14.655 31.8031C17.4839 32.3658 20.4161 32.077 23.0809 30.9732C25.7456 29.8695 28.0233 28.0003 29.6257 25.6021C31.2281 23.2039 32.0834 20.3843 32.0834 17.5C32.0834 15.5849 31.7062 13.6885 30.9733 11.9192C30.2405 10.1499 29.1663 8.54222 27.8121 7.18803C26.4579 5.83384 24.8502 4.75964 23.0809 4.02676C21.3116 3.29388 19.4152 2.91667 17.5001 2.91667ZM17.5001 29.1667C15.1926 29.1667 12.937 28.4824 11.0184 27.2005C9.09986 25.9185 7.60452 24.0964 6.72149 21.9646C5.83847 19.8328 5.60743 17.4871 6.05759 15.2239C6.50775 12.9608 7.6189 10.882 9.25051 9.25042C10.8821 7.61881 12.9609 6.50767 15.224 6.05751C17.4871 5.60735 19.8329 5.83839 21.9647 6.72141C24.0965 7.60443 25.9186 9.09978 27.2006 11.0183C28.4825 12.9369 29.1668 15.1926 29.1668 17.5C29.1668 20.5942 27.9376 23.5617 25.7497 25.7496C23.5617 27.9375 20.5943 29.1667 17.5001 29.1667Z" fill="#C2C2C2"/>
<path d="M17.5001 16.0417C14.5834 16.0417 14.5834 15.1229 14.5834 14.5833C14.5834 14.0438 15.6042 13.125 17.5001 13.125C19.3959 13.125 19.5272 14.0583 19.5417 14.5833H22.4584C22.4387 13.5899 22.0814 12.6327 21.4452 11.8693C20.8091 11.1059 19.9321 10.5819 18.9584 10.3833V8.75H16.0417V10.3396C13.1251 10.8208 11.6667 12.7021 11.6667 14.5833C11.6667 16.2167 12.4251 18.9583 17.5001 18.9583C20.4167 18.9583 20.4167 19.95 20.4167 20.4167C20.4167 20.8833 19.5126 21.875 17.5001 21.875C14.8167 21.875 14.5834 20.6208 14.5834 20.4167H11.6667C11.6667 21.7583 12.6292 24.1354 16.0417 24.675V26.25H18.9584V24.675C21.8751 24.1792 23.3334 22.2979 23.3334 20.4167C23.3334 18.7833 22.5751 16.0417 17.5001 16.0417Z" fill="#C2C2C2"/>
</svg>
