<svg width="21" height="20" viewBox="0 0 21 20" fill="none" xmlns="http://www.w3.org/2000/svg">
<path d="M0.162109 1.26076C0.162109 1.10358 0.230449 0.952828 0.352094 0.841681C0.473739 0.730533 0.638726 0.668091 0.810758 0.668091H4.70265C4.87468 0.668091 5.03967 0.730533 5.16131 0.841681C5.28296 0.952828 5.3513 1.10358 5.3513 1.26076C5.3513 1.41795 5.28296 1.5687 5.16131 1.67985C5.03967 1.79099 4.87468 1.85344 4.70265 1.85344H1.45941V4.8168C1.45941 4.97398 1.39107 5.12473 1.26942 5.23588C1.14778 5.34703 0.98279 5.40947 0.810758 5.40947C0.638726 5.40947 0.473739 5.34703 0.352094 5.23588C0.230449 5.12473 0.162109 4.97398 0.162109 4.8168V1.26076ZM15.7297 1.26076C15.7297 1.10358 15.798 0.952828 15.9197 0.841681C16.0413 0.730533 16.2063 0.668091 16.3783 0.668091H20.2702C20.4422 0.668091 20.6072 0.730533 20.7289 0.841681C20.8505 0.952828 20.9189 1.10358 20.9189 1.26076V4.8168C20.9189 4.97398 20.8505 5.12473 20.7289 5.23588C20.6072 5.34703 20.4422 5.40947 20.2702 5.40947C20.0982 5.40947 19.9332 5.34703 19.8116 5.23588C19.6899 5.12473 19.6216 4.97398 19.6216 4.8168V1.85344H16.3783C16.2063 1.85344 16.0413 1.79099 15.9197 1.67985C15.798 1.5687 15.7297 1.41795 15.7297 1.26076V1.26076ZM0.810758 14.8922C0.98279 14.8922 1.14778 14.9547 1.26942 15.0658C1.39107 15.177 1.45941 15.3277 1.45941 15.4849V18.4483H4.70265C4.87468 18.4483 5.03967 18.5107 5.16131 18.6219C5.28296 18.733 5.3513 18.8837 5.3513 19.0409C5.3513 19.1981 5.28296 19.3489 5.16131 19.46C5.03967 19.5712 4.87468 19.6336 4.70265 19.6336H0.810758C0.638726 19.6336 0.473739 19.5712 0.352094 19.46C0.230449 19.3489 0.162109 19.1981 0.162109 19.0409V15.4849C0.162109 15.3277 0.230449 15.177 0.352094 15.0658C0.473739 14.9547 0.638726 14.8922 0.810758 14.8922V14.8922ZM20.2702 14.8922C20.4422 14.8922 20.6072 14.9547 20.7289 15.0658C20.8505 15.177 20.9189 15.3277 20.9189 15.4849V19.0409C20.9189 19.1981 20.8505 19.3489 20.7289 19.46C20.6072 19.5712 20.4422 19.6336 20.2702 19.6336H16.3783C16.2063 19.6336 16.0413 19.5712 15.9197 19.46C15.798 19.3489 15.7297 19.1981 15.7297 19.0409C15.7297 18.8837 15.798 18.733 15.9197 18.6219C16.0413 18.5107 16.2063 18.4483 16.3783 18.4483H19.6216V15.4849C19.6216 15.3277 19.6899 15.177 19.8116 15.0658C19.9332 14.9547 20.0982 14.8922 20.2702 14.8922ZM5.3513 5.40947H6.6486V6.59481H5.3513V5.40947Z" fill="black"/>
<path d="M9.24332 3.03879H2.75684V8.96551H9.24332V3.03879ZM4.05413 4.22413H7.94602V7.78017H4.05413V4.22413ZM6.64873 13.7069H5.35143V14.8922H6.64873V13.7069Z" fill="black"/>
<path d="M9.24332 11.3362H2.75684V17.2629H9.24332V11.3362ZM4.05413 12.5216H7.94602V16.0776H4.05413V12.5216ZM14.4325 5.40948H15.7298V6.59483H14.4325V5.40948Z" fill="black"/>
<path d="M11.8378 3.03879H18.3243V8.96551H11.8378V3.03879ZM13.1351 4.22413V7.78017H17.027V4.22413H13.1351ZM10.5405 10.1509V12.5215H11.8378V13.7069H10.5405V14.8922H13.1351V12.5215H14.4324V14.8922H15.7297V13.7069H18.3243V12.5215H14.4324V10.1509H10.5405ZM13.1351 12.5215H11.8378V11.3362H13.1351V12.5215ZM18.3243 14.8922H17.027V16.0776H14.4324V17.2629H18.3243V14.8922ZM13.1351 17.2629V16.0776H10.5405V17.2629H13.1351Z" fill="black"/>
<path d="M15.7297 11.3362H18.3243V10.1509H15.7297V11.3362Z" fill="black"/>
</svg>
