<svg width="37" height="37" viewBox="0 0 37 37" fill="none" xmlns="http://www.w3.org/2000/svg">
<path d="M18.4999 31.08C11.5439 31.08 5.91992 25.456 5.91992 18.5C5.91992 11.544 11.5439 5.92 18.4999 5.92C25.4559 5.92 31.0799 11.544 31.0799 18.5C31.0799 25.456 25.4559 31.08 18.4999 31.08ZM18.4999 7.4C12.3579 7.4 7.39992 12.358 7.39992 18.5C7.39992 24.642 12.3579 29.6 18.4999 29.6C24.6419 29.6 29.5999 24.642 29.5999 18.5C29.5999 12.358 24.6419 7.4 18.4999 7.4Z" fill="black"/>
<path d="M14.652 14.504C14.874 13.912 15.096 13.468 15.54 13.098C15.91 12.728 16.354 12.432 16.946 12.21C17.538 11.988 18.13 11.914 18.796 11.914C19.314 11.914 19.832 11.988 20.276 12.136C20.72 12.284 21.164 12.506 21.534 12.802C21.904 13.098 22.2 13.468 22.348 13.912C22.57 14.356 22.644 14.874 22.644 15.392C22.644 16.132 22.496 16.724 22.2 17.242C21.904 17.76 21.46 18.204 21.016 18.722L20.054 19.684C19.832 19.906 19.61 20.128 19.536 20.35C19.388 20.572 19.314 20.868 19.314 21.164C19.24 21.46 19.24 21.682 19.24 22.274H18.056C18.056 21.682 18.056 21.46 18.13 21.016C18.204 20.646 18.352 20.276 18.5 19.906C18.648 19.61 18.87 19.314 19.166 19.018C19.462 18.722 19.832 18.426 20.202 17.982C20.572 17.612 20.868 17.242 21.09 16.872C21.312 16.502 21.46 15.984 21.46 15.54C21.46 15.17 21.386 14.8 21.238 14.504C21.09 14.208 20.868 13.912 20.646 13.69C20.424 13.468 20.128 13.32 19.758 13.172C19.388 13.024 19.092 12.95 18.722 12.95C18.204 12.95 17.76 13.024 17.39 13.246C17.02 13.394 16.65 13.69 16.428 13.986C16.206 14.282 15.984 14.652 15.836 15.096C15.688 15.54 15.54 15.762 15.54 16.28H14.356C14.356 15.614 14.43 15.096 14.652 14.504ZM19.24 23.68V25.16H17.76V23.68H19.24Z" fill="black"/>
</svg>
