<svg width="15" height="20" viewBox="0 0 15 20" fill="none" xmlns="http://www.w3.org/2000/svg">
<path d="M11.3284 1.59425C11.6875 1.59425 12.032 1.72226 12.2859 1.95011C12.5398 2.17796 12.6825 2.487 12.6825 2.80923V17.389C12.6825 17.7112 12.5398 18.0202 12.2859 18.2481C12.032 18.4759 11.6875 18.6039 11.3284 18.6039H3.20362C2.84448 18.6039 2.50005 18.4759 2.2461 18.2481C1.99216 18.0202 1.84949 17.7112 1.84949 17.389V2.80923C1.84949 2.487 1.99216 2.17796 2.2461 1.95011C2.50005 1.72226 2.84448 1.59425 3.20362 1.59425H11.3284ZM3.20362 0.379272C2.48534 0.379272 1.79649 0.635285 1.28859 1.09099C0.780695 1.5467 0.495361 2.16476 0.495361 2.80923V17.389C0.495361 18.0334 0.780695 18.6515 1.28859 19.1072C1.79649 19.5629 2.48534 19.8189 3.20362 19.8189H11.3284C12.0467 19.8189 12.7355 19.5629 13.2434 19.1072C13.7513 18.6515 14.0366 18.0334 14.0366 17.389V2.80923C14.0366 2.16476 13.7513 1.5467 13.2434 1.09099C12.7355 0.635285 12.0467 0.379272 11.3284 0.379272L3.20362 0.379272Z" fill="black"/>
<path d="M7.26624 17.389C7.62537 17.389 7.9698 17.261 8.22375 17.0331C8.4777 16.8053 8.62037 16.4962 8.62037 16.174C8.62037 15.8518 8.4777 15.5427 8.22375 15.3149C7.9698 15.087 7.62537 14.959 7.26624 14.959C6.9071 14.959 6.56267 15.087 6.30872 15.3149C6.05478 15.5427 5.91211 15.8518 5.91211 16.174C5.91211 16.4962 6.05478 16.8053 6.30872 17.0331C6.56267 17.261 6.9071 17.389 7.26624 17.389Z" fill="black"/>
</svg>
