<svg width="28" height="28" viewBox="0 0 28 28" fill="none" xmlns="http://www.w3.org/2000/svg">
<path d="M13.9998 7C12.783 7.00154 11.6165 7.48559 10.7561 8.34599C9.89575 9.20638 9.4117 10.3729 9.41016 11.5897H11.7435C11.7435 10.3448 12.7562 9.33333 13.9998 9.33333C15.2435 9.33333 16.2562 10.3448 16.2562 11.5897C16.2562 12.2873 15.695 12.7937 14.8375 13.4867C14.5574 13.7061 14.2883 13.9393 14.0313 14.1855C12.867 15.3487 12.8332 16.5842 12.8332 16.7218V17.5H15.1665L15.1653 16.7615C15.1665 16.7428 15.2038 16.3112 15.6798 15.8363C15.8548 15.6613 16.0753 15.4863 16.304 15.302C17.2128 14.5658 18.5883 13.454 18.5883 11.5897C18.5874 10.3729 18.1037 9.20621 17.2434 8.34572C16.3832 7.48522 15.2166 7.00124 13.9998 7ZM12.8332 18.6667H15.1665V21H12.8332V18.6667Z" fill="white"/>
<path d="M14.0002 2.33333C7.56716 2.33333 2.3335 7.567 2.3335 14C2.3335 20.433 7.56716 25.6667 14.0002 25.6667C20.4332 25.6667 25.6668 20.433 25.6668 14C25.6668 7.567 20.4332 2.33333 14.0002 2.33333ZM14.0002 23.3333C8.854 23.3333 4.66683 19.1462 4.66683 14C4.66683 8.85383 8.854 4.66666 14.0002 4.66666C19.1463 4.66666 23.3335 8.85383 23.3335 14C23.3335 19.1462 19.1463 23.3333 14.0002 23.3333Z" fill="white"/>
</svg>
