<svg width="25" height="25" viewBox="0 0 25 25" fill="none" xmlns="http://www.w3.org/2000/svg">
<path d="M23.6801 7.375C23.7201 7.52 23.6696 7.68 23.5851 7.805L20.8901 11.815C20.7901 11.97 20.5801 12.055 20.4046 12.055C20.3546 12.055 20.2146 12.045 20.1601 12.03L18.0001 11.5V21C18.0001 21.29 17.7951 21.5 17.5001 21.5H7.00007C6.70507 21.5 6.50007 21.29 6.50007 21V11.5L4.56007 12.035C4.33507 12.105 4.14007 12.015 4.01507 11.82L1.34007 7.82C1.25507 7.69 1.23007 7.545 1.27007 7.4C1.30507 7.25 1.41007 7.15 1.54507 7.08L7.00007 4.5H9.50007C9.79507 4.5 10.0001 4.705 10.0001 5C10.0001 6.03 11.4451 6.76 12.4751 6.76C13.5051 6.76 15.0001 6.035 15.0001 5C15.0001 4.71 15.2051 4.5 15.5001 4.5H18.0001L23.4001 7.03C23.5401 7.1 23.6401 7.225 23.6801 7.375Z" fill="black"/>
</svg>
