<svg width="41" height="41" viewBox="0 0 41 41" fill="none" xmlns="http://www.w3.org/2000/svg">
<rect width="41" height="41" rx="14" fill="black"/>
<path d="M25.2695 20.5C27.8922 20.5 30.0209 18.372 30.0209 15.75C30.0209 13.128 27.8922 11 25.2695 11C22.6467 11 20.518 13.128 20.518 15.75C20.518 18.372 22.6467 20.5 25.2695 20.5ZM30.4485 25.82C30.0779 25.44 29.6122 25.25 29.0706 25.25H22.4186L20.442 24.5565L20.7556 23.6635L22.4186 24.3H25.0794C25.412 24.3 25.6781 24.167 25.8966 23.9485C26.1152 23.73 26.2197 23.464 26.2197 23.1695C26.2197 22.6565 25.9727 22.305 25.4785 22.1055L18.57 19.55H16.7169V28.1L23.3689 30L30.9997 27.15C31.0092 26.6465 30.8191 26.2 30.4485 25.82ZM14.8163 19.55H11V30H14.8163V19.55Z" fill="white"/>
</svg>
