<svg width="30" height="30" viewBox="0 0 30 30" fill="none" xmlns="http://www.w3.org/2000/svg">
<path d="M27.2689 5.80154C27.1565 5.67325 27.0189 5.56953 26.8646 5.49686C26.7104 5.4242 26.5428 5.38415 26.3723 5.37923C23.7243 5.31 20.3735 2.47846 18.1581 1.36731C16.7896 0.683076 15.8862 0.231922 15.2077 0.113076C15.07 0.0930017 14.93 0.0933905 14.7923 0.114229C14.1139 0.233076 13.2104 0.684229 11.8431 1.36846C9.62771 2.47846 6.27694 5.31 3.62887 5.37923C3.45829 5.3844 3.2906 5.42456 3.13618 5.4972C2.98177 5.56985 2.84392 5.67343 2.73117 5.80154C2.49749 6.06592 2.37692 6.41147 2.39541 6.76384C2.96425 18.3288 7.11233 25.4862 14.3908 29.6458C14.58 29.7531 14.79 29.8085 14.9989 29.8085C15.2077 29.8085 15.4177 29.7531 15.6081 29.6458C22.8866 25.4862 27.0335 18.3288 27.6035 6.76384C27.623 6.41152 27.5028 6.06572 27.2689 5.80154ZM21.4812 10.35L15.3393 19.4135C15.1189 19.7388 14.7727 19.9546 14.43 19.9546C14.0862 19.9546 13.7043 19.7665 13.4631 19.5254L9.13387 15.195C8.99252 15.0531 8.91316 14.861 8.91316 14.6608C8.91316 14.4605 8.99252 14.2684 9.13387 14.1265L10.2035 13.0546C10.3456 12.9138 10.5376 12.8349 10.7377 12.8349C10.9378 12.8349 11.1298 12.9138 11.2719 13.0546L14.0873 15.87L18.9785 8.65038C19.0917 8.48517 19.2656 8.37145 19.4623 8.33405C19.659 8.29665 19.8626 8.33861 20.0285 8.45077L21.2804 9.3C21.4458 9.41299 21.5598 9.58684 21.5974 9.78359C21.635 9.98033 21.5932 10.184 21.4812 10.35Z" fill="#C2C2C2"/>
</svg>
