<svg width="13" height="11" viewBox="0 0 13 11" fill="none" xmlns="http://www.w3.org/2000/svg">
<path fill-rule="evenodd" clip-rule="evenodd" d="M0.000152588 5.3916C0.000152588 5.59584 0.0814295 5.79171 0.226105 5.93613C0.37078 6.08055 0.567001 6.16169 0.771603 6.16169H9.70962L6.39701 9.46691C6.32529 9.53851 6.26839 9.62351 6.22957 9.71706C6.19075 9.81061 6.17078 9.91088 6.17078 10.0121C6.17078 10.1134 6.19075 10.2137 6.22957 10.3072C6.26839 10.4008 6.32529 10.4858 6.39701 10.5574C6.46874 10.629 6.55389 10.6858 6.64761 10.7245C6.74132 10.7633 6.84176 10.7832 6.9432 10.7832C7.04464 10.7832 7.14508 10.7633 7.23879 10.7245C7.33251 10.6858 7.41766 10.629 7.48939 10.5574L12.1181 5.93682C12.1899 5.86529 12.2469 5.78031 12.2858 5.68675C12.3247 5.59319 12.3447 5.49289 12.3447 5.3916C12.3447 5.2903 12.3247 5.19001 12.2858 5.09645C12.2469 5.00289 12.1899 4.91791 12.1181 4.84637L7.48939 0.225839C7.34453 0.0812368 7.14806 0 6.9432 0C6.73834 0 6.54187 0.0812368 6.39701 0.225839C6.25216 0.370441 6.17078 0.566564 6.17078 0.771062C6.17078 0.975561 6.25216 1.17168 6.39701 1.31629L9.70962 4.62151H0.771603C0.567001 4.62151 0.37078 4.70264 0.226105 4.84706C0.0814295 4.99148 0.000152588 5.18736 0.000152588 5.3916Z" fill="black"/>
</svg>
