<svg width="73" height="70" viewBox="0 0 73 70" fill="none" xmlns="http://www.w3.org/2000/svg">
<rect width="73" height="70" rx="27" fill="url(#paint0_linear_226_44)"/>
<path d="M23.2312 31.567C23.8334 29.6062 24.9637 27.8489 26.4983 26.4877C25.6633 25.8203 26.4983 21.6717 26.4983 21.6717C26.4983 21.6717 29.8361 23.1498 30.4328 23.8414C30.4328 23.8414 33.0074 20.7176 40.4715 20.7176C47.9356 20.7176 54.9687 26.4885 54.9687 34.19C54.9687 41.8915 49.3886 44.3479 49.3886 44.3479C49.0979 45.7068 48.65 47.0272 48.0538 48.2824H45.0967C44.6249 47.5566 44.2029 46.7997 43.8335 46.0168C43.8335 46.0168 41.473 46.3035 39.7799 46.3035C38.5868 46.2792 37.3981 46.1515 36.227 45.9219C36.1259 46.7606 35.8408 47.5666 35.3921 48.2824H32.1734C31.1718 47.4242 30.6711 44.7295 30.6711 44.7295C30.6711 44.7295 22.5638 41.0575 20.8465 38.8627C19.9157 37.1221 20.0348 33.2593 20.0348 33.2593C20.9363 32.429 22.037 31.8458 23.2303 31.5661L23.2312 31.567Z" stroke="white" stroke-width="3" stroke-linecap="round" stroke-linejoin="round"/>
<path d="M33.5082 25.3437C35.4186 23.9701 37.7402 23.2888 40.0899 23.4123C42.6571 23.37 45.1683 24.1653 47.2431 25.6778" stroke="white" stroke-width="2" stroke-linecap="round" stroke-linejoin="round"/>
<path d="M26.4024 32.7397C26.7735 32.7397 27.0743 32.4389 27.0743 32.0678C27.0743 31.6967 26.7735 31.3959 26.4024 31.3959C26.0313 31.3959 25.7305 31.6967 25.7305 32.0678C25.7305 32.4389 26.0313 32.7397 26.4024 32.7397Z" fill="white" stroke="white" stroke-width="4"/>
<defs>
<linearGradient id="paint0_linear_226_44" x1="4.75906e-07" y1="35" x2="73" y2="35" gradientUnits="userSpaceOnUse">
<stop stop-color="#3ED5AA"/>
<stop offset="1" stop-color="#2FB791"/>
</linearGradient>
</defs>
</svg>
