<svg width="36" height="36" viewBox="0 0 36 36" fill="none" xmlns="http://www.w3.org/2000/svg">
<mask id="path-1-outside-1_73_340" maskUnits="userSpaceOnUse" x="6" y="3" width="29" height="29" fill="black">
<rect fill="white" x="6" y="3" width="29" height="29"/>
<path d="M29.6396 7.9086C27.0882 5.42468 23.7116 4 20.375 4C17.0384 4 13.6618 5.42468 11.1104 7.9086C8.4599 10.4887 7 13.8521 7 17.375C7 18.9675 7.52246 21.0227 8.96326 24.8716C10.4041 28.7205 13.2695 30.332 14.4798 30.5954C14.8268 30.6712 15.2334 30.75 15.5982 30.75C16.2269 30.7505 16.8446 30.5858 17.3895 30.2723L18.2254 29.7946C19.1253 29.268 19.388 28.115 18.8703 27.2062L13.6803 18.0963C13.5567 17.8783 13.391 17.687 13.1929 17.5335C12.9947 17.38 12.7681 17.2673 12.5262 17.202C12.2842 17.1367 12.0317 17.1201 11.7832 17.153C11.5348 17.186 11.2953 17.2679 11.0788 17.3941L10.2614 17.8718C9.94718 18.0558 9.66488 18.2895 9.42541 18.5638C9.39569 18.5987 9.35656 18.6243 9.3127 18.6375C9.26883 18.6508 9.22208 18.6511 9.17802 18.6386C9.13396 18.626 9.09445 18.601 9.0642 18.5665C9.03396 18.5321 9.01426 18.4897 9.00744 18.4444C8.94726 18.091 8.91492 17.7334 8.91071 17.375C8.91071 14.371 10.1646 11.4948 12.4431 9.27775C14.6429 7.13775 17.5322 5.91071 20.375 5.91071C23.2178 5.91071 26.1071 7.13775 28.3069 9.27775C30.5854 11.4948 31.8393 14.371 31.8393 17.375C31.8339 17.7335 31.8004 18.0911 31.739 18.4444C31.7322 18.4897 31.7125 18.5321 31.6822 18.5665C31.652 18.601 31.6125 18.626 31.5684 18.6386C31.5243 18.6511 31.4776 18.6508 31.4337 18.6375C31.3899 18.6243 31.3507 18.5987 31.321 18.5638C31.0815 18.2895 30.7992 18.0558 30.4851 17.8718L29.6676 17.3941C29.4511 17.2679 29.2116 17.186 28.9632 17.153C28.7147 17.1201 28.4622 17.1367 28.2203 17.202C27.9783 17.2673 27.7517 17.38 27.5536 17.5335C27.3554 17.687 27.1898 17.8783 27.0661 18.0963L21.8797 27.2062C21.362 28.115 21.6247 29.268 22.5246 29.7946L23.3605 30.2723C23.9054 30.5858 24.5231 30.7505 25.1518 30.75C25.5166 30.75 25.9232 30.6712 26.2702 30.5954C27.4805 30.332 30.3465 28.7199 31.7867 24.8716C33.2269 21.0233 33.75 18.9675 33.75 17.375C33.75 13.8521 32.2901 10.4887 29.6396 7.9086Z"/>
</mask>
<path d="M29.6396 7.9086C27.0882 5.42468 23.7116 4 20.375 4C17.0384 4 13.6618 5.42468 11.1104 7.9086C8.4599 10.4887 7 13.8521 7 17.375C7 18.9675 7.52246 21.0227 8.96326 24.8716C10.4041 28.7205 13.2695 30.332 14.4798 30.5954C14.8268 30.6712 15.2334 30.75 15.5982 30.75C16.2269 30.7505 16.8446 30.5858 17.3895 30.2723L18.2254 29.7946C19.1253 29.268 19.388 28.115 18.8703 27.2062L13.6803 18.0963C13.5567 17.8783 13.391 17.687 13.1929 17.5335C12.9947 17.38 12.7681 17.2673 12.5262 17.202C12.2842 17.1367 12.0317 17.1201 11.7832 17.153C11.5348 17.186 11.2953 17.2679 11.0788 17.3941L10.2614 17.8718C9.94718 18.0558 9.66488 18.2895 9.42541 18.5638C9.39569 18.5987 9.35656 18.6243 9.3127 18.6375C9.26883 18.6508 9.22208 18.6511 9.17802 18.6386C9.13396 18.626 9.09445 18.601 9.0642 18.5665C9.03396 18.5321 9.01426 18.4897 9.00744 18.4444C8.94726 18.091 8.91492 17.7334 8.91071 17.375C8.91071 14.371 10.1646 11.4948 12.4431 9.27775C14.6429 7.13775 17.5322 5.91071 20.375 5.91071C23.2178 5.91071 26.1071 7.13775 28.3069 9.27775C30.5854 11.4948 31.8393 14.371 31.8393 17.375C31.8339 17.7335 31.8004 18.0911 31.739 18.4444C31.7322 18.4897 31.7125 18.5321 31.6822 18.5665C31.652 18.601 31.6125 18.626 31.5684 18.6386C31.5243 18.6511 31.4776 18.6508 31.4337 18.6375C31.3899 18.6243 31.3507 18.5987 31.321 18.5638C31.0815 18.2895 30.7992 18.0558 30.4851 17.8718L29.6676 17.3941C29.4511 17.2679 29.2116 17.186 28.9632 17.153C28.7147 17.1201 28.4622 17.1367 28.2203 17.202C27.9783 17.2673 27.7517 17.38 27.5536 17.5335C27.3554 17.687 27.1898 17.8783 27.0661 18.0963L21.8797 27.2062C21.362 28.115 21.6247 29.268 22.5246 29.7946L23.3605 30.2723C23.9054 30.5858 24.5231 30.7505 25.1518 30.75C25.5166 30.75 25.9232 30.6712 26.2702 30.5954C27.4805 30.332 30.3465 28.7199 31.7867 24.8716C33.2269 21.0233 33.75 18.9675 33.75 17.375C33.75 13.8521 32.2901 10.4887 29.6396 7.9086Z" fill="#C2C2C2"/>
<path d="M11.1104 7.9086L11.7028 8.51712L11.7028 8.51708L11.1104 7.9086ZM14.4798 30.5954L14.6612 29.7657L14.6604 29.7656L14.4798 30.5954ZM15.5982 30.75L15.5989 29.9008H15.5982V30.75ZM17.3895 30.2723L16.9682 29.535L16.966 29.5362L17.3895 30.2723ZM18.2254 29.7946L18.6468 30.532L18.6544 30.5276L18.2254 29.7946ZM18.8703 27.2062L19.6082 26.7859L19.6082 26.7859L18.8703 27.2062ZM13.6803 18.0963L12.9417 18.5153L12.9425 18.5167L13.6803 18.0963ZM11.0788 17.3941L10.6513 16.6603L10.6503 16.6609L11.0788 17.3941ZM10.2614 17.8718L9.83289 17.1386L9.8321 17.1391L10.2614 17.8718ZM9.42541 18.5638L8.78566 18.0053L8.77908 18.013L9.42541 18.5638ZM9.00744 18.4444L9.84722 18.3182L9.84599 18.31L9.8446 18.3018L9.00744 18.4444ZM8.91071 17.375H8.06145L8.06157 17.385L8.91071 17.375ZM12.4431 9.27775L11.851 8.66907L11.8509 8.66911L12.4431 9.27775ZM28.3069 9.27775L28.8991 8.66911L28.899 8.66907L28.3069 9.27775ZM31.8393 17.375L32.6885 17.3878V17.375H31.8393ZM31.739 18.4444L30.9023 18.299L30.9006 18.3086L30.8992 18.3182L31.739 18.4444ZM31.321 18.5638L31.9674 18.013L31.9607 18.0053L31.321 18.5638ZM30.4851 17.8718L30.9143 17.1391L30.9135 17.1386L30.4851 17.8718ZM29.6676 17.3941L30.0961 16.6609L30.0951 16.6603L29.6676 17.3941ZM27.0661 18.0963L27.8041 18.5164L27.8047 18.5153L27.0661 18.0963ZM21.8797 27.2062L22.6176 27.6266L22.6177 27.6264L21.8797 27.2062ZM22.5246 29.7946L22.0956 30.5276L22.1032 30.532L22.5246 29.7946ZM23.3605 30.2723L23.784 29.5362L23.7818 29.535L23.3605 30.2723ZM25.1518 30.75V29.9008H25.1511L25.1518 30.75ZM26.2702 30.5954L26.0896 29.7656L26.0888 29.7657L26.2702 30.5954ZM30.232 7.30013C27.5338 4.67332 23.9488 3.15079 20.375 3.15079V4.84921C23.4744 4.84921 26.6426 6.17604 29.0472 8.51708L30.232 7.30013ZM20.375 3.15079C16.8012 3.15079 13.2162 4.67332 10.518 7.30013L11.7028 8.51708C14.1074 6.17604 17.2756 4.84921 20.375 4.84921V3.15079ZM10.5181 7.30009C7.71241 10.0312 6.15079 13.6106 6.15079 17.375H7.84921C7.84921 14.0937 9.2074 10.9461 11.7028 8.51712L10.5181 7.30009ZM6.15079 17.375C6.15079 19.1378 6.72828 21.3234 8.16795 25.1693L9.75857 24.5739C8.31664 20.7219 7.84921 18.7971 7.84921 17.375H6.15079ZM8.16795 25.1693C9.70744 29.2818 12.8001 31.099 14.2993 31.4251L14.6604 29.7656C13.739 29.5651 11.1007 28.1591 9.75857 24.5739L8.16795 25.1693ZM14.2985 31.425C14.6456 31.5008 15.1323 31.5992 15.5982 31.5992V29.9008C15.3345 29.9008 15.0079 29.8415 14.6612 29.7657L14.2985 31.425ZM15.5975 31.5992C16.375 31.5999 17.139 31.3961 17.813 31.0084L16.966 29.5362C16.5502 29.7755 16.0787 29.9012 15.5989 29.9008L15.5975 31.5992ZM17.8108 31.0096L18.6468 30.532L17.8041 29.0573L16.9682 29.535L17.8108 31.0096ZM18.6544 30.5276C19.9879 29.7471 20.3372 28.0656 19.6082 26.7859L18.1324 27.6266C18.4388 28.1644 18.2627 28.7889 17.7965 29.0617L18.6544 30.5276ZM19.6082 26.7859L14.4182 17.6759L12.9425 18.5167L18.1324 27.6266L19.6082 26.7859ZM14.419 17.6773C14.2399 17.3616 13.9999 17.0845 13.713 16.8622L12.6727 18.2048C12.7821 18.2895 12.8735 18.395 12.9417 18.5153L14.419 17.6773ZM13.713 16.8622C13.4261 16.6399 13.0979 16.4767 12.7475 16.3822L12.3049 18.0219C12.4384 18.0579 12.5634 18.1201 12.6727 18.2048L13.713 16.8622ZM12.7475 16.3822C12.397 16.2876 12.0313 16.2635 11.6715 16.3112L11.8949 17.9949C12.032 17.9767 12.1714 17.9859 12.3049 18.0219L12.7475 16.3822ZM11.6715 16.3112C11.3117 16.359 10.9649 16.4776 10.6513 16.6603L11.5062 18.1279C11.6257 18.0583 11.7579 18.0131 11.8949 17.9949L11.6715 16.3112ZM10.6503 16.6609L9.83289 17.1386L10.6898 18.605L11.5072 18.1273L10.6503 16.6609ZM9.8321 17.1391C9.43883 17.3694 9.08546 17.662 8.7857 18.0053L10.0651 19.1223C10.2443 18.9171 10.4555 18.7422 10.6906 18.6045L9.8321 17.1391ZM8.77908 18.013C8.85504 17.9239 8.95504 17.8585 9.06713 17.8246L9.55826 19.4505C9.75809 19.3901 9.93634 19.2735 10.0717 19.1146L8.77908 18.013ZM9.06713 17.8246C9.17922 17.7908 9.2987 17.7898 9.41131 17.822L8.94472 19.4551C9.14545 19.5124 9.35844 19.5108 9.55826 19.4505L9.06713 17.8246ZM9.41131 17.822C9.52392 17.8542 9.62489 17.9181 9.70217 18.0061L8.42623 19.127C8.56401 19.2838 8.74399 19.3977 8.94472 19.4551L9.41131 17.822ZM9.70217 18.0061C9.77946 18.094 9.82981 18.2024 9.84722 18.3182L8.16767 18.5706C8.1987 18.7771 8.28846 18.9702 8.42623 19.127L9.70217 18.0061ZM9.8446 18.3018C9.79187 17.9923 9.76354 17.679 9.75986 17.365L8.06157 17.385C8.06629 17.7879 8.10264 18.1898 8.17029 18.587L9.8446 18.3018ZM9.75992 17.375C9.75992 14.6145 10.9106 11.9538 13.0354 9.88639L11.8509 8.66911C9.41861 11.0358 8.06151 14.1275 8.06151 17.375H9.75992ZM13.0353 9.88644C15.0905 7.88706 17.7722 6.75992 20.375 6.75992V5.06151C17.2923 5.06151 14.1952 6.38844 11.851 8.66907L13.0353 9.88644ZM20.375 6.75992C22.9778 6.75992 25.6595 7.88706 27.7147 9.88644L28.899 8.66907C26.5548 6.38844 23.4577 5.06151 20.375 5.06151V6.75992ZM27.7146 9.88639C29.8394 11.9538 30.9901 14.6145 30.9901 17.375H32.6885C32.6885 14.1275 31.3314 11.0358 28.8991 8.66911L27.7146 9.88639ZM30.9902 17.3622C30.9855 17.6763 30.9561 17.9895 30.9023 18.299L32.5756 18.5898C32.6446 18.1927 32.6823 17.7908 32.6884 17.3878L30.9902 17.3622ZM30.8992 18.3182C30.9166 18.2024 30.967 18.094 31.0442 18.0061L32.3202 19.127C32.458 18.9702 32.5477 18.7771 32.5787 18.5706L30.8992 18.3182ZM31.0442 18.0061C31.1215 17.9181 31.2225 17.8542 31.3351 17.822L31.8017 19.4551C32.0024 19.3977 32.1824 19.2838 32.3202 19.127L31.0442 18.0061ZM31.3351 17.822C31.4477 17.7898 31.5672 17.7908 31.6793 17.8246L31.1882 19.4505C31.388 19.5108 31.601 19.5124 31.8017 19.4551L31.3351 17.822ZM31.6793 17.8246C31.7914 17.8585 31.8914 17.9239 31.9673 18.013L30.6747 19.1146C30.8101 19.2735 30.9883 19.3901 31.1882 19.4505L31.6793 17.8246ZM31.9607 18.0053C31.661 17.662 31.3076 17.3694 30.9143 17.1391L30.0558 18.6045C30.2909 18.7422 30.5021 18.9171 30.6813 19.1223L31.9607 18.0053ZM30.9135 17.1386L30.0961 16.6609L29.2392 18.1273L30.0566 18.605L30.9135 17.1386ZM30.0951 16.6603C29.7815 16.4776 29.4347 16.359 29.0749 16.3112L28.8515 17.9949C28.9886 18.0131 29.1207 18.0583 29.2402 18.1279L30.0951 16.6603ZM29.0749 16.3112C28.7151 16.2635 28.3494 16.2876 27.999 16.3822L28.4415 18.0219C28.5751 17.9859 28.7144 17.9767 28.8515 17.9949L29.0749 16.3112ZM27.999 16.3822C27.6485 16.4767 27.3204 16.6399 27.0334 16.8622L28.0737 18.2048C28.183 18.1201 28.308 18.0579 28.4415 18.0219L27.999 16.3822ZM27.0334 16.8622C26.7465 17.0845 26.5066 17.3616 26.3275 17.6773L27.8047 18.5153C27.8729 18.395 27.9644 18.2895 28.0737 18.2048L27.0334 16.8622ZM26.3281 17.6761L21.1417 26.7861L22.6177 27.6264L27.8041 18.5164L26.3281 17.6761ZM21.1418 26.7859C20.4128 28.0656 20.7621 29.7471 22.0956 30.5276L22.9535 29.0617C22.4873 28.7889 22.3112 28.1644 22.6176 27.6266L21.1418 26.7859ZM22.1032 30.532L22.9392 31.0096L23.7818 29.535L22.9459 29.0573L22.1032 30.532ZM22.937 31.0084C23.611 31.3961 24.375 31.5999 25.1525 31.5992L25.1511 29.9008C24.6713 29.9012 24.1998 29.7755 23.784 29.5362L22.937 31.0084ZM25.1518 31.5992C25.6177 31.5992 26.1044 31.5008 26.4515 31.425L26.0888 29.7657C25.7421 29.8415 25.4155 29.9008 25.1518 29.9008V31.5992ZM26.4507 31.4251C27.9499 31.099 31.0432 29.2812 32.5821 25.1692L30.9914 24.5739C29.6499 28.1585 27.011 29.5651 26.0896 29.7656L26.4507 31.4251ZM32.5821 25.1692C34.0211 21.3241 34.5992 19.1378 34.5992 17.375H32.9008C32.9008 18.7971 32.4328 20.7224 30.9914 24.5739L32.5821 25.1692ZM34.5992 17.375C34.5992 13.6106 33.0376 10.0312 30.2319 7.30009L29.0472 8.51712C31.5426 10.9461 32.9008 14.0937 32.9008 17.375H34.5992Z" fill="#C2C2C2" mask="url(#path-1-outside-1_73_340)"/>
</svg>
