<svg width="30" height="30" viewBox="0 0 30 30" fill="none" xmlns="http://www.w3.org/2000/svg">
<path d="M15 27.5L14.6875 23.75H14.375C11.4167 23.75 8.90625 22.7188 6.84375 20.6562C4.78125 18.5938 3.75 16.0833 3.75 13.125C3.75 10.1667 4.78125 7.65625 6.84375 5.59375C8.90625 3.53125 11.4167 2.5 14.375 2.5C15.8542 2.5 17.2342 2.77583 18.515 3.3275C19.7967 3.88 20.9221 4.64042 21.8913 5.60875C22.8596 6.57792 23.6196 7.70292 24.1712 8.98375C24.7237 10.2654 25 11.6458 25 13.125C25 14.6875 24.745 16.1875 24.235 17.625C23.7242 19.0625 23.0262 20.3958 22.1412 21.625C21.2554 22.8542 20.2033 23.9688 18.985 24.9688C17.7658 25.9688 16.4375 26.8125 15 27.5ZM14.3438 19.9688C14.6979 19.9688 15 19.8438 15.25 19.5938C15.5 19.3438 15.625 19.0417 15.625 18.6875C15.625 18.3333 15.5 18.0313 15.25 17.7812C15 17.5312 14.6979 17.4062 14.3438 17.4062C13.9896 17.4062 13.6875 17.5312 13.4375 17.7812C13.1875 18.0313 13.0625 18.3333 13.0625 18.6875C13.0625 19.0417 13.1875 19.3438 13.4375 19.5938C13.6875 19.8438 13.9896 19.9688 14.3438 19.9688ZM13.4375 16H15.3125C15.3125 15.375 15.375 14.9375 15.5 14.6875C15.625 14.4375 16.0208 13.9792 16.6875 13.3125C17.0625 12.9375 17.375 12.5312 17.625 12.0938C17.875 11.6562 18 11.1875 18 10.6875C18 9.625 17.6408 8.82792 16.9225 8.29625C16.2033 7.76542 15.3542 7.5 14.375 7.5C13.4583 7.5 12.6875 7.755 12.0625 8.265C11.4375 8.77583 11 9.39583 10.75 10.125L12.5 10.8125C12.6042 10.4583 12.8021 10.1092 13.0938 9.765C13.3854 9.42167 13.8125 9.25 14.375 9.25C14.9375 9.25 15.3596 9.40625 15.6412 9.71875C15.9221 10.0312 16.0625 10.375 16.0625 10.75C16.0625 11.1042 15.9583 11.4217 15.75 11.7025C15.5417 11.9842 15.2917 12.2708 15 12.5625C14.2708 13.1875 13.8283 13.6821 13.6725 14.0463C13.5158 14.4113 13.4375 15.0625 13.4375 16Z" fill="white"/>
</svg>
