<svg width="73" height="70" viewBox="0 0 73 70" fill="none" xmlns="http://www.w3.org/2000/svg">
<rect width="73" height="70" rx="27" fill="url(#paint0_linear_223_5)"/>
<path d="M37 13.3333C32.7147 13.3333 28.5257 14.6041 24.9626 16.9848C21.3996 19.3656 18.6225 22.7495 16.9826 26.7085C15.3427 30.6676 14.9136 35.024 15.7496 39.227C16.5857 43.4299 18.6492 47.2905 21.6793 50.3207C24.7095 53.3508 28.5701 55.4143 32.773 56.2504C36.976 57.0864 41.3324 56.6573 45.2915 55.0174C49.2505 53.3775 52.6344 50.6004 55.0152 47.0374C57.3959 43.4743 58.6667 39.2853 58.6667 35C58.6667 32.1547 58.1062 29.3373 57.0174 26.7085C55.9285 24.0798 54.3326 21.6913 52.3206 19.6794C50.3087 17.6674 47.9202 16.0715 45.2915 14.9826C42.6627 13.8938 39.8453 13.3333 37 13.3333ZM37 52.3333C33.5718 52.3333 30.2206 51.3168 27.3701 49.4122C24.5197 47.5075 22.298 44.8004 20.9861 41.6332C19.6742 38.4659 19.3309 34.9808 19.9997 31.6184C20.6685 28.2561 22.3194 25.1676 24.7435 22.7435C27.1676 20.3194 30.2561 18.6685 33.6184 17.9997C36.9808 17.3309 40.4659 17.6742 43.6332 18.9861C46.8004 20.298 49.5075 22.5197 51.4121 25.3701C53.3167 28.2206 54.3333 31.5718 54.3333 35C54.3333 39.5971 52.5071 44.0059 49.2565 47.2565C46.0059 50.5072 41.5971 52.3333 37 52.3333Z" fill="white"/>
<path d="M37 32.8333C32.6667 32.8333 32.6667 31.4683 32.6667 30.6667C32.6667 29.865 34.1833 28.5 37 28.5C39.8167 28.5 40.0117 29.8867 40.0333 30.6667H44.3667C44.3374 29.1906 43.8065 27.7685 42.8614 26.6344C41.9163 25.5003 40.6132 24.7216 39.1667 24.4267V22H34.8333V24.3617C30.5 25.0767 28.3333 27.8717 28.3333 30.6667C28.3333 33.0933 29.46 37.1667 37 37.1667C41.3333 37.1667 41.3333 38.64 41.3333 39.3333C41.3333 40.0267 39.99 41.5 37 41.5C33.0133 41.5 32.6667 39.6367 32.6667 39.3333H28.3333C28.3333 41.3267 29.7633 44.8583 34.8333 45.66V48H39.1667V45.66C43.5 44.9233 45.6667 42.1283 45.6667 39.3333C45.6667 36.9067 44.54 32.8333 37 32.8333Z" fill="white"/>
<defs>
<linearGradient id="paint0_linear_223_5" x1="4.75906e-07" y1="35" x2="73" y2="35" gradientUnits="userSpaceOnUse">
<stop stop-color="#3ED5AA"/>
<stop offset="1" stop-color="#2FB791"/>
</linearGradient>
</defs>
</svg>
