<svg width="25" height="25" viewBox="0 0 25 25" fill="none" xmlns="http://www.w3.org/2000/svg">
<path d="M1.5625 5.46875V18.75H23.4375V5.46875H1.5625ZM4.6875 7.03125H20.3125C20.3125 7.44565 20.4771 7.84308 20.7701 8.1361C21.0632 8.42913 21.4606 8.59375 21.875 8.59375V15.625C21.4606 15.625 21.0632 15.7896 20.7701 16.0826C20.4771 16.3757 20.3125 16.7731 20.3125 17.1875H4.6875C4.6875 16.7731 4.52288 16.3757 4.22985 16.0826C3.93683 15.7896 3.5394 15.625 3.125 15.625V8.59375C3.5394 8.59375 3.93683 8.42913 4.22985 8.1361C4.52288 7.84308 4.6875 7.44565 4.6875 7.03125ZM12.5 8.59375C10.7727 8.59375 9.375 10.1688 9.375 12.1094C9.375 14.05 10.7727 15.625 12.5 15.625C14.2273 15.625 15.625 14.05 15.625 12.1094C15.625 10.1688 14.2273 8.59375 12.5 8.59375ZM12.5 10.1562C13.3609 10.1562 14.0625 11.032 14.0625 12.1094C14.0625 13.1867 13.3609 14.0625 12.5 14.0625C11.6391 14.0625 10.9375 13.1867 10.9375 12.1094C10.9375 11.032 11.6391 10.1562 12.5 10.1562ZM6.64062 10.9375C6.48668 10.9376 6.33425 10.9679 6.19205 11.0269C6.04984 11.0858 5.92064 11.1722 5.81182 11.2811C5.703 11.39 5.6167 11.5193 5.55783 11.6615C5.49897 11.8038 5.4687 11.9562 5.46875 12.1102C5.4688 12.2641 5.49917 12.4165 5.55813 12.5587C5.61709 12.7009 5.70348 12.8301 5.81237 12.939C5.92127 13.0478 6.05052 13.1341 6.19277 13.1929C6.33502 13.2518 6.48746 13.2821 6.64141 13.282C6.95231 13.2819 7.25044 13.1583 7.47021 12.9384C7.68998 12.7185 7.81339 12.4203 7.81328 12.1094C7.81318 11.7985 7.68957 11.5003 7.46966 11.2806C7.24974 11.0608 6.95153 10.9374 6.64062 10.9375V10.9375ZM18.3594 10.9375C18.2054 10.9376 18.053 10.9679 17.9108 11.0269C17.7686 11.0858 17.6394 11.1722 17.5306 11.2811C17.4218 11.39 17.3354 11.5193 17.2766 11.6615C17.2177 11.8038 17.1874 11.9562 17.1875 12.1102C17.1876 12.2641 17.2179 12.4165 17.2769 12.5587C17.3358 12.7009 17.4222 12.8301 17.5311 12.939C17.64 13.0478 17.7693 13.1341 17.9115 13.1929C18.0538 13.2518 18.2062 13.2821 18.3602 13.282C18.6711 13.2819 18.9692 13.1583 19.189 12.9384C19.4087 12.7185 19.5321 12.4203 19.532 12.1094C19.5319 11.7985 19.4083 11.5003 19.1884 11.2806C18.9685 11.0608 18.6703 10.9374 18.3594 10.9375V10.9375Z" fill="black"/>
</svg>
