<svg width="73" height="70" viewBox="0 0 73 70" fill="none" xmlns="http://www.w3.org/2000/svg">
<rect width="73" height="70" rx="27" fill="url(#paint0_linear_226_40)"/>
<path d="M37 55.3333L28.7653 50.9427C26.4178 49.6937 24.4546 47.8291 23.0866 45.5489C21.7185 43.2688 20.9972 40.6591 21 38V20.6667C21.0007 19.9596 21.2819 19.2818 21.7818 18.7818C22.2818 18.2819 22.9596 18.0007 23.6667 18H50.3333C51.0404 18.0007 51.7182 18.2819 52.2182 18.7818C52.7181 19.2818 52.9993 19.9596 53 20.6667V38C53.0028 40.6591 52.2815 43.2688 50.9134 45.5489C49.5454 47.8291 47.5822 49.6937 45.2347 50.9427L37 55.3333ZM23.6667 20.6667V38C23.6645 40.1757 24.2548 42.311 25.3744 44.1766C26.4939 46.0422 28.1004 47.5677 30.0213 48.5893L37 52.3106L43.9787 48.5907C45.8998 47.5689 47.5064 46.0432 48.626 44.1774C49.7455 42.3115 50.3358 40.176 50.3333 38V20.6667H23.6667Z" fill="white"/>
<path d="M43.6667 39.0667H30.3333M43.6667 39.0667L40.7037 36.1333M43.6667 39.0667L40.7037 42M30.3333 30.2667H43.6667M30.3333 30.2667L33.2963 27.3333M30.3333 30.2667L33.2963 33.2" stroke="white" stroke-width="2" stroke-linecap="round" stroke-linejoin="round"/>
<defs>
<linearGradient id="paint0_linear_226_40" x1="4.75906e-07" y1="35" x2="73" y2="35" gradientUnits="userSpaceOnUse">
<stop stop-color="#3ED5AA"/>
<stop offset="1" stop-color="#2FB791"/>
</linearGradient>
</defs>
</svg>
