<svg width="19" height="19" viewBox="0 0 19 19" fill="none" xmlns="http://www.w3.org/2000/svg">
<g clip-path="url(#clip0_82_1520)">
<path d="M9.47499 0.00593746C4.59793 0.00296871 0.512926 3.69847 0.027832 8.55059H6.62736V7.125C6.62783 6.99964 6.67784 6.87955 6.76648 6.7909C6.85513 6.70226 6.97522 6.65225 7.10058 6.65178H11.8506C12.1136 6.65178 12.3238 6.86494 12.3238 7.12797V11.875C12.3238 12.0005 12.2739 12.1209 12.1852 12.2096C12.0965 12.2984 11.9761 12.3482 11.8506 12.3482H7.10058C6.97508 12.3482 6.85471 12.2984 6.76597 12.2096C6.67722 12.1209 6.62736 12.0005 6.62736 11.875V10.4494H0.027832C0.553301 15.6697 5.20771 19.4732 10.4244 18.9478C15.6446 18.4253 19.4482 13.7679 18.9227 8.55119C18.4371 3.69906 14.3521 0.00653121 9.47558 0.00653121L9.47499 0.00593746Z" fill="black"/>
</g>
<defs>
<clipPath id="clip0_82_1520">
<rect width="19" height="19" fill="white"/>
</clipPath>
</defs>
</svg>
