<svg width="25" height="25" viewBox="0 0 25 25" fill="none" xmlns="http://www.w3.org/2000/svg">
<path d="M21.094 13.0937V11.8984L22.594 10.5859C22.8705 10.3422 23.0519 10.0086 23.1063 9.64406C23.1606 9.27951 23.0843 8.90749 22.8909 8.59375L21.0471 5.46875C20.9101 5.23145 20.7131 5.03436 20.4759 4.89723C20.2387 4.76011 19.9695 4.68778 19.6955 4.6875C19.5257 4.6862 19.3569 4.71258 19.1955 4.76562L17.2971 5.40625C16.9693 5.18844 16.6274 4.9927 16.2737 4.82031L15.8752 2.85156C15.8038 2.49188 15.6081 2.16878 15.3225 1.93883C15.0368 1.70888 14.6794 1.58672 14.3127 1.59375H10.6565C10.2898 1.58672 9.9324 1.70888 9.64675 1.93883C9.36109 2.16878 9.16542 2.49188 9.09398 2.85156L8.69554 4.82031C8.33924 4.99265 7.99474 5.18839 7.66429 5.40625L5.80492 4.73437C5.64187 4.69189 5.47302 4.67606 5.30492 4.6875C5.03091 4.68778 4.7618 4.76011 4.52457 4.89723C4.28735 5.03436 4.09035 5.23145 3.95335 5.46875L2.1096 8.59375C1.92725 8.90702 1.85949 9.27395 1.91792 9.63169C1.97636 9.98943 2.15736 10.3157 2.42992 10.5547L3.90648 11.9062V13.1016L2.42992 14.4141C2.14966 14.6547 1.96371 14.9868 1.90507 15.3515C1.84643 15.7162 1.9189 16.0899 2.1096 16.4062L3.95335 19.5312C4.09035 19.7685 4.28735 19.9656 4.52457 20.1028C4.7618 20.2399 5.03091 20.3122 5.30492 20.3125C5.47472 20.3138 5.6436 20.2874 5.80492 20.2344L7.70335 19.5937C8.03112 19.8116 8.37302 20.0073 8.72679 20.1797L9.12523 22.1484C9.19667 22.5081 9.39234 22.8312 9.678 23.0612C9.96365 23.2911 10.3211 23.4133 10.6877 23.4062H14.3752C14.7419 23.4133 15.0993 23.2911 15.385 23.0612C15.6706 22.8312 15.8663 22.5081 15.9377 22.1484L16.3362 20.1797C16.6925 20.0073 17.037 19.8116 17.3674 19.5937L19.258 20.2344C19.4194 20.2874 19.5882 20.3138 19.758 20.3125C20.032 20.3122 20.3012 20.2399 20.5384 20.1028C20.7756 19.9656 20.9726 19.7685 21.1096 19.5312L22.8909 16.4062C23.0732 16.093 23.141 15.726 23.0825 15.3683C23.0241 15.0106 22.8431 14.6843 22.5705 14.4453L21.094 13.0937ZM19.6955 18.75L17.0159 17.8437C16.3886 18.3751 15.6716 18.7904 14.8987 19.0703L14.344 21.875H10.6565L10.1018 19.1016C9.33493 18.8137 8.62188 18.3991 7.99241 17.875L5.30492 18.75L3.46117 15.625L5.58617 13.75C5.44171 12.9413 5.44171 12.1134 5.58617 11.3047L3.46117 9.375L5.30492 6.25L7.9846 7.15625C8.6119 6.62491 9.32882 6.20957 10.1018 5.92969L10.6565 3.125H14.344L14.8987 5.89844C15.6655 6.18626 16.3786 6.60089 17.008 7.125L19.6955 6.25L21.5393 9.375L19.4143 11.25C19.5587 12.0587 19.5587 12.8866 19.4143 13.6953L21.5393 15.625L19.6955 18.75Z" fill="white"/>
<path d="M12.5 17.1875C11.5729 17.1875 10.6666 16.9126 9.89577 16.3975C9.12491 15.8824 8.5241 15.1504 8.16932 14.2938C7.81453 13.4373 7.7217 12.4948 7.90257 11.5855C8.08344 10.6762 8.52988 9.841 9.18544 9.18544C9.841 8.52988 10.6762 8.08344 11.5855 7.90257C12.4948 7.7217 13.4373 7.81453 14.2938 8.16932C15.1504 8.5241 15.8824 9.12491 16.3975 9.89577C16.9126 10.6666 17.1875 11.5729 17.1875 12.5C17.1938 13.1173 17.0768 13.7297 16.8435 14.3012C16.6101 14.8728 16.2651 15.392 15.8285 15.8285C15.392 16.2651 14.8728 16.6101 14.3012 16.8435C13.7297 17.0768 13.1173 17.1938 12.5 17.1875ZM12.5 9.375C12.087 9.36538 11.6763 9.43964 11.2928 9.59328C10.9093 9.74692 10.561 9.97675 10.2689 10.2689C9.97675 10.561 9.74692 10.9093 9.59328 11.2928C9.43964 11.6763 9.36538 12.087 9.375 12.5C9.36538 12.913 9.43964 13.3237 9.59328 13.7072C9.74692 14.0907 9.97675 14.439 10.2689 14.7311C10.561 15.0233 10.9093 15.2531 11.2928 15.4067C11.6763 15.5604 12.087 15.6346 12.5 15.625C12.913 15.6346 13.3237 15.5604 13.7072 15.4067C14.0907 15.2531 14.439 15.0233 14.7311 14.7311C15.0233 14.439 15.2531 14.0907 15.4067 13.7072C15.5604 13.3237 15.6346 12.913 15.625 12.5C15.6346 12.087 15.5604 11.6763 15.4067 11.2928C15.2531 10.9093 15.0233 10.561 14.7311 10.2689C14.439 9.97675 14.0907 9.74692 13.7072 9.59328C13.3237 9.43964 12.913 9.36538 12.5 9.375Z" fill="white"/>
</svg>
