<svg width="25" height="25" viewBox="0 0 25 25" fill="none" xmlns="http://www.w3.org/2000/svg">
<path d="M11.9643 3.47362L11.9644 3.47358C12.1139 3.3464 12.3037 3.27656 12.5 3.27656C12.6857 3.27656 12.8656 3.33905 13.011 3.45345L13.0357 3.47441L20.6528 9.94858C20.744 10.0262 20.8173 10.1226 20.8675 10.2313C20.9177 10.34 20.9437 10.4583 20.9438 10.5781V20.7031C20.9438 20.7669 20.9184 20.8281 20.8733 20.8732C20.8281 20.9184 20.7669 20.9437 20.7031 20.9437H16.4062C16.3424 20.9437 16.2812 20.9184 16.2361 20.8732C16.191 20.8281 16.1656 20.7669 16.1656 20.7031V15.2343C16.1656 14.9581 16.1112 14.6847 16.0055 14.4295C15.8998 14.1743 15.7449 13.9425 15.5496 13.7472C15.3543 13.5519 15.1225 13.397 14.8673 13.2913C14.6122 13.1856 14.3387 13.1312 14.0625 13.1312H10.5469C9.98909 13.1312 9.45415 13.3528 9.05974 13.7472C8.66533 14.1416 8.44375 14.6765 8.44375 15.2343V20.7031C8.44375 20.7669 8.4184 20.8281 8.37327 20.8732C8.32815 20.9184 8.26694 20.9437 8.20312 20.9437H4.29688C4.23306 20.9437 4.17185 20.9184 4.12673 20.8732C4.0816 20.8281 4.05625 20.7669 4.05625 20.7031L4.05625 10.5789L4.05625 10.5787C4.05616 10.4589 4.08213 10.3405 4.13237 10.2316C4.18261 10.1228 4.25592 10.0262 4.3472 9.94858L11.9643 3.47362ZM21.8589 8.52942L21.7617 8.64371L21.8589 8.52941L14.2417 2.0552C14.2417 2.0552 14.2417 2.0552 14.2417 2.05519C13.7555 1.64188 13.1381 1.41494 12.5 1.41494C11.8619 1.41494 11.2445 1.64188 10.7583 2.05519C10.7583 2.0552 10.7583 2.0552 10.7583 2.0552L3.14114 8.52941L3.14113 8.52942C2.84419 8.78185 2.60567 9.0958 2.44209 9.44954C2.27851 9.80327 2.19377 10.1883 2.19375 10.5781V20.7031C2.19375 21.2609 2.41533 21.7958 2.80974 22.1902C3.20415 22.5846 3.73909 22.8062 4.29688 22.8062H8.20312C8.76091 22.8062 9.29585 22.5846 9.69026 22.1902C10.0847 21.7958 10.3063 21.2609 10.3063 20.7031V15.2343C10.3063 15.1705 10.3316 15.1093 10.3767 15.0642C10.4219 15.0191 10.4831 14.9937 10.5469 14.9937H14.0625C14.1263 14.9937 14.1875 15.0191 14.2326 15.0642C14.2778 15.1093 14.3031 15.1705 14.3031 15.2343V20.7031C14.3031 21.2609 14.5247 21.7958 14.9191 22.1902C15.3135 22.5846 15.8485 22.8062 16.4062 22.8062H20.7031C21.2609 22.8062 21.7958 22.5846 22.1903 22.1902C22.5847 21.7958 22.8062 21.2609 22.8062 20.7031V10.5781C22.8062 10.1883 22.7215 9.80327 22.5579 9.44954C22.3943 9.0958 22.1558 8.78185 21.8589 8.52942Z" fill="black" stroke="black" stroke-width="0.3"/>
</svg>
